<svg width="90" height="90" viewBox="0 0 90 90" fill="none" xmlns="http://www.w3.org/2000/svg">
<rect width="90" height="90" rx="18" fill="#F8F8FB"/>
<path d="M28.8542 20.5208H61.1458C66.0417 20.5208 70 24.4958 70 29.4124V60.5874C70 65.5041 66.0417 69.4791 61.1458 69.4791H28.8542C23.9583 69.4791 20 65.5041 20 60.5874V29.4124C20 24.4958 23.9583 20.5208 28.8542 20.5208Z" fill="#001E36"/>
<path d="M31.25 54.8542V33.325C31.25 33.1792 31.3125 33.0937 31.4583 33.0937C31.8125 33.0937 32.1458 33.0938 32.625 33.0729C33.125 33.0521 33.6458 33.0521 34.2083 33.0312C34.7708 33.0104 35.375 33.0104 36.0208 32.9896C36.6667 32.9687 37.2917 32.9688 37.9167 32.9688C39.625 32.9688 41.0417 33.1771 42.2083 33.6167C43.25 33.9729 44.2083 34.5583 45 35.3323C45.6667 36.0021 46.1875 36.8177 46.5208 37.7177C46.8333 38.5958 47 39.4958 47 40.4365C47 42.2365 46.5833 43.7219 45.75 44.8948C44.9167 46.0656 43.75 46.9448 42.3958 47.4469C40.9792 47.9698 39.4167 48.1573 37.7083 48.1573C37.2083 48.1573 36.875 48.1573 36.6667 48.1365C36.4583 48.1156 36.1667 48.1156 35.7708 48.1156V54.8323C35.7917 54.9781 35.6875 55.1031 35.5417 55.124H31.5C31.3333 55.124 31.25 55.0406 31.25 54.8531V54.8542ZM35.7917 37.1323V44.1635C36.0833 44.1844 36.3542 44.2052 36.6042 44.2052H37.7083C38.5208 44.2052 39.3333 44.0792 40.1042 43.8281C40.7708 43.6396 41.3542 43.2417 41.8125 42.7187C42.25 42.1958 42.4583 41.4844 42.4583 40.5635C42.4792 39.9156 42.3125 39.2667 41.9792 38.7021C41.625 38.1583 41.125 37.7396 40.5208 37.5094C39.75 37.1958 38.9167 37.0698 38.0625 37.0906C37.5208 37.0906 37.0417 37.0906 36.6458 37.1115C36.2292 37.0906 35.9375 37.1115 35.7917 37.1323ZM60 42.8854C59.375 42.5521 58.7083 42.3219 58 42.175C57.2292 42.0083 56.4583 41.9031 55.6667 41.9031C55.25 41.8823 54.8125 41.9448 54.4167 42.049C54.1458 42.1115 53.9167 42.2583 53.7708 42.4677C53.6667 42.6344 53.6042 42.8448 53.6042 43.0333C53.6042 43.2208 53.6875 43.4094 53.8125 43.5771C54 43.8062 54.25 43.9948 54.5208 44.1417C55 44.3927 55.5 44.6229 56 44.8323C57.125 45.2083 58.2083 45.7323 59.2083 46.3594C59.8958 46.799 60.4583 47.3844 60.8542 48.0958C61.1875 48.7656 61.3542 49.4979 61.3333 50.251C61.3542 51.2344 61.0625 52.2177 60.5208 53.0333C59.9375 53.8708 59.125 54.5187 58.1875 54.8958C57.1667 55.3354 55.9167 55.5656 54.4167 55.5656C53.4583 55.5656 52.5208 55.4823 51.5833 55.2937C50.8542 55.1687 50.125 54.9375 49.4583 54.624C49.3125 54.5406 49.2083 54.3937 49.2292 54.226V50.5854C49.2292 50.5229 49.25 50.4396 49.3125 50.3979C49.375 50.3562 49.4375 50.3771 49.5 50.4187C50.3125 50.9 51.1667 51.2344 52.0833 51.4437C52.875 51.6521 53.7083 51.7573 54.5417 51.7573C55.3333 51.7573 55.8958 51.6531 56.2708 51.4646C56.6042 51.3188 56.8333 50.9625 56.8333 50.5854C56.8333 50.2937 56.6667 50.0208 56.3333 49.749C56 49.4771 55.3125 49.1635 54.2917 48.7656C53.2292 48.3885 52.25 47.8865 51.3333 47.2594C50.6875 46.799 50.1458 46.1917 49.75 45.4812C49.4167 44.8115 49.25 44.0792 49.2708 43.3458C49.2708 42.4469 49.5208 41.5896 49.9792 40.8146C50.5 39.9781 51.2708 39.3083 52.1667 38.8906C53.1458 38.3885 54.375 38.1583 55.8542 38.1583C56.7083 38.1583 57.5833 38.2208 58.4375 38.3458C59.0625 38.4292 59.6667 38.5969 60.2292 38.8271C60.3125 38.8479 60.3958 38.9313 60.4375 39.0156C60.4583 39.099 60.4792 39.1823 60.4792 39.2667V42.6771C60.4792 42.7604 60.4375 42.8437 60.375 42.8854C60.1875 42.9281 60.0833 42.9281 60 42.8854Z" fill="#31A8FF"/>
</svg>
