<svg width="90" height="90" viewBox="0 0 90 90" fill="none" xmlns="http://www.w3.org/2000/svg">
<rect width="90" height="90" rx="18" fill="#F8F8FB"/>
<path d="M28.8896 20.5208H61.1324C63.4782 20.5187 65.7292 21.4541 67.3876 23.1208C69.0459 24.7874 69.9771 27.0499 69.9761 29.4072V60.5614C69.9771 62.9187 69.0459 65.1801 67.3876 66.8478C65.7292 68.5145 63.4782 69.4499 61.1324 69.4478H28.8876C26.5428 69.4499 24.2928 68.5145 22.6344 66.8468C20.9751 65.1801 20.0449 62.9197 20.0459 60.5614V29.4072C20.0449 27.0499 20.9761 24.7885 22.6355 23.1208C24.2938 21.4541 26.5438 20.5187 28.8896 20.5208Z" fill="#00005B"/>
<path d="M40.1026 49.7947H32.3651L30.7838 54.7281C30.7474 54.9135 30.5755 55.0406 30.388 55.0218H26.4776C26.2484 55.0218 26.1859 54.8958 26.2484 54.6447L32.9463 35.3468C33.0088 35.1385 33.0713 34.9499 33.1547 34.6989C33.238 34.251 33.2797 33.7958 33.2797 33.3395C33.2651 33.2312 33.339 33.1301 33.4463 33.1104H38.8338C38.9797 33.1104 39.0838 33.1729 39.1047 33.277L46.6974 54.7083C46.7599 54.9385 46.6974 55.0447 46.489 55.0447H42.1411C41.989 55.0604 41.8484 54.9635 41.8078 54.8156L40.1026 49.7947ZM33.5713 45.6333H38.8547C38.7297 45.1937 38.563 44.6729 38.3765 44.127C38.189 43.5624 38.0015 42.9562 37.814 42.3301C37.6067 41.6812 37.4203 41.0541 37.212 40.4062C37.0036 39.7583 36.8161 39.151 36.6495 38.5447C36.4828 37.9593 36.338 37.4156 36.1922 36.9135H36.1505C35.963 37.8249 35.7255 38.726 35.4411 39.6114C35.1286 40.6145 34.8172 41.6604 34.4859 42.7051C34.2151 43.7718 33.8817 44.7551 33.5713 45.6343V45.6333ZM59.0317 47.8708H52.438C52.5161 48.5301 52.7359 49.1656 53.0828 49.7312C53.4495 50.2947 53.9797 50.7322 54.6005 50.9854C55.4422 51.3468 56.3505 51.5249 57.2651 51.5083C57.9922 51.4947 58.7161 51.4176 59.4286 51.2791C60.064 51.1958 60.6849 51.0343 61.2807 50.7989C61.3849 50.7156 61.4474 50.7572 61.4474 50.9656V54.1645C61.4432 54.2499 61.4297 54.3343 61.4057 54.4156C61.3682 54.4749 61.3182 54.5249 61.2599 54.5614C60.5942 54.8562 59.8953 55.0666 59.1797 55.1895C58.2057 55.377 57.2161 55.4614 56.2255 55.4406C54.6442 55.4406 53.312 55.1895 52.2317 54.7083C51.213 54.2645 50.3151 53.5833 49.6099 52.7218C48.9515 51.9166 48.463 50.9843 48.1745 49.9822C47.8828 48.9926 47.7359 47.9635 47.737 46.9301C47.7338 45.801 47.9099 44.6791 48.2578 43.6051C48.5901 42.5583 49.1192 41.5864 49.8182 40.7406C50.5057 39.9051 51.364 39.2281 52.3349 38.7541C53.313 38.2749 54.4786 38.1051 55.8088 38.1051C56.9182 38.0801 58.0182 38.302 59.0317 38.7541C59.8838 39.126 60.6338 39.6999 61.2161 40.427C61.7682 41.1406 62.1922 41.9479 62.4651 42.8104C62.7286 43.6343 62.8619 44.4958 62.8599 45.3614C62.8599 45.8624 62.839 46.302 62.8182 46.6999C62.7765 47.0968 62.7557 47.3895 62.7349 47.577C62.7161 47.727 62.5932 47.8416 62.4432 47.8499C62.3182 47.8499 62.089 47.8708 61.7567 47.8916C61.3567 47.9364 60.9547 47.9572 60.5505 47.9541C60.0734 47.9541 59.5724 47.8708 59.0317 47.8708ZM52.438 44.8176H56.8265C57.3682 44.8176 57.763 44.8176 58.013 44.7968C58.1828 44.7822 58.3474 44.7239 58.4901 44.6301V44.4208C58.4901 44.1572 58.4484 43.8958 58.3651 43.6468C57.9901 42.4718 56.888 41.6864 55.6609 41.7229C54.5078 41.6583 53.4245 42.2801 52.8942 43.3124C52.6526 43.7812 52.4974 44.2916 52.438 44.8176Z" fill="#9999FF"/>
</svg>
