<svg width="90" height="90" viewBox="0 0 90 90" fill="none" xmlns="http://www.w3.org/2000/svg">
<rect width="90" height="90" rx="18" fill="#F8F8FB"/>
<path d="M28.8542 20.5208H61.1458C66.0417 20.5208 70 24.4958 70 29.4124V60.5874C70 65.5041 66.0417 69.4791 61.1458 69.4791H28.8542C23.9583 69.4791 20 65.5041 20 60.5874V29.4124C20 24.4958 23.9583 20.5208 28.8542 20.5208Z" fill="#330000"/>
<path d="M44.2289 49.8958H36.4789L34.8955 54.8125C34.8539 55.001 34.6872 55.1271 34.4997 55.1062H30.583C30.3539 55.1062 30.2914 54.9812 30.3539 54.7292L37.0622 35.3333C37.1247 35.125 37.1872 34.8958 37.2705 34.6437C37.3539 34.2042 37.3955 33.7437 37.3955 33.2844C37.3747 33.1802 37.458 33.075 37.5622 33.0542H42.958C43.1247 33.0542 43.208 33.1167 43.2289 33.2208L50.833 54.7708C50.8955 55.001 50.833 55.1062 50.6247 55.1062H46.2705C46.1247 55.1271 45.9789 55.0229 45.9372 54.876L44.2289 49.8969V49.8958ZM37.6872 45.65H42.9789C42.8539 45.2104 42.6872 44.6875 42.4997 44.1437C42.3122 43.5791 42.1247 42.9719 41.9372 42.3448C41.7289 41.6958 41.5414 41.0677 41.333 40.4198C41.1247 39.7708 40.9372 39.1646 40.7705 38.5573C40.6039 37.9719 40.458 37.4271 40.3122 36.925H40.2705C40.083 37.825 39.8539 38.725 39.5622 39.6239C39.2497 40.6292 38.9372 41.675 38.6039 42.7208C38.3122 43.7875 37.9997 44.7708 37.6872 45.65ZM55.3747 36.6312C54.6872 36.6521 54.0205 36.3812 53.5205 35.8989C53.0414 35.376 52.7914 34.6854 52.8122 33.9739C52.7914 33.2625 53.0622 32.5937 53.5622 32.1125C54.0622 31.6312 54.7289 31.3792 55.4164 31.3792C56.2289 31.3792 56.8539 31.6292 57.3122 32.1114C57.7705 32.6135 58.0205 33.2833 57.9997 33.9729C58.0205 34.6844 57.7705 35.375 57.2705 35.8979C56.7914 36.4 56.083 36.6729 55.3747 36.6312ZM53.0414 54.7916V38.6823C53.0414 38.4729 53.1247 38.3885 53.3122 38.3885H57.4372C57.6247 38.3885 57.708 38.4927 57.708 38.6823V54.7916C57.708 55.0219 57.6247 55.1271 57.4372 55.1271H53.3539C53.1455 55.1271 53.0414 55.0021 53.0414 54.7916Z" fill="#FF9A00"/>
</svg>
