<svg width="90" height="90" viewBox="0 0 90 90" fill="none" xmlns="http://www.w3.org/2000/svg">
<rect width="90" height="90" rx="18" fill="#F8F8FB"/>
<path fill-rule="evenodd" clip-rule="evenodd" d="M36.6677 70C41.2677 70 45.0003 66.2663 45.0003 61.6663V53.3337H36.6677C32.0677 53.3337 28.334 57.0653 28.334 61.6663C28.334 66.2674 32.0677 70 36.6677 70Z" fill="#0ACF83"/>
<path fill-rule="evenodd" clip-rule="evenodd" d="M28.334 45C28.334 40.4 32.0677 36.6663 36.6677 36.6663H45.0003V53.3337H36.6677C32.0677 53.3337 28.334 49.6 28.334 45Z" fill="#A259FF"/>
<path fill-rule="evenodd" clip-rule="evenodd" d="M28.334 28.3337C28.334 23.7337 32.0677 20 36.6677 20H45.0003V36.6663H36.6677C32.0677 36.6663 28.334 32.9348 28.334 28.3337Z" fill="#F24E1E"/>
<path fill-rule="evenodd" clip-rule="evenodd" d="M45 20H53.3337C57.9337 20 61.6674 23.7337 61.6674 28.3337C61.6674 32.9337 57.9337 36.6663 53.3337 36.6663H45V20Z" fill="#FF7262"/>
<path fill-rule="evenodd" clip-rule="evenodd" d="M61.6674 45.0002C61.6674 49.6002 57.9337 53.3339 53.3337 53.3339C48.7337 53.3339 45 49.6002 45 45.0002C45 40.4002 48.7337 36.6665 53.3337 36.6665C57.9337 36.6665 61.6674 40.4002 61.6674 45.0002Z" fill="#1ABCFE"/>
</svg>
