<svg width="90" height="90" viewBox="0 0 90 90" fill="none" xmlns="http://www.w3.org/2000/svg">
<rect width="90" height="90" rx="18" fill="#F8F8FB"/>
<path d="M65.4674 20H24.5326C22.0293 20 20 22.0293 20 24.5326V65.4674C20 67.9707 22.0293 70 24.5326 70H65.4674C67.9707 70 70 67.9707 70 65.4674V24.5326C70 22.0293 67.9707 20 65.4674 20Z" fill="#FF3366"/>
<path fill-rule="evenodd" clip-rule="evenodd" d="M39.7644 32.7215C39.7644 34.4289 38.372 35.7316 36.71 35.7316C35.0479 35.7316 33.6559 34.4287 33.6559 32.7215C33.6559 31.0152 35.0479 29.7126 36.71 29.7126C38.372 29.7126 39.7644 31.0152 39.7644 32.7215ZM30.1072 54.1097C30.1072 53.4371 30.1973 52.6124 30.3768 51.8488L32.6674 42.4905H29.1191L30.1973 38.5133H38.7316L35.3625 51.8773C35.1379 52.7314 35.0481 53.4398 35.0481 53.9329C35.0481 54.7876 35.4687 55.0374 36.1265 55.1859C36.5272 55.2755 39.7191 55.2128 41.4568 51.3499L43.6698 42.4905H40.0762L41.1543 38.5133H48.8348L47.8468 43.0289C49.1941 40.513 51.8894 38.1226 54.5394 38.1226C57.3691 38.1226 59.7051 40.1387 59.7051 44.0015C59.7051 44.9894 59.5701 46.0646 59.2109 47.2771L57.7732 52.4408C57.6388 52.981 57.5486 53.4296 57.5486 53.834C57.5486 54.7318 57.908 55.1806 58.5818 55.1806C59.2557 55.1806 60.1091 54.6855 61.0975 51.947L63.0736 52.7099C61.9057 56.7976 59.7948 58.5037 57.1445 58.5037C54.0451 58.5037 52.5633 56.6633 52.5633 54.147C52.5633 53.4289 52.6528 52.6648 52.8774 51.9012L54.3598 46.601C54.5394 46.0168 54.5843 45.4782 54.5843 44.984C54.5843 43.2777 53.5513 42.2441 51.8894 42.2441C49.7781 42.2441 48.3857 43.7595 47.6669 46.6791L44.7919 58.2101H39.7617L40.6647 54.5865C39.1859 57.0155 37.1323 58.5199 34.599 58.5199C31.5445 58.5199 30.1072 56.7603 30.1072 54.1097Z" fill="white"/>
</svg>
