<svg width="90" height="90" viewBox="0 0 90 90" fill="none" xmlns="http://www.w3.org/2000/svg">
<rect width="90" height="90" rx="18" fill="#F8F8FB"/>
<path d="M28.8542 20.5208H61.1458C66.0417 20.5208 70 24.4958 70 29.4124V60.5874C70 65.5041 66.0417 69.4791 61.1458 69.4791H28.8542C23.9583 69.4791 20 65.5041 20 60.5874V29.4124C20 24.4958 23.9583 20.5208 28.8542 20.5208Z" fill="#00005B"/>
<path d="M27.3774 34.2709C27.3982 34.148 27.5013 34.0657 27.6242 34.0657H33.4232C33.5888 34.0448 33.7336 34.148 33.7742 34.2917C33.919 34.8688 34.1044 35.548 34.3107 36.3719C34.5169 37.174 34.744 38.0594 34.9919 39.049C35.2399 40.0167 35.4878 41.025 35.7347 42.0344C35.9826 43.0438 36.2305 44.0323 36.4784 45C36.7253 45.9677 36.9315 46.8532 37.0972 47.6563C37.2617 48.4584 37.4065 49.1386 37.5097 49.6542H37.5513C37.6336 49.1802 37.7784 48.5625 37.9847 47.8C38.1909 47.0188 38.4388 46.1532 38.7065 45.2063C38.9753 44.2375 39.2638 43.249 39.5524 42.2407C39.8419 41.2313 40.1097 40.2219 40.3992 39.2136C40.6669 38.224 40.9357 37.298 41.1628 36.4532C41.4107 35.6094 41.5961 34.8886 41.7409 34.3125C41.7617 34.1677 41.8847 34.0657 42.0294 34.0855H47.6836C47.8284 34.0646 47.9524 34.1688 47.9732 34.2917V34.3125L48.7367 55.5021C48.7576 55.5844 48.7367 55.6667 48.6951 55.7084C48.6326 55.7698 48.5711 55.7907 48.4888 55.7907H44.3815C44.319 55.7907 44.2784 55.7698 44.2169 55.749C44.1753 55.7073 44.1544 55.6261 44.1544 55.5636C44.1544 54.4313 44.1544 53.2573 44.1336 52.0219C44.1128 50.7865 44.1128 49.5511 44.093 48.2948C44.0722 47.0386 44.0722 45.8438 44.093 44.6907C44.1138 43.5375 44.1347 42.4875 44.1347 41.499C44.1347 40.5302 44.1347 39.6865 44.1555 38.9667C44.1763 38.2459 44.1763 37.7105 44.1763 37.3605H44.1347C44.0097 37.9157 43.8451 38.6365 43.6388 39.5219C43.4326 40.4073 43.1847 41.4167 42.8961 42.549C42.6076 43.6615 42.2972 44.8146 41.9878 46.0084C41.6576 47.2032 41.3482 48.3771 41.0388 49.55C40.7294 50.725 40.4399 51.8157 40.1513 52.825C39.8628 53.8344 39.6357 54.7396 39.4492 55.5021C39.4076 55.6667 39.2638 55.7698 39.0992 55.7698H35.4878C35.3013 55.7907 35.1367 55.6865 35.1159 55.5021C34.9305 54.7198 34.7034 53.8344 34.4763 52.825C34.2284 51.8157 33.9805 50.7448 33.7336 49.6334C33.4857 48.5209 33.2169 47.3886 32.9284 46.2355C32.6399 45.0823 32.3711 43.95 32.1232 42.8792C31.8763 41.7875 31.6492 40.7782 31.443 39.8313C31.2357 38.8834 31.0503 38.0396 30.8857 37.3188H30.8232V39.9334C30.8232 40.9438 30.8024 42.0761 30.7815 43.2907C30.7409 44.5261 30.7201 45.8032 30.6794 47.1417C30.6378 48.4802 30.6169 49.8605 30.5753 51.2802C30.5336 52.7011 30.4722 54.1219 30.4107 55.5021C30.4107 55.6875 30.3274 55.7698 30.1628 55.7698H26.5107C26.4482 55.7698 26.3649 55.749 26.3034 55.7282C26.2419 55.6865 26.2419 55.6052 26.2617 55.4813L27.3774 34.2709ZM60.9951 48.5625H54.4534C54.5357 49.1802 54.7419 49.7771 55.093 50.3125C55.4638 50.8688 55.9794 51.3011 56.5992 51.548C57.2805 51.8573 58.1472 52.0219 59.2409 52.0219C59.9628 52.0219 60.6857 51.9594 61.3867 51.8365C62.0471 51.7125 62.7076 51.5282 63.3263 51.2605C63.4305 51.1771 63.4919 51.2188 63.4919 51.425V54.575C63.4919 54.6584 63.4711 54.7396 63.4503 54.823C63.4086 54.8844 63.368 54.925 63.3065 54.9667C62.6253 55.2959 61.9024 55.523 61.1399 55.6875C60.169 55.873 59.1992 55.9552 58.2086 55.9344C56.6399 55.9344 55.3201 55.6875 54.2461 55.2136C53.2357 54.7813 52.3482 54.1021 51.6461 53.2573C50.9857 52.4552 50.5107 51.549 50.2222 50.5594C49.9336 49.5917 49.7888 48.5834 49.7888 47.5532C49.7888 46.4417 49.9544 45.35 50.3044 44.2792C50.6347 43.249 51.1513 42.3021 51.8524 41.4584C52.5336 40.6344 53.3794 39.975 54.3492 39.5011C55.4221 39.0073 56.6201 38.7605 57.7961 38.7813C58.8899 38.7605 59.9836 38.9667 60.994 39.4188C61.8409 39.8105 62.6044 40.3875 63.1607 41.1282C63.6982 41.8282 64.1315 42.6115 64.4003 43.4761C64.668 44.299 64.7919 45.1438 64.7919 45.9886C64.7919 46.4823 64.7711 46.9157 64.7503 47.3063C64.7086 47.6969 64.6878 47.9855 64.668 48.1709C64.6472 48.3157 64.5232 48.4386 64.3794 48.4386C64.2544 48.4386 64.0284 48.4594 63.6982 48.4802C63.368 48.5219 62.9763 48.5417 62.5003 48.5417C62.0263 48.5417 61.5107 48.5625 60.9951 48.5625ZM54.4534 45.3292H58.7867C59.3232 45.3292 59.7149 45.3292 59.9638 45.3084C60.1284 45.3084 60.293 45.2875 60.4378 45.2667V45.0615C60.4378 44.7938 60.3961 44.5469 60.3128 44.3C59.9419 43.1469 58.8482 42.3636 57.6305 42.4042C56.4951 42.3438 55.4222 42.9407 54.8857 43.9698C54.6597 44.4021 54.5159 44.8552 54.4534 45.3292Z" fill="#9999FF"/>
</svg>
