<svg width="90" height="90" viewBox="0 0 90 90" fill="none" xmlns="http://www.w3.org/2000/svg">
<rect width="90" height="90" rx="18" fill="#F8F8FB"/>
<path d="M44.2308 68.9423C57.6131 68.9423 68.4615 58.0938 68.4615 44.7115C68.4615 31.3292 57.6131 20.4807 44.2308 20.4807C30.8485 20.4807 20 31.3292 20 44.7115C20 58.0938 30.8485 68.9423 44.2308 68.9423Z" fill="white"/>
<path d="M56.3367 42.1442C56.0703 48.2279 51.1482 53.1913 45.3145 53.1913C43.3847 53.1913 41.8213 51.5875 41.8213 49.6096C41.8213 47.6317 43.3847 46.0279 45.3145 46.0279C47.4011 46.0279 49.3145 44.0615 49.3597 41.7125L49.3559 41.8144V41.7096C49.2982 39.5557 47.6636 37.8461 45.5636 37.7442L45.3655 37.7394H45.2645C42.9761 37.7394 41.1222 39.6404 41.1222 41.9856V57.2836C41.1222 59.2615 39.5578 60.8654 37.629 60.8654C36.7838 60.8654 36.0097 60.5577 35.4059 60.0481C36.0751 59.7154 36.5357 59.0154 36.5357 58.2048C36.5357 57.075 35.6405 56.1586 34.5357 56.1586C34.3972 56.1586 34.2626 56.1731 34.1328 56.2L34.1347 41.9856C34.1347 35.6846 39.1174 30.5769 45.2645 30.5769H45.3655C51.5386 30.5769 56.4645 35.7279 56.3424 42.0557L56.3434 41.8538L56.3424 41.9471L56.3463 41.8548L56.3424 41.9856V41.9471L56.3395 42.0548L56.3367 42.1442Z" fill="#9734C4"/>
<path d="M45.2399 51.7787C46.3551 51.7787 47.2592 50.8747 47.2592 49.7595C47.2592 48.6443 46.3551 47.7402 45.2399 47.7402C44.1247 47.7402 43.2207 48.6443 43.2207 49.7595C43.2207 50.8747 44.1247 51.7787 45.2399 51.7787Z" fill="#F7F7F7"/>
</svg>
