<svg width="90" height="90" viewBox="0 0 90 90" fill="none" xmlns="http://www.w3.org/2000/svg">
<rect width="90" height="90" rx="18" fill="#F8F8FB"/>
<path d="M30.981 24.072L44.857 22.6042L58.7352 24.072L69.4789 38.5001L44.8581 67.1834L20.2383 38.5001L30.981 24.072Z" fill="#FDB300"/>
<path d="M30.2112 38.6741L44.8581 67.1834L20.2383 38.6741H30.2112Z" fill="#EA6C00"/>
<path d="M59.5096 38.6741L44.8617 67.1834L69.4814 38.6741H59.5096Z" fill="#EA6C00"/>
<path d="M29.9883 38.6741H59.2247L44.607 67.1834L29.9883 38.6741Z" fill="#FDAD00"/>
<path d="M44.3497 22.6042L30.7435 24.0876L29.9883 38.674L44.3497 22.6042Z" fill="#FDD231"/>
<path d="M44.8544 22.6042L58.4606 24.0876L59.2158 38.674L44.8544 22.6042Z" fill="#FDD231"/>
<path d="M69.4805 38.674L58.7086 24.1594L59.4815 38.674H69.4805Z" fill="#FDAD00"/>
<path d="M20.2383 38.674L31.0091 24.1594L30.2362 38.674H20.2383Z" fill="#FDAD00"/>
<path d="M44.607 22.6042L29.9883 38.674H59.2247L44.607 22.6042Z" fill="#FEEEB7"/>
</svg>
