<svg width="90" height="90" viewBox="0 0 90 90" fill="none" xmlns="http://www.w3.org/2000/svg">
<rect width="90" height="90" rx="18" fill="#F8F8FB"/>
<path d="M41.297 20.5L39.3 22.454L43.011 26.092L25.68 43.037L22.02 39.45L20.025 41.402L23.682 44.989L20 48.588L21.966 50.513L25.645 46.916L43.025 63.959L39.353 67.548L41.313 69.467L44.982 65.88L48.675 69.5L50.671 67.544L46.98 63.927L64.313 46.981L68.004 50.601L70 48.645L66.313 45.028L69.8 41.62L67.84 39.7L64.353 43.11L46.973 26.067L50.491 22.629L48.525 20.704L45.008 24.14L41.297 20.5ZM27.643 44.964L44.976 28.019L62.356 45.062L45.022 62.006L27.643 44.964Z" fill="#EB4329"/>
<path d="M44.985 32.5L58 45.015L45.015 57.5L32 44.985L44.985 32.5Z" fill="#36BBD0"/>
</svg>
