<svg width="90" height="90" viewBox="0 0 90 90" fill="none" xmlns="http://www.w3.org/2000/svg">
<rect width="90" height="90" rx="18" fill="#F8F8FB"/>
<path d="M27.5761 52.3701L25.005 53.3087L24.8682 60.9578L33.7673 57.7061C30.7129 56.6833 28.4848 54.8798 27.5761 52.3701Z" fill="#93BEFF"/>
<path d="M28.9219 44.2805L20 47.541L25.0053 53.313L27.5754 52.3726C26.6693 49.8709 27.2289 47.0472 28.9219 44.2823" fill="#5297FF"/>
<path d="M43.933 33.2437C32.5734 37.3928 25.248 45.9577 27.576 52.37L68.7137 37.3419C66.3866 30.9297 55.2927 29.0937 43.933 33.2437Z" fill="#C2DAFF"/>
<path d="M52.3549 56.4701C63.7146 52.3209 71.0523 43.7946 68.7119 37.3438L27.5742 52.3701C29.9137 58.8227 40.9953 60.6201 52.3549 56.4701Z" fill="#0066FF"/>
<path d="M68.7121 37.342L27.5762 52.3701C28.3806 54.592 31.4534 55.6859 35.763 55.6859C39.9648 55.6859 45.3446 54.6473 50.9516 52.5982C62.3121 48.4491 70.3025 41.7289 68.7121 37.342Z" fill="#5297FF"/>
<path d="M60.5259 34.0281C56.3242 34.0281 50.9435 35.0676 45.3356 37.1158C33.9759 41.2649 25.9847 47.9842 27.5759 52.3702L68.7136 37.3421C67.9066 35.1202 64.8373 34.0281 60.5259 34.0281Z" fill="#93BEFF"/>
<path d="M58.2522 61.363C57.0417 61.363 55.2566 60.2709 52.9452 58.1147C50.2101 55.5638 47.0794 51.827 44.1251 47.5937C41.1724 43.3603 38.7461 39.1288 37.2917 35.6753C35.7093 31.9138 35.4829 29.6024 36.6198 28.8016C36.8829 28.6226 37.1961 28.5296 37.5145 28.5384C38.44 28.5384 40.2452 29.227 43.5794 32.5103L43.6531 32.5823L43.6426 32.684C43.6207 32.9209 43.6005 33.1577 43.5812 33.3928L43.5452 33.856L43.218 33.527C39.6242 29.9068 38.0435 29.5174 37.5286 29.5174C37.3821 29.5174 37.2654 29.5463 37.1821 29.6051C36.6873 29.9524 36.6549 31.6516 38.1908 35.2963C39.618 38.6867 42.0093 42.8542 44.9233 47.0331C47.84 51.213 50.9233 54.8928 53.6101 57.3981C56.5066 60.0998 57.8119 60.3919 58.2382 60.3919C58.3847 60.3919 58.5031 60.3612 58.5935 60.2981C59.1136 59.9323 59.1136 58.1138 57.4031 54.1884L57.3233 54.0086L57.4943 53.9147C57.6663 53.8209 57.8338 53.7288 57.9891 53.6393L58.1952 53.5226L58.2917 53.7393C59.504 56.52 60.6391 60.0551 59.1514 61.1007C58.8873 61.2805 58.5724 61.3717 58.2522 61.363Z" fill="#0066FF"/>
<path d="M52.6303 56.3517L52.6136 56.5648C52.3259 60.1175 51.5698 64.3894 49.5978 64.5631C49.5566 64.5675 49.5163 64.5675 49.4777 64.5675C48.1373 64.5675 46.8698 62.6482 45.7119 58.8639C44.6128 55.2824 43.761 50.4745 43.3145 45.3271C42.8645 40.178 42.8706 35.2955 43.3321 31.5771C43.8347 27.5254 44.7908 25.4104 46.175 25.2876C46.2163 25.2832 46.2592 25.2815 46.2996 25.2815C47.2715 25.2815 48.7356 26.3824 50.2347 31.5078L49.2566 31.6955C48.7566 29.985 48.211 28.592 47.6698 27.6315C47.1698 26.7473 46.6821 26.2596 46.2996 26.2596C46.2873 26.2596 46.275 26.2596 46.261 26.2613C45.661 26.314 44.7873 27.7683 44.3005 31.6982C43.847 35.349 43.8408 40.1604 44.2838 45.2411C44.7277 50.3236 45.5645 55.0596 46.6435 58.5762C47.125 60.1508 47.654 61.449 48.1742 62.3297C48.6522 63.142 49.1163 63.5894 49.4777 63.5894C49.4899 63.5894 49.5013 63.5894 49.5136 63.5876C50.0882 63.5385 51.1698 62.0227 51.6259 56.6955L52.6303 56.3517Z" fill="#0066FF"/>
</svg>
