<svg width="1387" height="429" viewBox="0 0 1387 429" fill="none" xmlns="http://www.w3.org/2000/svg">
<g style="mix-blend-mode:luminosity">
<rect x="70" width="289" height="123" rx="36" fill="#F8F8FB"/>
<path fill-rule="evenodd" clip-rule="evenodd" d="M217.834 48.4823H216.321V46.2134H217.834V48.4823ZM162.486 50.7515H160.352L169.057 69.659H170.724L179.261 50.7515H177.257L169.918 67.4534L162.486 50.7515ZM186.068 51.0669H187.947V56.5647C189.493 53.1117 192.762 50.6039 196.657 50.7582V52.803H196.461C191.92 52.803 187.947 56.1789 187.947 62.4869V70.4153H186.068V51.0669ZM197.014 71.3314L195.967 72.8285C197.182 73.8897 200.286 75.7468 204.361 75.7089C207.053 75.7089 209.427 74.8182 210.998 73.1695C212.456 71.6536 213.297 69.4743 213.297 66.7264V51.1873H211.54V54.9964C210.437 52.836 207.595 50.7515 203.931 50.7515C199.519 50.7515 195.144 54.2951 195.144 59.7718V59.8476C195.144 65.2863 199.519 68.792 203.931 68.792C207.558 68.792 210.325 66.6128 211.54 64.3956V66.6317C211.54 71.5209 208.586 74.0222 204.398 74.0222C201.706 74.0222 199.201 73.0937 197.014 71.3314ZM211.783 59.4859V59.411C211.783 55.0702 208.016 52.2636 204.034 52.2636C200.033 52.2636 196.656 54.9953 196.656 59.3736V59.4485C196.656 63.677 200.091 66.6333 204.034 66.6333C208.016 66.6333 211.783 63.7519 211.783 59.4859ZM217.834 50.7515H216.321V69.659H217.834V50.7515ZM181.53 48.4823H183.043V46.2134H181.53V48.4823ZM183.043 50.7515H181.53V69.659H183.043V50.7515ZM160.352 91.7219V91.6465C160.352 87.0275 164.59 85.4816 168.678 85.4816H174.473C174.473 81.6544 172.185 79.6937 168.378 79.6937C166.127 79.6937 164.271 80.3347 162.564 81.2208L161.852 79.6183C163.708 78.6756 165.94 77.9781 168.49 77.9781C170.985 77.9781 172.991 78.6756 174.341 80.0519C175.579 81.3151 176.235 83.0495 176.235 85.3873V97.1893H174.491V94.0408C173.61 95.6622 170.985 97.6417 167.421 97.6417C163.952 97.6606 160.352 95.6433 160.352 91.7219ZM174.722 87.0534V90.0401C174.722 94.3178 170.694 96.1098 167.78 96.129C164.978 96.129 162.62 94.5105 162.62 91.6972V91.6202C162.62 88.383 165.219 87.0534 169.395 87.0534H174.722ZM189.849 91.722V91.6466C189.849 87.0276 194.098 85.4817 198.177 85.4817H203.985C203.985 81.6545 201.692 79.6938 197.876 79.6938C195.62 79.6938 193.759 80.3348 192.049 81.2209L191.334 79.6184C193.195 78.6757 195.432 77.9782 197.989 77.9782C200.489 77.9782 202.5 78.6757 203.835 80.052C205.075 81.3152 205.733 83.0496 205.733 85.3874V97.1894H203.985V94.0409C203.102 95.6623 200.47 97.6418 196.898 97.6418C193.459 97.6607 189.849 95.6434 189.849 91.722ZM204.22 87.0534V90.0401C204.22 94.3178 200.211 96.1098 197.278 96.129C194.475 96.129 192.118 94.5105 192.118 91.6972V91.6202C192.118 88.383 194.717 87.0534 198.893 87.0534H204.22ZM186.068 72.6836H187.58V96.8852H186.068V72.6836ZM210.617 77.6785H208.777V96.8855H210.636V85.7306C210.636 81.7712 213.561 78.9159 217.378 78.9159C222.84 78.9159 223.557 83.4463 223.557 86.1303V96.8855H225.397L225.378 85.2548C225.378 81.3334 223.325 77.2217 217.629 77.2217C214.084 77.2217 211.915 78.992 210.617 81.2382V77.6785ZM234.473 77.9782H235.986V96.8857H234.473V77.9782ZM239.013 87.4123V87.49C239.013 92.9444 242.973 97.6224 248.677 97.6418C252.657 97.6418 255.234 95.4484 256.409 93.8955L255.159 92.7503C253.548 94.5555 251.482 95.8755 248.791 95.8755C244.432 95.8755 241.002 92.1291 241.002 87.4318V87.3541C241.002 82.6955 244.319 78.9881 248.639 78.9881C251.69 78.9881 253.528 80.5797 254.988 82.1908L256.276 80.8321C255.026 79.2598 252.524 77.2217 248.677 77.2217C242.973 77.2217 239.013 81.9579 239.013 87.4123ZM180.215 96.8852V79.4221H183.798V77.7327H180.215V72.6836H178.504V77.7327V79.4221V96.8852H180.215ZM228.622 79.4221V96.8852H226.911V79.4221V77.7327V72.6836H228.622V77.7327H232.206V79.4221H228.622ZM234.473 74.9525H235.986V72.6836H234.473V74.9525ZM221.963 51.2105H220.103V70.4153H221.963V59.3018C221.963 55.3231 224.888 52.4539 228.704 52.4539C234.167 52.4539 234.883 57.0064 234.883 59.7035V70.4153H236.743L236.724 58.8236C236.724 54.8832 234.67 50.7515 228.975 50.7515C225.43 50.7515 223.261 52.5304 221.963 54.7875V51.2105Z" fill="#5A0169"/>
<path d="M268.514 25.0369H252.149C247.085 25.0369 245.852 25.8811 243.823 28.1259L229.184 44.3572C240.865 43.8008 244.487 55.7154 256.339 52.4537L268.514 25.0369Z" fill="#EB143A"/>
<path fill-rule="evenodd" clip-rule="evenodd" d="M246.952 30.9997C246.952 30.9997 247.653 29.658 248.222 29.2045C248.222 29.2045 248.847 28.8076 248.847 28.184C248.847 28.184 248.885 27.7683 248.544 27.5037C248.544 27.5037 247.653 26.8045 246.952 28.0328C246.952 28.0328 243.655 34.4769 242.575 40.9587C242.575 40.9587 242.48 41.1666 242.461 40.5808C242.461 40.5808 241.874 35.1761 241.855 34.9682C241.853 34.9528 241.852 34.9355 241.85 34.9165C241.833 34.7023 241.799 34.2848 241.381 34.2501C241.381 34.2501 240.85 34.1557 240.547 34.9682L239.088 38.691C239.088 38.691 238.842 39.1635 239.258 39.3335C239.258 39.3335 239.713 39.5792 239.998 38.9555L240.661 37.4627C240.793 37.1603 240.907 37.1981 240.907 37.1981C240.983 37.217 241.021 37.5193 241.021 37.5193C241.021 37.5193 241.741 44.776 241.741 44.8327C241.741 44.8894 241.817 45.4752 242.309 45.4563C242.669 45.4563 242.764 45.0595 242.84 44.7193C242.897 44.3981 243.522 40.9209 244.564 37.1792C245.247 34.7414 246.156 32.2848 246.952 30.9997ZM246.143 37.1475C245.491 37.3201 245.421 38.1256 245.421 38.1256L245.069 41.3477C245.016 41.9806 245.773 41.5011 245.773 41.5011C246.09 41.2901 246.125 40.8682 246.125 40.8682L246.231 40.0627L246.565 37.8763C246.671 36.994 246.143 37.1475 246.143 37.1475ZM247.383 39.7541C247.399 39.377 247.584 37.7366 247.584 37.7366C247.634 36.7185 248.12 36.6808 248.136 36.6808C248.187 36.6619 248.589 36.6053 248.589 36.6053C248.589 36.6053 248.74 36.5865 249.041 36.4356C249.427 36.2471 249.561 36.6053 249.561 36.6053C249.778 37.0579 249.108 37.4161 249.108 37.4161C248.488 37.7932 248.472 38.6794 248.472 38.6794L248.388 39.8673C248.321 40.7157 247.785 40.8854 247.785 40.8854C247.131 41.1493 247.383 39.7541 247.383 39.7541ZM246.901 36.0429C247.483 35.5439 247.313 35.1447 247.313 35.1447C247.095 34.4958 246.295 35.1945 246.295 35.1945C245.64 35.6936 245.859 36.1926 245.859 36.1926C246.15 36.6917 246.901 36.0429 246.901 36.0429ZM255.299 37.7262C255.185 38.4753 254.592 38.621 254.592 38.621C254.039 38.7874 254.153 38.184 254.153 38.184L254.23 37.6222L254.65 34.8756C254.745 34.2514 255.318 34.1265 255.318 34.1265C255.776 34.0017 255.643 34.73 255.623 34.834C255.623 34.938 255.299 37.7262 255.299 37.7262ZM255.987 32.4381C255.987 32.4381 256.63 32.1411 256.334 31.9252C256.334 31.9252 256.061 31.6958 255.295 32.0062C255.295 32.0062 254.603 32.3166 255.048 32.5325C255.048 32.5325 255.444 32.7349 255.987 32.4381ZM261.394 35.7914C261.934 35.5444 262.262 35.6774 262.379 35.8863C262.513 36.0953 262.475 36.3043 262.34 36.5133C262.185 36.7792 261.586 36.9882 261.123 37.1211C260.775 37.2351 260.505 37.3301 260.505 37.3301C259.674 37.596 258.728 37.9759 258.728 37.9759C256.526 38.9258 254.557 39.9706 252.838 40.9964C252.834 41.0429 252.83 41.088 252.827 41.1317C252.811 41.3194 252.799 41.4774 252.799 41.5853C252.799 41.5853 252.547 45.1946 252.51 45.7266C252.51 45.7266 252.51 46.3724 252.605 46.7713C252.612 46.7947 252.619 46.8196 252.627 46.8457C252.752 47.2666 252.978 48.0273 252.451 48.3671C252.007 48.652 251.601 48.3291 251.504 48.2151L251.502 48.2115C251.442 48.1325 251.275 47.9147 251.389 46.9234C251.389 46.9234 251.62 44.3398 251.679 43.5039L251.795 41.6423C247.333 44.4538 244.919 46.9614 244.919 46.9614C244.687 47.1893 244.088 47.7022 243.644 47.1513C243.239 46.6194 244.32 45.8215 244.32 45.8215C246.676 43.7889 249.399 41.9842 251.872 40.5405L251.911 39.9706C251.911 39.9706 251.93 39.7807 251.737 39.9136C251.737 39.9136 250.906 40.4076 250.288 40.1416C250.288 40.1416 249.806 39.9326 249.806 39.2108C249.806 39.2108 249.767 36.9502 250.713 36.0004C250.713 36.0004 251.254 35.4114 251.795 35.4304C252.123 35.4304 252.084 35.9053 251.659 36.2663C251.314 36.5758 251.223 36.9357 251.118 37.3564C251.095 37.4521 251.07 37.5509 251.041 37.6531C251.041 37.6531 250.713 39.1917 251.292 39.1157C251.292 39.1157 251.872 39.1537 252.045 38.1849C252.045 38.1849 252.413 36.0574 252.451 35.7914C252.453 35.7783 252.455 35.7644 252.457 35.7497C252.496 35.4671 252.574 34.9184 253.069 34.9365C253.069 34.9365 253.61 34.9175 253.552 35.3545C253.552 35.3545 253.204 37.9949 252.992 39.8756C256.372 37.9759 258.979 36.8362 258.979 36.8362C259.076 36.7792 259.037 36.7602 259.037 36.7602C258.632 36.6272 258.806 35.7344 258.806 35.7344L258.979 33.9297C258.979 33.4928 258.438 33.7587 258.438 33.7587C258.071 33.9867 257.801 34.4806 257.801 34.4806C257.589 34.7845 257.473 36.3612 257.473 36.3612C257.434 37.1781 256.951 37.3111 256.951 37.3111C256.391 37.501 256.314 37.1971 256.314 37.1971C256.256 37.0451 256.372 36.2853 256.372 36.2853L256.584 34.3286C256.604 33.5118 257.222 33.3408 257.222 33.3408C257.357 33.2838 257.55 33.2648 257.743 33.3218C257.936 33.3788 258.071 33.3788 258.188 33.3408C258.38 33.2838 258.651 33.0369 258.651 33.0369C259.172 32.562 259.52 32.5999 259.52 32.5999C260.157 32.5999 260.08 33.3978 260.08 33.3978L259.886 35.6014C259.834 36.4697 260.411 36.2267 260.525 36.1786C260.535 36.1741 260.542 36.1713 260.543 36.1713C260.563 36.1713 260.814 36.0574 261.394 35.7914Z" fill="white"/>
<rect x="383" width="289" height="123" rx="36" fill="#F8F8FB"/>
<path fill-rule="evenodd" clip-rule="evenodd" d="M583.517 51.4179C583.301 55.4917 581.993 60.5699 580.84 63.9629C576.203 77.6255 570.827 86.0957 558.376 86.0957C554.71 86.0957 548.207 85.1313 545.811 78.6633L545.243 77.1287L544.223 78.4109C540.329 83.302 534.543 86.1247 528.351 86.1536C523.6 86.1751 519.782 84.5975 517.312 81.5869L516.635 80.7611L515.914 81.5507C513.277 84.4383 508.683 86.0946 503.311 86.0946C499.093 86.0946 495.451 84.6723 493.055 82.0949L492.402 81.3915L491.723 82.0713C489.059 84.7386 484.862 86.0825 479.583 85.9597C473.18 85.8086 469.282 82.2649 469.155 76.476C468.962 67.5513 477.672 48.7731 481.277 43.0637C483.618 39.2498 486.837 37.4008 491.121 37.4008C494.036 37.4008 496.031 38.0051 497.215 39.2498C498.294 40.3824 498.508 41.3372 498.604 43.634L498.727 46.6034L500.308 44.0782C504.131 37.9696 510.467 37.1259 516.745 37.1259C521.11 37.1259 524.918 38.7178 526.448 41.1811L527.013 42.0892L527.829 41.3998C531.065 38.6727 535.629 37.1717 540.682 37.1717C546.198 37.1717 550.206 38.5316 552.596 41.2137C553.139 41.8226 553.499 42.2482 553.998 43.2889L554.612 44.5665L555.533 43.4864C559.033 39.3805 563.812 37.2999 569.742 37.2999C574.438 37.2999 578.004 38.5381 580.337 40.9799C583.264 44.0391 583.682 48.3444 583.517 51.4179ZM587.279 56.4287C586.681 61.211 583.435 70.0718 581.711 73.6128C577.083 83.106 570.901 90.3994 558.988 90.3994C552.624 90.3994 547.39 88.3789 544.328 84.4948C539.846 88.406 534.298 90.4546 528.324 90.4546C523.722 90.4546 519.655 89.1315 516.553 86.6844C513.13 89.0855 508.511 90.4246 503.392 90.4246C499.117 90.4246 495.27 89.2556 492.259 87.0952C488.927 89.2959 484.562 90.3898 479.438 90.2688C470.912 90.0685 465.025 84.6837 464.856 76.8661C464.633 66.4812 473.417 47.474 477.557 40.8918C480.655 35.8248 485.383 33.0989 491.178 33.0989C497.467 33.0989 499.746 34.887 500.869 37.164C505.721 33.0611 512.154 32.8252 516.733 32.8252C521.789 32.8252 524.961 34.1615 527.659 36.2996C531.385 34.0741 535.66 32.9173 540.751 32.9173C547.261 32.9173 552.097 34.4248 555.471 37.7449C559.405 34.4849 564.332 32.9992 569.846 32.9992C577.138 32.9992 581.935 35.6172 584.753 39.5209C588.705 45.0059 588.016 50.5271 587.287 56.3617L587.279 56.4287Z" fill="#F8E817"/>
<path fill-rule="evenodd" clip-rule="evenodd" d="M587.417 32.8255C585.752 32.8255 584.408 34.1697 584.408 35.8367C584.408 35.9113 584.411 35.9852 584.416 36.0585C584.411 36.1261 584.408 36.1945 584.408 36.2635C584.408 37.6879 585.556 38.8464 586.981 38.8464C587.052 38.8464 587.122 38.8435 587.191 38.8379C587.266 38.8434 587.341 38.8462 587.417 38.8462C588.216 38.8482 588.983 38.5319 589.548 37.9671C590.113 37.4024 590.43 36.6357 590.429 35.8367C590.431 35.0372 590.115 34.2699 589.549 33.7046C588.984 33.1394 588.216 32.8231 587.417 32.8255ZM587.191 38.8379C588.519 38.7307 589.569 37.6188 589.569 36.2635C589.569 34.8375 588.409 33.6856 586.981 33.6856C585.625 33.6856 584.52 34.7302 584.416 36.0585C584.524 37.5461 585.705 38.7286 587.191 38.8379ZM588.709 37.9846L588.367 37.2922C588.07 36.6871 587.988 36.5912 587.734 36.4876V36.4689C588.234 36.4007 588.531 36.0261 588.531 35.5081C588.531 35.431 588.525 35.3566 588.513 35.2856C588.655 35.2036 588.711 35.0892 588.711 34.9728C588.711 34.6957 588.401 34.5459 587.805 34.5459H587.6C588.145 34.5459 588.44 34.8519 588.513 35.2856C588.386 35.3587 588.191 35.406 587.906 35.406H586.99V34.5459H586.129V37.9865H586.739V36.5774H586.85C587.111 36.5774 587.215 36.6118 587.333 36.7496C587.453 36.8903 587.631 37.1826 587.735 37.4243L587.974 37.9865L588.709 37.9846ZM554.798 42.9335C558.026 39.1474 562.793 36.4375 569.694 36.4375C581.643 36.4375 584.767 44.1748 584.378 51.4901C584.142 55.8846 582.721 61.1162 581.656 64.2487C576.928 78.1574 571.257 86.9559 558.342 86.9559C552.449 86.9559 547.055 84.6769 544.927 78.9394C541.049 83.8053 535.112 86.9809 528.353 87.0137C523.183 87.0388 519.163 85.2292 516.608 82.12C513.575 85.4374 508.44 86.9559 503.337 86.9559C498.754 86.9559 494.923 85.3713 492.413 82.6687C489.615 85.4664 485.217 86.952 479.61 86.8187C472.435 86.6505 468.425 82.384 468.296 76.4638C468.098 67.2978 476.909 48.3742 480.544 42.6227C483.051 38.5455 486.53 36.5429 491.157 36.5429C493.697 36.5429 496.303 36.9834 497.914 38.6726C499.24 40.0622 499.453 41.2985 499.55 43.6343C503.615 37.1467 510.466 36.2658 516.753 36.2658C521.565 36.2658 525.555 38.0511 527.23 40.748C530.453 38.0343 535.097 36.3115 540.666 36.3115C546.366 36.3115 550.613 37.6917 553.255 40.6499C553.839 41.3042 554.253 41.8007 554.798 42.9335Z" fill="#010101"/>
<path fill-rule="evenodd" clip-rule="evenodd" d="M484.195 71.9228C490.992 70.7542 492.7 73.1865 492.487 75.4398C491.845 82.1839 485.596 83.6926 480.169 83.5663C476.234 83.4715 472.695 81.688 472.596 77.1644C472.424 69.2504 480.577 50.9414 484.414 44.8726C486.187 41.9914 488.347 40.5664 491.791 40.5664C495.055 40.5664 495.864 42.2256 495.816 44.2131C495.687 49.5154 487.034 65.6292 484.195 71.9228Z" fill="white"/>
<path fill-rule="evenodd" clip-rule="evenodd" d="M505.51 64.9322C505.068 66.1215 504.231 68.6123 503.552 71.2532C505.748 70.7081 507.395 70.3299 510.216 70.3973C513.429 70.4758 515.483 71.7981 515.483 74.437C515.483 80.8345 508.362 82.7131 503.422 82.7131C497.999 82.7131 493.234 79.6465 493.234 73.757C493.234 66.853 497.004 56.3837 500.541 49.4091C504.885 40.8445 509.323 39.7061 516.969 39.7061C520.328 39.7061 524.199 41.1331 524.199 44.2833C524.199 48.6488 520.474 50.3138 516.781 50.5246C515.204 50.6145 512.777 50.7006 511.324 50.5984C511.324 50.5984 510.096 52.4573 508.79 55.7704C515.629 54.8144 518.529 56.3557 517.374 60.2839C515.812 65.5906 511.181 65.94 505.51 64.9322Z" fill="white"/>
<path fill-rule="evenodd" clip-rule="evenodd" d="M539.027 49.1315C537.163 49.1315 535.944 50.2988 535.037 51.5589C533.039 54.3331 528.711 65.4497 528.037 70.0164C527.575 73.1438 528.941 73.7807 530.434 73.7807C532.829 73.7807 535.515 71.2755 536.431 67.1423C536.431 67.1423 531.871 67.0325 533.128 63.0345C534.349 59.1552 536.666 58.3149 540.507 58.1591C548.074 57.8537 547.327 63.3777 546.722 66.3238C544.755 75.8907 537.869 83.5734 528.128 83.5734C521.46 83.5734 517.32 79.9261 517.32 73.2029C517.32 68.412 519.724 60.8909 521.63 56.49C525.686 47.1221 529.939 40.5664 540.775 40.5664C547.277 40.5664 552.405 42.8765 551.653 48.8984C551.101 53.3183 548.864 55.9138 544.8 56.2278C543.663 56.3152 539.012 56.1986 540.555 51.8485C541.092 50.3269 541.314 49.1315 539.027 49.1315Z" fill="white"/>
<path fill-rule="evenodd" clip-rule="evenodd" d="M580.145 57.0267C578.997 62.6818 576.415 69.3705 573.613 74.3556C569.041 82.4898 563.487 83.629 558.64 83.5714C553.791 83.514 548.327 81.7425 548.285 74.3425C548.256 69.0296 550.572 61.5305 552.538 56.6148C555.966 47.7034 559.468 40.4372 570.54 40.5681C583.452 40.7199 581.149 52.081 580.145 57.0267Z" fill="white"/>
<path fill-rule="evenodd" clip-rule="evenodd" d="M568.927 49.1687C567.838 49.1534 566.888 49.3711 566.034 50.715C564.116 53.2512 558.508 68.8917 558.607 72.0111C558.642 73.1317 559.249 74.112 560.602 74.112C562.153 74.1141 563.016 73.0191 563.778 71.6982C565.543 68.6502 570.506 54.8253 570.642 51.369C570.683 50.3617 570.518 49.1888 568.927 49.1687Z" fill="#010101"/>
<rect x="696" width="289" height="123" rx="36" fill="#F8F8FB"/>
<path fill-rule="evenodd" clip-rule="evenodd" d="M861.314 78.4083C858.875 79.0888 855.699 79.3724 852.977 79.3724C845.888 79.3724 841.238 75.6862 841.238 68.9377C841.238 62.5294 845.605 58.3896 851.956 58.3896C853.374 58.3896 854.905 58.5597 855.813 59.0134V49.7129H861.314V78.4083ZM855.814 63.7771C854.963 63.3802 853.772 63.1533 852.411 63.1533C849.065 63.1533 846.854 65.1949 846.854 68.7677C846.854 72.5672 849.235 74.7222 853.148 74.7222C853.829 74.7222 854.906 74.7222 855.814 74.4953V63.7771ZM906.511 78.4083C904.073 79.0888 900.897 79.3724 898.118 79.3724C891.086 79.3724 886.379 75.6862 886.379 68.9377C886.379 62.5294 890.746 58.3896 897.097 58.3896C898.572 58.3896 900.046 58.5597 900.953 59.0134V49.7129H906.511V78.4083ZM900.954 63.7771C900.104 63.3802 898.969 63.1533 897.608 63.1533C894.206 63.1533 891.994 65.1949 891.994 68.7677C891.994 72.5672 894.433 74.7222 898.346 74.7222C899.026 74.7222 900.047 74.7222 900.954 74.4953V63.7771ZM869.989 63.7771C870.897 63.3801 872.201 63.2667 873.278 63.2667C876.681 63.2667 879.006 65.1948 879.006 68.6542C879.006 72.7373 876.398 74.6087 872.938 74.6654V79.3724H873.222C880.367 79.3724 884.621 75.4594 884.621 68.4841C884.621 62.1325 880.084 58.3896 873.392 58.3896C869.989 58.3896 866.643 59.1836 864.432 60.0909V87.0283H869.989V63.7771Z" fill="#3F3F42"/>
<path fill-rule="evenodd" clip-rule="evenodd" d="M820.938 45.2882L821.845 46.309L822.355 46.0254L820.938 45.2882Z" fill="#DC0032"/>
<path fill-rule="evenodd" clip-rule="evenodd" d="M819.578 44.5522L821.336 46.5938L821.96 46.2535L821.279 45.4596L819.578 44.5522Z" fill="#DC0032"/>
<path fill-rule="evenodd" clip-rule="evenodd" d="M818.156 43.8145L820.822 46.8768L821.445 46.5366L819.914 44.7218L818.156 43.8145Z" fill="#DC0032"/>
<path fill-rule="evenodd" clip-rule="evenodd" d="M816.797 43.0771L820.313 47.1603L820.937 46.82L818.498 43.9845L816.797 43.0771ZM823.544 50.2787L823.147 50.5055L823.544 50.9592V50.2787Z" fill="#DC0032"/>
<path fill-rule="evenodd" clip-rule="evenodd" d="M815.434 42.3398L819.8 47.4438L820.424 47.1035L817.135 43.2472L815.434 42.3398ZM823.315 50.3925L822.692 50.7894L823.542 51.8102V50.7327L823.315 50.3925Z" fill="#DC0032"/>
<path fill-rule="evenodd" clip-rule="evenodd" d="M814.02 41.6035L819.294 47.7283L819.974 47.388L815.778 42.5109L814.02 41.6035ZM822.81 50.6763L822.186 51.0733L823.547 52.6612V51.5837L822.81 50.6763Z" fill="#DC0032"/>
<path fill-rule="evenodd" clip-rule="evenodd" d="M812.656 40.8643L818.838 48.0098L819.462 47.6695L814.358 41.7716L812.656 40.8643ZM822.297 51.0158L821.673 51.356L823.545 53.5678V52.4903L822.297 51.0158Z" fill="#DC0032"/>
<path fill-rule="evenodd" clip-rule="evenodd" d="M811.297 40.1279L818.329 48.2942L818.953 47.954L812.998 41.0353L811.297 40.1279ZM821.788 51.3008L821.164 51.641L823.546 54.4199V53.3424L821.788 51.3008Z" fill="#DC0032"/>
<path fill-rule="evenodd" clip-rule="evenodd" d="M809.879 39.3916L817.818 48.5787L818.442 48.2384L811.637 40.299L809.879 39.3916ZM821.278 51.584L820.654 51.9242L823.547 55.2702V54.1927L821.278 51.584Z" fill="#DC0032"/>
<path fill-rule="evenodd" clip-rule="evenodd" d="M808.52 38.6543L817.31 48.9189L817.933 48.5219L810.221 39.5617L808.52 38.6543ZM820.768 51.868L820.145 52.2083L823.547 56.178V55.1005L820.768 51.868Z" fill="#DC0032"/>
<path fill-rule="evenodd" clip-rule="evenodd" d="M807.102 37.917L816.799 49.2023L817.423 48.8054L808.86 38.8244L807.102 37.917ZM820.313 52.1514L819.633 52.4916L823.546 57.0285V55.951L820.313 52.1514Z" fill="#DC0032"/>
<path fill-rule="evenodd" clip-rule="evenodd" d="M805.738 37.1797L816.286 49.4858L816.967 49.0889L807.496 38.087L805.738 37.1797ZM819.803 52.4346L819.18 52.7748L823.546 57.9355V56.8013L819.803 52.4346Z" fill="#DC0032"/>
<path fill-rule="evenodd" clip-rule="evenodd" d="M804.379 36.4424L815.834 49.7692L816.458 49.3723L806.08 37.3497L804.379 36.4424ZM819.294 52.7178L818.67 53.0581L823.547 58.7859V57.7084L819.294 52.7178Z" fill="#DC0032"/>
<path fill-rule="evenodd" clip-rule="evenodd" d="M802.961 35.6475L815.324 50.0518L815.948 49.6548L804.719 36.6115L802.961 35.6475ZM818.782 53.001L818.158 53.3412L823.546 59.636V58.5586L818.782 53.001Z" fill="#DC0032"/>
<path fill-rule="evenodd" clip-rule="evenodd" d="M801.598 34.9111L814.811 50.3363L815.435 49.996L803.356 35.8752L801.598 34.9111ZM818.27 53.2852L817.646 53.6254L823.544 60.544V59.4099L818.27 53.2852Z" fill="#DC0032"/>
<path fill-rule="evenodd" clip-rule="evenodd" d="M800.238 34.2305L814.302 50.6197L814.926 50.2794L801.94 35.1378L800.238 34.2305ZM817.76 53.5685L817.137 53.9088L823.545 61.3945V60.317L817.76 53.5685Z" fill="#DC0032"/>
<path fill-rule="evenodd" clip-rule="evenodd" d="M799.332 34.0029L813.793 50.9025L814.417 50.5623L800.58 34.3999L800.239 34.2298C799.956 34.0596 799.672 34.0029 799.332 34.0029ZM817.253 53.8506L816.629 54.1908L823.548 62.2437V61.1662L817.253 53.8506Z" fill="#DC0032"/>
<path fill-rule="evenodd" clip-rule="evenodd" d="M799.333 34.0029C799.106 34.0029 798.879 34.0596 798.652 34.1163L813.284 51.1861L813.964 50.8458L799.503 34.0029C799.446 34.0029 799.39 34.0029 799.333 34.0029ZM816.799 54.1347L816.176 54.475L823.548 63.1516V62.0174L816.799 54.1347Z" fill="#DC0032"/>
<path fill-rule="evenodd" clip-rule="evenodd" d="M798.821 34.0596C798.708 34.1163 798.538 34.173 798.481 34.2297L798.141 34.3998L812.829 51.4696L813.452 51.1293L798.821 34.0596ZM816.288 54.4182L815.664 54.8151L823.547 64.0022V62.9247L816.288 54.4182Z" fill="#DC0032"/>
<path fill-rule="evenodd" clip-rule="evenodd" d="M798.257 34.2881L797.633 34.6283L812.321 51.7548L812.945 51.4145L798.257 34.2881ZM815.78 54.703L815.156 55.0999L823.549 64.8541V63.7766L815.78 54.703Z" fill="#DC0032"/>
<path fill-rule="evenodd" clip-rule="evenodd" d="M797.745 34.5703L797.121 34.9106L811.809 52.037L812.433 51.6968L797.745 34.5703ZM815.268 54.9863L814.644 55.3833L823.548 65.7613V64.6838L815.268 54.9863Z" fill="#DC0032"/>
<path fill-rule="evenodd" clip-rule="evenodd" d="M797.233 34.8535L796.609 35.1938L811.297 52.3202L811.921 51.98L797.233 34.8535ZM814.757 55.2695L814.133 55.6665L823.547 66.6116V65.5341L814.757 55.2695Z" fill="#DC0032"/>
<path fill-rule="evenodd" clip-rule="evenodd" d="M796.721 35.1396L796.098 35.4799L810.786 52.6064L811.409 52.2661L796.721 35.1396ZM814.245 55.5557L813.621 55.9526L823.545 67.4648V66.3873L814.245 55.5557Z" fill="#DC0032"/>
<path fill-rule="evenodd" clip-rule="evenodd" d="M796.214 35.4219L795.59 35.7621L810.278 52.8886L810.902 52.5483L796.214 35.4219ZM813.792 55.8379L813.168 56.2349L823.546 68.3708V67.2934L813.792 55.8379Z" fill="#DC0032"/>
<path fill-rule="evenodd" clip-rule="evenodd" d="M795.702 35.6475L795.078 36.0444L809.823 53.1709L810.447 52.8306L795.702 35.6475ZM813.28 56.1777L812.656 56.518L823.545 69.2211V68.1436L813.28 56.1777Z" fill="#DC0032"/>
<path fill-rule="evenodd" clip-rule="evenodd" d="M795.194 35.9326L794.57 36.2729L809.315 53.456L809.939 53.1158L795.194 35.9326ZM812.772 56.4619L812.148 56.8022L823.547 70.129V68.9949L812.772 56.4619Z" fill="#DC0032"/>
<path fill-rule="evenodd" clip-rule="evenodd" d="M794.682 36.2158L794.059 36.5561L808.803 53.796L809.427 53.399L794.682 36.2158ZM812.26 56.7461L811.637 57.0864L823.546 70.9803V69.9028L812.26 56.7461Z" fill="#DC0032"/>
<path fill-rule="evenodd" clip-rule="evenodd" d="M794.171 36.498L793.547 36.8383L808.291 54.0782L808.915 53.6812L794.171 36.498ZM811.749 57.0273L811.125 57.3676L823.544 71.8286V70.7511L811.749 57.0273Z" fill="#DC0032"/>
<path fill-rule="evenodd" clip-rule="evenodd" d="M793.659 36.7832L793.035 37.1235L807.78 54.3633L808.404 53.9664L793.659 36.7832ZM811.237 57.3135L810.613 57.6537L823.543 72.7386V71.6044L811.237 57.3135Z" fill="#DC0032"/>
<path fill-rule="evenodd" clip-rule="evenodd" d="M793.151 37.0664L792.527 37.4067L807.272 54.6466L807.896 54.2496L793.151 37.0664ZM810.788 57.5957L810.164 57.936L823.548 73.5879V72.5104L810.788 57.5957Z" fill="#DC0032"/>
<path fill-rule="evenodd" clip-rule="evenodd" d="M792.641 37.293L791.961 37.6332L806.819 54.9298L807.443 54.5329L792.641 37.293ZM810.278 57.8789L809.654 58.2192L823.548 74.4382V73.3607L810.278 57.8789Z" fill="#DC0032"/>
<path fill-rule="evenodd" clip-rule="evenodd" d="M792.13 37.5771L791.449 37.9174L806.364 55.2707C806.421 55.1573 806.477 55.1006 806.591 55.0439L806.931 54.817L792.13 37.5771ZM809.766 58.1631L809.143 58.5033L823.434 75.1761C823.49 75.006 823.547 74.8358 823.547 74.6657V74.212L809.766 58.1631Z" fill="#DC0032"/>
<path fill-rule="evenodd" clip-rule="evenodd" d="M791.618 37.8604L790.938 38.2006L806.193 55.9509V55.7241C806.193 55.5539 806.306 55.3271 806.419 55.157L791.618 37.8604ZM809.255 58.4463L808.801 58.7298C808.744 58.7298 808.688 58.7866 808.631 58.7866L823.149 75.7429C823.319 75.516 823.432 75.2892 823.489 75.0623L809.255 58.4463Z" fill="#DC0032"/>
<path fill-rule="evenodd" clip-rule="evenodd" d="M791.106 38.1436L790.426 38.4838L806.191 56.8579V55.7237L791.106 38.1436ZM807.666 58.5029L822.751 76.1398C822.921 76.0264 823.091 75.7995 823.261 75.6294L808.744 58.7298C808.517 58.8432 808.176 58.8432 807.95 58.7298L807.666 58.5029Z" fill="#DC0032"/>
<path fill-rule="evenodd" clip-rule="evenodd" d="M790.598 38.4268L789.918 38.767L822.243 76.4226L822.696 76.1957C822.753 76.139 822.81 76.0823 822.866 76.0256L808.008 58.729H807.952L806.647 57.9351C806.534 57.8784 806.477 57.7649 806.364 57.6515C806.25 57.4814 806.25 57.368 806.194 57.2545V56.6307L790.598 38.4268Z" fill="#DC0032"/>
<path fill-rule="evenodd" clip-rule="evenodd" d="M790.087 38.7109L789.406 39.0512L821.731 76.7068L822.355 76.3665L790.087 38.7109Z" fill="#DC0032"/>
<path fill-rule="evenodd" clip-rule="evenodd" d="M789.579 38.9375L788.898 39.2778L821.28 76.99L821.904 76.6498L789.579 38.9375Z" fill="#DC0032"/>
<path fill-rule="evenodd" clip-rule="evenodd" d="M789.067 39.2197L788.387 39.56L820.768 77.2723L821.392 76.932L789.067 39.2197Z" fill="#DC0032"/>
<path fill-rule="evenodd" clip-rule="evenodd" d="M788.559 39.5049L787.879 39.8451L820.26 77.5574L820.884 77.2171L788.559 39.5049Z" fill="#DC0032"/>
<path fill-rule="evenodd" clip-rule="evenodd" d="M787.991 39.7891L787.367 40.1293L819.749 77.8983L820.372 77.5013L787.991 39.7891Z" fill="#DC0032"/>
<path fill-rule="evenodd" clip-rule="evenodd" d="M787.479 40.0713L786.855 40.4115L819.237 78.1805L819.861 77.7836L787.479 40.0713Z" fill="#DC0032"/>
<path fill-rule="evenodd" clip-rule="evenodd" d="M786.968 40.3555L786.344 40.6957L818.782 78.4647L819.406 78.0677L786.968 40.3555Z" fill="#DC0032"/>
<path fill-rule="evenodd" clip-rule="evenodd" d="M786.46 40.582L785.836 40.9223L818.274 78.748L818.898 78.351L786.46 40.582Z" fill="#DC0032"/>
<path fill-rule="evenodd" clip-rule="evenodd" d="M785.948 40.8643L785.324 41.2045L817.762 79.0302L818.386 78.69L785.948 40.8643Z" fill="#DC0032"/>
<path fill-rule="evenodd" clip-rule="evenodd" d="M785.436 41.1494L784.812 41.4897L800.578 59.8637L801.088 60.204C801.315 60.3174 801.542 60.601 801.542 60.8845V60.9412L817.251 79.3154L817.875 78.9751L785.436 41.1494Z" fill="#DC0032"/>
<path fill-rule="evenodd" clip-rule="evenodd" d="M784.925 41.4326L784.301 41.7729L799.102 59.0695L800.974 60.0902L784.925 41.4326ZM801.482 60.7148C801.482 60.7716 801.539 60.8283 801.539 60.885V61.8491L816.737 79.5994L817.361 79.2591L801.482 60.7148Z" fill="#DC0032"/>
<path fill-rule="evenodd" clip-rule="evenodd" d="M784.417 41.7168L783.793 42.0571L797.63 58.2195L799.502 59.2403L784.417 41.7168ZM801.543 61.6221V62.6996L816.288 79.8828L816.911 79.5425L801.543 61.6221Z" fill="#DC0032"/>
<path fill-rule="evenodd" clip-rule="evenodd" d="M783.905 42L783.281 42.3403L796.211 57.3685L798.026 58.3893L783.905 42ZM801.541 62.4727V63.6069L815.775 80.1662L816.399 79.826L801.541 62.4727Z" fill="#DC0032"/>
<path fill-rule="evenodd" clip-rule="evenodd" d="M783.393 42.2275L782.77 42.5678L794.735 56.5185L796.55 57.596L783.393 42.2275ZM801.541 63.3799V64.4574L815.265 80.4496L815.889 80.1094L801.541 63.3799Z" fill="#DC0032"/>
<path fill-rule="evenodd" clip-rule="evenodd" d="M782.886 42.5098L782.262 42.85L793.263 55.6665L795.078 56.744L782.886 42.5098ZM801.543 64.2295V65.307L814.756 80.7321L815.38 80.3918L801.543 64.2295Z" fill="#DC0032"/>
<path fill-rule="evenodd" clip-rule="evenodd" d="M782.374 42.7939L781.75 43.1342L791.788 54.8732L793.602 55.894L782.374 42.7939ZM801.541 65.0803V66.2145L814.244 81.0725L814.868 80.6756L801.541 65.0803Z" fill="#DC0032"/>
<path fill-rule="evenodd" clip-rule="evenodd" d="M781.866 43.0771L781.242 43.4174L790.316 54.0222L792.13 55.043L781.866 43.0771ZM801.545 65.9883V67.0658L813.794 81.3567L814.418 80.9597L801.545 65.9883Z" fill="#DC0032"/>
<path fill-rule="evenodd" clip-rule="evenodd" d="M781.354 43.3613L780.73 43.7016L788.84 53.1722L790.711 54.193L781.354 43.3613ZM801.543 66.8396V67.9171L813.282 81.6409L813.906 81.244L801.543 66.8396Z" fill="#DC0032"/>
<path fill-rule="evenodd" clip-rule="evenodd" d="M780.843 43.6455L780.219 43.9858L787.364 52.3222L789.236 53.3997L780.843 43.6455ZM795.7 62.0202L797.175 63.7215V63.0977C797.175 62.9843 797.061 62.8141 796.948 62.7574L795.7 62.0202ZM801.541 67.6904V68.8246L812.77 81.9246L813.393 81.5277L801.541 67.6904Z" fill="#DC0032"/>
<path fill-rule="evenodd" clip-rule="evenodd" d="M780.335 43.8721L779.711 44.2123L785.892 51.4712L787.764 52.5487L780.335 43.8721ZM794.228 61.1689L797.177 64.5716V63.4941L796.1 62.2464L794.228 61.1689ZM801.543 68.5977V69.6752L812.261 82.2081L812.885 81.8679L801.543 68.5977Z" fill="#DC0032"/>
<path fill-rule="evenodd" clip-rule="evenodd" d="M779.823 44.1543L779.199 44.4946L784.473 50.6759L786.288 51.6967L779.823 44.1543ZM792.752 60.373L797.175 65.477V64.3995L794.623 61.3938L792.752 60.373ZM801.543 69.4473V70.5247L811.751 82.4905L812.375 82.1503L801.543 69.4473Z" fill="#DC0032"/>
<path fill-rule="evenodd" clip-rule="evenodd" d="M779.311 44.4395L778.688 44.7797L782.997 49.8269L784.812 50.8477L779.311 44.4395ZM791.334 59.5245L797.175 66.3297V65.2522L793.149 60.5452L791.334 59.5245ZM801.541 70.3554V71.4329L811.295 82.7749L811.919 82.4346L801.541 70.3554Z" fill="#DC0032"/>
<path fill-rule="evenodd" clip-rule="evenodd" d="M778.803 44.7217L778.18 45.0619L781.526 48.975L783.34 49.9957L778.803 44.7217ZM789.861 58.6719L797.177 67.1784V66.1009L791.676 59.7493L789.861 58.6719ZM801.545 71.2041V72.2816L810.789 83.0565L811.412 82.7163L801.545 71.2041Z" fill="#DC0032"/>
<path fill-rule="evenodd" clip-rule="evenodd" d="M778.292 45.0059L777.668 45.3461L780.05 48.1249L781.865 49.2024L778.292 45.0059ZM788.387 57.8223L797.177 68.0868V67.0093L790.201 58.8998L788.387 57.8223ZM801.543 72.0566V73.1341L810.276 83.3419L810.9 83.0017L801.543 72.0566Z" fill="#DC0032"/>
<path fill-rule="evenodd" clip-rule="evenodd" d="M777.78 45.29L777.156 45.6303L778.574 47.2749L780.445 48.3524L777.78 45.29ZM786.91 57.0283L797.175 68.9375V67.86L788.725 58.0491L786.91 57.0283ZM801.541 72.9639V74.0414L809.764 83.6254L810.388 83.2851L801.541 72.9639Z" fill="#DC0032"/>
<path fill-rule="evenodd" clip-rule="evenodd" d="M777.27 45.5151L776.59 45.8554L777.1 46.4792L778.972 47.5L777.27 45.5151ZM785.437 56.1767L797.176 69.8438V68.7097L787.309 57.1975L785.437 56.1767ZM801.543 73.8135V74.891L809.255 83.9646L809.879 83.5676L801.543 73.8135Z" fill="#DC0032"/>
<path fill-rule="evenodd" clip-rule="evenodd" d="M776.76 45.7988L776.363 46.0257L777.497 46.6495L776.76 45.7988ZM783.962 55.3259L797.175 70.6944V69.6169L785.833 56.4034L783.962 55.3259ZM801.544 74.6638V75.798L808.803 84.2478L809.427 83.8509L801.544 74.6638Z" fill="#DC0032"/>
<path fill-rule="evenodd" clip-rule="evenodd" d="M782.543 54.4766L797.174 71.5463V70.4688L784.358 55.5541L782.543 54.4766ZM801.539 75.5723V76.6498L808.288 84.5325L808.911 84.1355L801.539 75.5723Z" fill="#DC0032"/>
<path fill-rule="evenodd" clip-rule="evenodd" d="M781.07 53.6816L797.176 72.4527V71.3185L782.885 54.7024L781.07 53.6816ZM801.541 76.4229V77.5004L807.779 84.8159L808.403 84.419L801.541 76.4229Z" fill="#DC0032"/>
<path fill-rule="evenodd" clip-rule="evenodd" d="M779.598 52.832L797.178 73.3044V72.2269L781.412 53.8528L779.598 52.832ZM801.545 77.2734V78.4076L807.273 85.0994L807.896 84.7592L801.545 77.2734Z" fill="#DC0032"/>
<path fill-rule="evenodd" clip-rule="evenodd" d="M778.121 51.9814L797.176 74.1551V73.0776L779.936 53.0589L778.121 51.9814ZM801.543 78.1816V79.2591L806.76 85.3838L807.384 85.0435L801.543 78.1816Z" fill="#DC0032"/>
<path fill-rule="evenodd" clip-rule="evenodd" d="M776.645 51.1309L797.174 75.0626V73.9851L778.459 52.2084L776.645 51.1309ZM801.539 79.0322V80.1097L806.303 85.6673L806.927 85.327L801.539 79.0322Z" fill="#DC0032"/>
<path fill-rule="evenodd" clip-rule="evenodd" d="M775.176 50.3369L797.179 75.9132V74.8357L777.047 51.3577L775.176 50.3369ZM801.545 79.8828V81.017L805.798 85.9508L806.422 85.6105L801.545 79.8828Z" fill="#DC0032"/>
<path fill-rule="evenodd" clip-rule="evenodd" d="M775.117 50.2793V51.0732L797.177 76.763V75.6855L775.571 50.5061L775.117 50.2793ZM801.543 80.7891V81.4696C801.543 81.583 801.486 81.6964 801.43 81.7531L805.286 86.2333L805.91 85.893L801.543 80.7891Z" fill="#DC0032"/>
<path fill-rule="evenodd" clip-rule="evenodd" d="M775.117 50.8467V51.9809L797.177 77.6706V76.5931L775.117 50.8467ZM801.487 81.6406C801.43 81.8675 801.26 82.0943 801.09 82.151L801.033 82.2077L804.776 86.5177L805.4 86.1775L801.487 81.6406Z" fill="#DC0032"/>
<path fill-rule="evenodd" clip-rule="evenodd" d="M775.117 51.7549V52.8324L797.177 78.5221V77.4446L775.117 51.7549ZM801.147 82.0947C801.147 82.1514 801.147 82.1514 801.09 82.1514L800.523 82.4917L804.266 86.8017L804.89 86.4614L801.147 82.0947Z" fill="#DC0032"/>
<path fill-rule="evenodd" clip-rule="evenodd" d="M775.117 52.6045V53.682L797.177 79.3717V78.2942L775.117 52.6045ZM800.692 82.3789L800.012 82.7759L803.811 87.1426L804.435 86.7456L800.692 82.3789Z" fill="#DC0032"/>
<path fill-rule="evenodd" clip-rule="evenodd" d="M775.117 53.5117V54.5892L797.177 80.2789V79.2015L775.117 53.5117ZM800.183 82.6611L799.786 82.888C799.672 82.9447 799.559 82.9447 799.445 82.9447L803.302 87.4248L803.925 87.0279L800.183 82.6611Z" fill="#DC0032"/>
<path fill-rule="evenodd" clip-rule="evenodd" d="M775.117 54.3633V55.4408L797.177 81.1304V80.0529L775.117 54.3633ZM798.424 82.6611L802.79 87.7084L803.414 87.3114L799.615 82.9447C799.558 82.9447 799.445 83.0014 799.388 83.0014H799.331C799.161 83.0014 799.048 82.9447 798.934 82.888L798.424 82.6611Z" fill="#DC0032"/>
<path fill-rule="evenodd" clip-rule="evenodd" d="M775.117 55.2129V56.3471L802.281 87.9914L802.905 87.5944L798.822 82.8307L797.574 82.1502C797.348 82.0368 797.177 81.7532 797.177 81.4697V80.9026L775.117 55.2129Z" fill="#DC0032"/>
<path fill-rule="evenodd" clip-rule="evenodd" d="M775.117 56.1201V57.1976L801.771 88.2748L802.395 87.9345L775.117 56.1201Z" fill="#DC0032"/>
<path fill-rule="evenodd" clip-rule="evenodd" d="M775.117 56.9707V58.0482L801.26 88.5583L801.884 88.218L775.117 56.9707Z" fill="#DC0032"/>
<path fill-rule="evenodd" clip-rule="evenodd" d="M775.117 57.8213V58.9555L800.807 88.8417L801.431 88.5015L775.117 57.8213Z" fill="#DC0032"/>
<path fill-rule="evenodd" clip-rule="evenodd" d="M775.117 58.7295V59.8069L800.296 89.1261L800.92 88.7859L775.117 58.7295Z" fill="#DC0032"/>
<path fill-rule="evenodd" clip-rule="evenodd" d="M775.117 59.5801V60.6576L799.729 89.353C799.9 89.2963 800.07 89.2396 800.24 89.1828L800.41 89.0694L775.117 59.5801Z" fill="#DC0032"/>
<path fill-rule="evenodd" clip-rule="evenodd" d="M775.117 60.4316V61.5659L798.992 89.3539C799.106 89.3539 799.219 89.3539 799.332 89.3539C799.503 89.3539 799.673 89.3539 799.843 89.2972L775.117 60.4316Z" fill="#DC0032"/>
<path fill-rule="evenodd" clip-rule="evenodd" d="M775.117 61.3389V62.4164L797.688 88.7299L798.482 89.1836C798.652 89.297 798.935 89.3537 799.162 89.3537L775.117 61.3389Z" fill="#DC0032"/>
<path fill-rule="evenodd" clip-rule="evenodd" d="M775.117 62.1885V63.266L796.213 87.8782L798.085 88.9557L775.117 62.1885Z" fill="#DC0032"/>
<path fill-rule="evenodd" clip-rule="evenodd" d="M775.117 63.0957V64.1732L794.739 87.0274L796.61 88.1049L775.117 63.0957Z" fill="#DC0032"/>
<path fill-rule="evenodd" clip-rule="evenodd" d="M775.117 63.9473V65.0248L793.264 86.1777L795.079 87.2552L775.117 63.9473Z" fill="#DC0032"/>
<path fill-rule="evenodd" clip-rule="evenodd" d="M775.117 64.7979V65.8754L791.79 85.3269L793.605 86.4044L775.117 64.7979Z" fill="#DC0032"/>
<path fill-rule="evenodd" clip-rule="evenodd" d="M775.117 65.7051V66.7826L790.259 84.4194L792.13 85.4969L775.117 65.7051Z" fill="#DC0032"/>
<path fill-rule="evenodd" clip-rule="evenodd" d="M775.117 66.5557V67.6332L788.784 83.5687L790.656 84.6462L775.117 66.5557Z" fill="#DC0032"/>
<path fill-rule="evenodd" clip-rule="evenodd" d="M775.117 67.4062V68.4838L787.31 82.718L789.181 83.7955L775.117 67.4062Z" fill="#DC0032"/>
<path fill-rule="evenodd" clip-rule="evenodd" d="M775.117 68.3135V69.391L785.835 81.8672L787.707 82.9447L775.117 68.3135Z" fill="#DC0032"/>
<path fill-rule="evenodd" clip-rule="evenodd" d="M775.117 69.1641V70.2415L784.361 81.0164L786.232 82.0939L775.117 69.1641Z" fill="#DC0032"/>
<path fill-rule="evenodd" clip-rule="evenodd" d="M775.117 70.0146V71.1489L782.886 80.1658L784.701 81.2433L775.117 70.0146Z" fill="#DC0032"/>
<path fill-rule="evenodd" clip-rule="evenodd" d="M775.117 70.9229V72.0004L781.355 79.316L783.227 80.3934L775.117 70.9229Z" fill="#DC0032"/>
<path fill-rule="evenodd" clip-rule="evenodd" d="M775.117 71.7725V72.85L779.881 78.4643L781.752 79.4851L775.117 71.7725Z" fill="#DC0032"/>
<path fill-rule="evenodd" clip-rule="evenodd" d="M775.117 72.624V73.7582L778.406 77.5578L780.278 78.6353L775.117 72.624Z" fill="#DC0032"/>
<path fill-rule="evenodd" clip-rule="evenodd" d="M775.117 73.5303V74.6078L776.932 76.7061L778.803 77.7836L775.117 73.5303Z" fill="#DC0032"/>
<path fill-rule="evenodd" clip-rule="evenodd" d="M775.117 74.382V74.6655C775.117 75.2326 775.514 75.9132 775.968 76.1967L777.329 76.934L775.117 74.382Z" fill="#DC0032"/>
<path fill-rule="evenodd" clip-rule="evenodd" d="M775.457 75.6851C775.57 75.7986 775.627 75.912 775.741 75.9687L775.457 75.6851Z" fill="#DC0032"/>
<rect x="1009" width="289" height="123" rx="36" fill="#F8F8FB"/>
<path fill-rule="evenodd" clip-rule="evenodd" d="M1200.51 49.1377C1198.39 49.1377 1196.36 49.5638 1194.51 50.3315C1193.27 36.4736 1181.54 25.6029 1167.23 25.6029C1163.73 25.6029 1160.31 26.2859 1157.3 27.4407C1156.13 27.8897 1155.81 28.3522 1155.8 29.2489V65.6955L1155.01 30.8634C1155 29.9285 1154.2 29.1654 1153.23 29.1654C1152.26 29.1654 1151.46 29.9285 1151.44 30.8661L1150.71 65.7251L1151.45 78.3767C1151.46 79.3008 1152.26 80.0625 1153.23 80.0625C1154.2 80.0625 1155 79.3008 1155.01 78.3632V78.3781L1155.8 65.736V78.05C1155.82 78.991 1156.55 79.7748 1157.48 79.8676C1157.52 79.8716 1200.24 79.8931 1200.51 79.8931C1209.09 79.8931 1216.04 73.0085 1216.04 64.516C1216.04 56.0236 1209.09 49.1377 1200.51 49.1377ZM1155.8 65.736L1155.8 65.7251L1155.8 65.6955V65.736ZM1149.23 78.3186C1149.21 79.1868 1148.53 79.8928 1147.71 79.8928C1146.89 79.8928 1146.21 79.1868 1146.2 78.3266C1146.2 78.3266 1145.63 65.624 1145.63 65.6039L1146.2 33.9646C1146.21 33.095 1146.89 32.389 1147.71 32.389C1148.53 32.389 1149.21 33.0964 1149.23 33.9632L1149.87 65.6146L1149.23 78.3186ZM1126.48 79.8931C1127.12 79.8931 1127.65 79.3849 1127.67 78.7345L1128.66 65.5066L1127.67 37.7892C1127.65 37.1388 1127.12 36.6306 1126.48 36.6306C1125.83 36.6306 1125.31 37.1402 1125.29 37.7906L1124.42 65.5052L1125.29 78.7386C1125.31 79.3837 1125.83 79.8931 1126.48 79.8931ZM1116.29 43.4164C1115.75 43.4164 1115.3 43.8264 1115.28 44.3471L1114.23 64.8608L1115.28 78.1177C1115.31 78.6358 1115.75 79.0444 1116.29 79.0444C1116.82 79.0444 1117.26 78.6345 1117.3 78.1151V78.1191L1118.48 64.8608L1117.3 44.3471C1117.26 43.8264 1116.82 43.4164 1116.29 43.4164ZM1096.34 53.5965C1096.59 53.5965 1096.79 53.7994 1096.82 54.0938L1098.12 65.1696L1096.82 76.0028C1096.78 76.2959 1096.59 76.5001 1096.34 76.5001C1096.1 76.5001 1095.89 76.2906 1095.86 76.0001L1094.72 65.1696C1094.72 65.1696 1095.86 54.0965 1095.86 54.0938C1095.9 53.806 1096.1 53.5965 1096.34 53.5965ZM1091.94 58.3163C1091.98 58.0349 1092.21 57.8377 1092.51 57.8377C1092.79 57.8377 1093.03 58.0349 1093.07 58.315L1094.3 65.1073L1093.07 71.7839C1093.03 72.0639 1092.79 72.2585 1092.51 72.2585C1092.21 72.2585 1091.98 72.0627 1091.94 71.7813L1090.91 65.1073L1091.94 58.3163ZM1106.13 51.7634C1106.16 51.3561 1106.51 51.0509 1106.94 51.0509C1107.37 51.0509 1107.72 51.3561 1107.75 51.7607L1109.15 65.2685L1107.75 78.3346C1107.72 78.7393 1107.37 79.0444 1106.94 79.0444C1106.51 79.0444 1106.16 78.7393 1106.13 78.3346L1104.9 65.2685L1106.13 51.7634ZM1137.52 79.8931C1138.26 79.8931 1138.86 79.2933 1138.88 78.5285V78.538L1139.69 65.6383L1138.88 37.9938C1138.86 37.229 1138.26 36.6306 1137.52 36.6306C1136.77 36.6306 1136.18 37.229 1136.16 37.9938L1135.44 65.6395L1136.16 78.5366C1136.18 79.2933 1136.78 79.8931 1137.52 79.8931ZM1112.95 79.0586C1112.92 79.5328 1112.52 79.8928 1112.04 79.8928C1111.55 79.8928 1111.16 79.5328 1111.13 79.0573L1109.99 65.566L1111.13 52.7364C1111.16 52.2595 1111.55 51.8995 1112.04 51.8995C1112.53 51.8995 1112.92 52.2568 1112.95 52.731L1114.24 65.566L1112.95 79.0586ZM1101.44 78.196C1101.73 78.196 1101.97 77.9415 1102.01 77.5896L1103.21 64.8641L1102.01 51.6587C1101.97 51.3056 1101.73 51.0509 1101.44 51.0509C1101.14 51.0509 1100.9 51.3069 1100.87 51.6587C1100.87 51.66 1099.81 64.8641 1099.81 64.8641L1100.87 77.587C1100.9 77.9401 1101.14 78.196 1101.44 78.196ZM1141.18 38.9518C1141.19 38.1248 1141.83 37.4789 1142.62 37.4789C1143.41 37.4789 1144.04 38.1248 1144.05 38.9492L1144.78 65.6069L1144.05 78.4323V78.4216C1144.04 79.2486 1143.41 79.8931 1142.62 79.8931C1141.82 79.8931 1141.19 79.2474 1141.18 78.431L1140.53 65.6056L1141.18 38.9518ZM1121.39 79.8935C1121.97 79.8935 1122.46 79.4352 1122.49 78.8505L1123.57 65.5934L1122.49 40.2189C1122.46 39.6329 1121.97 39.1759 1121.39 39.1759C1120.79 39.1759 1120.31 39.6343 1120.28 40.2189L1119.33 65.5934L1120.28 78.8559C1120.31 79.4352 1120.79 79.8935 1121.39 79.8935ZM1132.85 78.6321V78.6334C1132.83 79.3386 1132.27 79.8927 1131.58 79.8927C1130.88 79.8927 1130.32 79.3386 1130.3 78.6375L1129.51 65.5523L1130.3 37.0453C1130.32 36.3361 1130.88 35.7819 1131.58 35.7819C1132.27 35.7819 1132.83 36.3375 1132.85 37.0453L1133.75 65.5536L1132.85 78.6321ZM1103.46 89.8074C1101.56 89.3783 1101.05 89.149 1101.05 88.4258C1101.05 87.9157 1101.48 87.3882 1102.76 87.3882C1103.85 87.3882 1104.7 87.8159 1105.47 88.5728L1107.19 86.9618C1106.06 85.8271 1104.7 85.1525 1102.84 85.1525C1100.49 85.1525 1098.58 86.4356 1098.58 88.5256C1098.58 90.795 1100.11 91.4696 1102.31 91.9621C1104.56 92.4546 1104.97 92.7851 1104.97 93.5259C1104.97 94.3974 1104.31 94.7766 1102.89 94.7766C1101.75 94.7766 1100.68 94.3988 1099.84 93.4583L1098.12 94.9398C1099.02 96.223 1100.76 97.0284 1102.76 97.0284C1106.02 97.0284 1107.45 95.5483 1107.45 93.3612C1107.45 90.8598 1105.35 90.2351 1103.46 89.8074ZM1108.3 91.0911C1108.3 87.5868 1110.19 85.1525 1113.39 85.1525C1116.58 85.1525 1118.48 87.5868 1118.48 91.0911C1118.48 94.5955 1116.58 97.0284 1113.39 97.0284C1110.19 97.0284 1108.3 94.5955 1108.3 91.0911ZM1113.39 94.484C1111.59 94.484 1110.84 92.8155 1110.84 90.6674C1110.84 88.518 1111.59 86.8495 1113.39 86.8495C1115.19 86.8495 1115.93 88.518 1115.93 90.6674C1115.93 92.8155 1115.19 94.484 1113.39 94.484ZM1125.68 94.742C1127.14 94.742 1128.05 93.5885 1128.05 91.7186V85.1525H1130.36V91.6857C1130.36 95.0736 1128.61 97.0284 1125.68 97.0284C1122.9 97.0284 1121.02 95.1243 1121.02 91.7186V85.1525H1123.33V91.6857C1123.33 93.5557 1124.22 94.742 1125.68 94.742ZM1139.98 91.7102V91.7124C1139.99 92.1636 1139.99 92.5732 1139.99 92.7711C1139.85 92.486 1139.52 91.9523 1139.25 91.5229L1139.19 91.43L1135.1 85.1525H1132.9V97.0284H1135.17V91.8028C1135.17 91.4384 1135.16 90.823 1135.15 90.2695V90.2684V90.2667C1135.15 89.8156 1135.14 89.406 1135.14 89.208C1135.27 89.4761 1135.58 89.9681 1135.84 90.3838L1135.94 90.5493L1140.17 97.0284H1142.23V85.1525H1139.96V90.1764C1139.96 90.5408 1139.97 91.1568 1139.98 91.7102ZM1145.63 85.1525H1149.23C1152.52 85.1525 1154.96 86.7469 1154.96 91.0904C1154.96 95.2629 1152.03 97.0284 1149.06 97.0284H1145.63V85.1525ZM1148.35 93.6358H1147.32V86.8495H1148.43C1150.65 86.8495 1151.56 87.9742 1151.56 90.242C1151.56 92.2717 1150.56 93.6358 1148.35 93.6358ZM1163.85 88.6892C1163.43 87.8998 1162.78 87.4384 1161.74 87.4384C1160.01 87.4384 1159.02 88.9537 1159.02 91.0911C1159.02 93.1625 1160.03 94.7426 1161.75 94.7426C1162.79 94.7426 1163.4 94.2987 1164.01 93.2772L1165.95 94.4296C1165.16 96.0583 1163.78 97.0284 1161.69 97.0284C1158.68 97.0284 1156.65 94.7264 1156.65 91.0911C1156.65 87.5868 1158.76 85.1525 1161.77 85.1525C1163.94 85.1525 1165.26 86.2064 1165.99 87.7029L1163.85 88.6892ZM1169.94 85.1525H1167.68V97.0284H1174.47V94.6856H1169.94V85.1525ZM1176.16 91.0911C1176.16 87.5868 1178.06 85.1525 1181.25 85.1525C1184.45 85.1525 1186.34 87.5868 1186.34 91.0911C1186.34 94.5955 1184.45 97.0284 1181.25 97.0284C1178.06 97.0284 1176.16 94.5955 1176.16 91.0911ZM1181.26 94.484C1179.46 94.484 1178.71 92.8155 1178.71 90.6674C1178.71 88.518 1179.46 86.8495 1181.26 86.8495C1183.05 86.8495 1183.8 88.518 1183.8 90.6674C1183.8 92.8155 1183.05 94.484 1181.26 94.484ZM1192.7 94.742C1194.17 94.742 1195.07 93.5885 1195.07 91.7186V85.1525H1197.37V91.6857C1197.37 95.0736 1195.63 97.0284 1192.7 97.0284C1189.92 97.0284 1188.04 95.1243 1188.04 91.7186V85.1525H1190.35V91.6857C1190.35 93.5557 1191.23 94.742 1192.7 94.742ZM1204.37 85.1525H1200.77V97.0284H1204.2C1207.17 97.0284 1210.1 95.2629 1210.1 91.0904C1210.1 86.7469 1207.66 85.1525 1204.37 85.1525ZM1202.46 93.6358H1203.5C1205.7 93.6358 1206.7 92.2717 1206.7 90.242C1206.7 87.9742 1205.79 86.8495 1203.57 86.8495H1202.46V93.6358Z" fill="url(#paint0_linear_635_267)"/>
<rect x="1322" width="289" height="123" rx="36" fill="#F8F8FB"/>
<rect y="147" width="289" height="123" rx="36" fill="#F8F8FB"/>
<path fill-rule="evenodd" clip-rule="evenodd" d="M75.6881 218.601C83.6095 218.601 88.7222 212.94 88.7222 205.958C88.7222 198.976 83.019 193.657 75.8201 193.657C68.622 193.657 62.918 198.785 62.918 206.13C62.918 213.112 68.4892 218.601 75.6881 218.601ZM83.431 205.699C83.431 209.974 80.3882 213.44 76.1193 213.44C71.8214 213.44 68.8086 209.974 68.8086 205.699C68.8086 201.424 71.626 197.958 76.1193 197.958C80.7035 197.958 83.431 201.424 83.431 205.699Z" fill="#362867"/>
<path fill-rule="evenodd" clip-rule="evenodd" d="M138.348 218.601C146.269 218.601 151.382 212.94 151.382 205.958C151.382 198.976 145.679 193.657 138.48 193.657C131.282 193.657 125.578 198.785 125.578 206.13C125.578 213.112 131.149 218.601 138.348 218.601ZM145.361 205.699C145.361 209.974 142.319 213.44 138.05 213.44C133.75 213.44 130.738 209.974 130.738 205.699C130.738 201.424 133.555 197.958 138.05 197.958C142.634 197.958 145.361 201.424 145.361 205.699Z" fill="#362867"/>
<path d="M178.902 208.459C178.902 208.459 178.903 198.922 178.902 196.456C179.35 193.004 184.158 194.855 184.158 194.855V207.722V207.717C184.158 211.732 186.875 213.694 190.226 213.694C193.577 213.694 196.294 211.799 196.294 207.717C196.294 207.717 196.309 198.93 196.308 196.463C196.755 193.012 201.564 194.863 201.564 194.863V203.135C202.247 213.331 211.889 214.093 211.889 214.093C221.489 215.437 220.646 211.45 220.646 211.45C220.397 209.443 218.917 208.989 216.363 208.657C214.777 208.452 213.4 208.311 213.4 208.311C203.109 207.653 204.122 200.788 204.122 200.788C204.252 194.981 210.397 194.096 210.397 194.096C215.824 193.119 219.658 194.078 219.658 194.078C228.107 195.856 223.947 199.905 223.25 200.136C223.25 200.136 220.999 198.052 215.736 197.753C209.253 197.334 209.367 200.429 209.367 200.429C209.156 202.687 212.015 203.1 212.015 203.1L218.963 204.083C227.17 205.24 226.17 211.129 226.17 211.129C225.631 218.493 216.954 218.547 216.954 218.547C205.087 219.244 200.62 213.012 200.62 213.012C198.957 216.358 195.637 218.595 190.119 218.595C183.541 218.595 178.902 214.865 178.902 208.173" fill="#362867"/>
<path d="M101.763 194.903C92.2648 195.588 90.0979 204.504 90.3286 207.096C90.197 211.012 92.9093 219.39 103.401 219.395C104.783 219.368 106.049 219.243 107.205 219.027L107.204 214.275C106.199 214.454 104.985 214.566 103.52 214.605C98.6233 214.73 95.8407 210.671 95.8596 207.095C95.8596 202.946 99.2191 199.541 103.52 199.584L112.006 199.582L112.027 211.318C112.027 211.318 111.415 221.261 123.858 219.173V214.438C116.958 215.94 117.331 211.555 117.331 211.555V199.59H123.858V194.896H117.331V189.356H112.027V194.896L101.763 194.903Z" fill="#362867"/>
<path fill-rule="evenodd" clip-rule="evenodd" d="M152.238 227.145C152.238 227.145 157.024 228.964 157.468 225.573C157.467 223.148 157.492 214.963 157.492 214.963C159.302 217.287 161.924 218.343 164.607 218.491C172.136 218.81 177.23 213.414 177.182 206.157C177.137 199.308 171.943 193.929 164.711 194.09C156.52 194.272 152.541 199.682 152.238 206.325V227.145ZM172.021 206.129C172.021 210.405 168.978 213.87 164.71 213.87C160.411 213.87 157.398 210.405 157.398 206.129C157.398 201.853 160.215 198.388 164.71 198.388C169.294 198.388 172.021 201.853 172.021 206.129Z" fill="#362867"/>
<rect x="313" y="147" width="289" height="123" rx="36" fill="#F8F8FB"/>
<path d="M501.897 223.031H413.305L420.371 229.912L501.897 223.031Z" fill="#BF0000"/>
<path d="M515.927 218.73V204.425C515.927 201.743 517.766 199.508 520.392 199.508C523.018 199.508 524.856 201.743 524.856 204.425V218.73H530.283V204.425C530.283 198.525 526.344 193.786 520.567 193.786C517.941 193.786 515.927 195.306 515.927 195.306V194.323H510.5V218.641H515.927V218.73Z" fill="#BF0000"/>
<path fill-rule="evenodd" clip-rule="evenodd" d="M487.273 206.688C487.273 199.47 491.796 193.786 498.18 193.786C504.387 193.786 509.973 199.651 508.554 208.312H492.771C493.48 213.996 499.776 216.793 503.5 211.2L508.377 214.087C505.273 218.598 501.638 219.59 498.712 219.59C492.948 219.59 487.273 214.267 487.273 206.688ZM502.756 203.248H493.295C494.403 197.692 501.734 197.339 502.756 203.248Z" fill="#BF0000"/>
<path d="M485.465 213.255C484.935 213.612 484.317 213.88 483.61 213.88C482.727 213.88 481.048 213.166 481.048 210.935V200.494H485.73V194.694H481.048V188.626H475.571V194.694H472.656V200.494H475.571V210.935C475.571 216.378 479.635 219.591 483.699 219.591C485.2 219.591 487.321 219.056 488.999 218.074L485.465 213.255Z" fill="#BF0000"/>
<path d="M464.645 194.646V208.951C464.645 211.634 462.807 213.869 460.181 213.869C457.555 213.869 455.716 211.634 455.716 208.951V194.646H450.289V208.951C450.289 214.852 454.228 219.591 460.006 219.591C462.632 219.591 464.645 218.071 464.645 218.071V218.965H470.072V194.646H464.645Z" fill="#BF0000"/>
<path d="M440.177 206.018L449.635 194.796H441.962L435.27 203.125V186.905H429.648V218.73H435.27V208.911L443.479 218.73H451.152L440.177 206.018Z" fill="#BF0000"/>
<path fill-rule="evenodd" clip-rule="evenodd" d="M421.606 195.801V194.718H427.07V219.26H421.606V218.177C420.02 219.26 418.521 219.891 416.494 219.891C410.237 219.891 405.566 214.117 405.566 206.989C405.566 199.861 410.325 194.087 416.494 194.087C418.521 194.087 419.931 194.718 421.606 195.801ZM410.727 206.989C410.727 210.831 412.894 213.87 415.93 213.87C418.965 213.87 421.132 210.831 421.046 206.989C421.046 203.146 418.965 200.107 415.93 200.107C412.894 200.107 410.727 203.146 410.727 206.989Z" fill="#BF0000"/>
<path fill-rule="evenodd" clip-rule="evenodd" d="M390.204 209.673V218.942H384.406V188.926H393.861C399.57 188.926 404.298 193.517 404.298 199.255C404.298 202.786 402.603 205.876 399.927 207.73L408.49 218.942H401.265L394.218 209.673H390.204ZM393.715 194.946H389.912V204.408H393.715C396.34 204.408 398.514 202.266 398.514 199.677C398.514 197.089 396.34 194.946 393.715 194.946Z" fill="#BF0000"/>
<rect x="626" y="147" width="289" height="123" rx="36" fill="#F8F8FB"/>
<path d="M752.542 184.271H703.516V233.299H752.542V184.271Z" fill="white"/>
<path d="M777.483 208.813L752.539 184.271V233.299L777.483 208.813Z" fill="#D90009"/>
<path d="M728.029 209.215L752.542 184.271H703.516L728.029 209.215Z" fill="#D90009"/>
<path d="M679.43 208.813L704.374 233.299V184.271L679.43 208.813Z" fill="#D90009"/>
<path d="M728.287 208.569L703.773 232.653H752.8L728.287 208.569Z" fill="#D90009"/>
<path d="M799.028 210.077H789.996V218.891H785.48V198.248H789.996V206.714H799.028V198.248H803.543V218.891H799.028V210.077Z" fill="black"/>
<path d="M814.071 219.751C809.732 219.751 806.181 217.945 806.125 212.992H810.464C810.521 215.206 811.76 216.546 814.127 216.546C815.874 216.546 817.903 215.614 817.903 213.574C817.903 211.943 816.55 211.476 814.296 210.777L812.831 210.369C809.675 209.437 806.519 208.155 806.519 204.425C806.519 199.821 810.69 198.248 814.465 198.248C818.354 198.248 821.735 199.647 821.791 204.25H817.452C817.283 202.386 816.212 201.278 814.184 201.278C812.549 201.278 810.971 202.152 810.971 204.017C810.971 205.532 812.324 205.999 815.142 206.931L816.832 207.455C820.27 208.563 822.468 209.786 822.468 213.283C822.411 217.945 818.016 219.751 814.071 219.751Z" fill="black"/>
<path fill-rule="evenodd" clip-rule="evenodd" d="M825.051 198.269H832.212C833.54 198.211 834.926 198.269 836.254 198.501C838.737 199.082 840.643 200.709 840.643 203.497C840.643 206.169 838.968 207.506 836.543 208.145C839.315 208.667 841.393 210.062 841.393 213.14C841.393 217.846 836.774 218.891 833.193 218.891H825.109L825.051 198.269ZM832.209 206.849C834.192 206.849 836.233 206.469 836.233 204.242C836.233 202.232 834.366 201.689 832.5 201.689H829.351V206.849H832.209ZM837.093 212.44C837.093 214.988 834.976 215.451 832.799 215.451H829.351V209.43H833.041C835.278 209.43 837.093 209.893 837.093 212.44Z" fill="black"/>
<path d="M852.689 219.751C846.052 219.751 843.109 215.509 843.109 209.174C843.109 202.839 846.399 198.248 852.92 198.248C857.017 198.248 860.999 200.108 861.115 204.757H856.498C856.267 202.665 854.882 201.619 852.92 201.619C848.88 201.619 847.668 205.978 847.668 209.29C847.668 212.603 848.88 216.439 852.747 216.439C854.767 216.439 856.267 215.335 856.556 213.242H861.172C860.711 218.008 856.96 219.751 852.689 219.751Z" fill="black"/>
<rect x="939" y="147" width="289" height="123" rx="36" fill="#F8F8FB"/>
<path fill-rule="evenodd" clip-rule="evenodd" d="M1179.39 197.238C1181.68 197.238 1183.31 195.861 1183.31 193.837C1183.31 191.795 1181.74 190.387 1179.46 190.357C1179.44 190.357 1179.42 190.356 1179.4 190.356L1179.4 190.356L1179.39 190.356C1177.12 190.356 1175.56 191.753 1175.56 193.837C1175.56 195.882 1177.12 197.238 1179.39 197.238ZM1179.4 190.356C1179.42 190.356 1179.44 190.357 1179.46 190.357C1181.27 190.385 1182.45 191.608 1182.45 193.411C1182.45 195.213 1181.24 196.377 1179.4 196.377C1177.58 196.377 1176.42 195.191 1176.42 193.411C1176.42 191.589 1177.62 190.359 1179.4 190.356ZM1178.15 195.517H1179.16V193.955H1179.66V195.517H1180.73V194.227C1180.73 193.865 1180.51 193.639 1180.12 193.525C1180.49 193.322 1180.64 193.095 1180.64 192.665V191.964C1180.64 191.488 1180.33 191.217 1179.88 191.217H1178.15V195.517ZM1179 192.937V192.077H1179.86V192.937H1179ZM1166.1 202.828V209.709H1169.54V202.828H1166.1ZM1160.08 226.912H1166.06L1166.1 214.407H1169.35V226.912H1175.57V216.227C1175.57 213.973 1174.27 212.456 1171.99 211.567C1174.2 210.245 1175.29 208.966 1175.29 206.106V201.706C1175.29 198.693 1173.44 196.807 1170.48 196.807H1160.15L1160.08 226.912ZM1156.64 226.912H1144.64L1144.6 196.808H1156.64V202.378H1150.7V208.988H1155.44V214.407H1150.8V221.342H1156.64V226.912ZM1132.07 226.912H1138.23V202.378H1142.02V196.807H1128.26V202.378H1132.05V226.912H1132.07ZM1120.97 226.912H1115.8C1112.91 226.912 1111.1 225.049 1111.1 222.014V217.571H1116.89V221.342H1119.85V214.905L1115.32 214.493C1112.49 214.233 1111.06 212.608 1111.06 209.682V201.706C1111.06 198.693 1112.87 196.808 1115.76 196.808H1120.93C1123.82 196.808 1125.63 198.693 1125.63 201.706V206.322H1119.85V202.378H1116.89V208.988L1121.41 209.4C1124.24 209.66 1125.68 211.329 1125.68 214.255V222.014C1125.68 225.027 1123.87 226.912 1120.97 226.912ZM1096.93 226.912H1102.82C1105.77 226.912 1107.61 225.028 1107.61 222.018L1107.57 196.807H1101.42V221.346H1098.18V196.829H1092.13V222.039C1092.13 225.05 1093.98 226.912 1096.93 226.912ZM1079.23 202.828V209.709H1082.67V202.828H1079.23ZM1073.23 226.912H1083.85C1086.83 226.912 1088.69 225.027 1088.69 222.014V216.206C1088.69 213.952 1087.39 212.434 1085.1 211.546C1087.32 210.224 1088.42 208.945 1088.42 206.084V201.706C1088.42 198.693 1086.55 196.808 1083.57 196.808H1073.23V226.912ZM1079.23 214.87V221.751H1082.67V214.87H1079.23ZM1040.32 226.912H1045.92C1048.95 226.912 1050.85 225.027 1050.85 222.014V214.407H1044.79V221.342H1041.67V202.378H1044.76V208.186H1050.83V201.706C1050.83 198.693 1048.93 196.808 1045.9 196.808H1040.29C1037.26 196.808 1035.37 198.693 1035.37 201.706V222.036C1035.39 225.049 1037.28 226.912 1040.32 226.912ZM1022.46 202.828V221.751H1025.9V202.828H1022.46ZM1021.21 226.912H1027.11C1030.05 226.912 1031.92 225.027 1031.92 222.014V201.706C1031.92 198.693 1030.09 196.808 1027.16 196.808H1021.21C1018.28 196.808 1016.44 198.693 1016.44 201.706V222.036C1016.44 225.049 1018.28 226.912 1021.21 226.912ZM1014.72 226.912H1002.68V196.808H1008.92V221.342H1014.72V226.912ZM989.779 209.709V202.828H993.22V209.709H989.779ZM994.401 226.912H983.758V196.807H994.122C997.099 196.807 998.962 198.693 998.962 201.706V206.084C998.962 208.945 997.87 210.224 995.643 211.546C997.934 212.434 999.24 213.951 999.24 216.205V222.014C999.24 225.027 997.377 226.912 994.401 226.912ZM989.607 221.751V214.87H993.048V221.751H989.607ZM1060.13 226.912H1054.12V196.808H1060.13V209.465L1064.77 196.808H1070.93L1065.48 210.917L1071.32 226.912H1064.71L1060.13 213.475V226.912Z" fill="#ECDB61"/>
<rect x="1252" y="147" width="289" height="123" rx="36" fill="#F8F8FB"/>
<path fill-rule="evenodd" clip-rule="evenodd" d="M1327.69 218.601C1335.61 218.601 1340.72 212.94 1340.72 205.958C1340.72 198.976 1335.02 193.657 1327.82 193.657C1320.62 193.657 1314.92 198.785 1314.92 206.13C1314.92 213.112 1320.49 218.601 1327.69 218.601ZM1335.43 205.699C1335.43 209.974 1332.39 213.44 1328.12 213.44C1323.82 213.44 1320.81 209.974 1320.81 205.699C1320.81 201.424 1323.63 197.958 1328.12 197.958C1332.7 197.958 1335.43 201.424 1335.43 205.699Z" fill="#362867"/>
<path fill-rule="evenodd" clip-rule="evenodd" d="M1390.35 218.601C1398.27 218.601 1403.38 212.94 1403.38 205.958C1403.38 198.976 1397.68 193.657 1390.48 193.657C1383.28 193.657 1377.58 198.785 1377.58 206.13C1377.58 213.112 1383.15 218.601 1390.35 218.601ZM1397.36 205.699C1397.36 209.974 1394.32 213.44 1390.05 213.44C1385.75 213.44 1382.74 209.974 1382.74 205.699C1382.74 201.424 1385.56 197.958 1390.05 197.958C1394.63 197.958 1397.36 201.424 1397.36 205.699Z" fill="#362867"/>
<path d="M1353.76 194.903C1344.26 195.588 1342.1 204.504 1342.33 207.096C1342.2 211.012 1344.91 219.39 1355.4 219.395C1356.78 219.368 1358.05 219.243 1359.2 219.027L1359.2 214.275C1358.2 214.454 1356.98 214.566 1355.52 214.605C1350.62 214.73 1347.84 210.671 1347.86 207.095C1347.86 202.946 1351.22 199.541 1355.52 199.584L1364.01 199.582L1364.03 211.318C1364.03 211.318 1363.42 221.261 1375.86 219.173V214.438C1368.96 215.94 1369.33 211.555 1369.33 211.555V199.59H1375.86V194.896H1369.33V189.356H1364.03V194.896L1353.76 194.903Z" fill="#362867"/>
<rect x="99" y="306" width="289" height="123" rx="36" fill="#F8F8FB"/>
<path fill-rule="evenodd" clip-rule="evenodd" d="M144.586 359.165C144.586 373.632 144.85 376.196 146.736 380.058C150.829 388.437 161.579 391.852 170.539 387.621C173.352 386.292 177.314 382.291 178.563 379.517L179.444 377.562L179.577 383.062L179.71 388.563L183.927 388.694L188.143 388.825L188.289 378.152C188.421 368.426 188.517 367.336 189.363 365.874C190.35 364.169 193.595 362.207 195.428 362.207H196.488L195.583 363.977C195.086 364.95 194.43 367.098 194.125 368.748C191.993 380.297 202.902 391.34 214.436 389.311C220.535 388.239 225.421 384.594 228.068 379.144C229.328 376.549 229.507 376.356 229.526 377.562C229.579 380.899 233.131 385.752 236.925 387.672C241.95 390.214 246.585 390.207 250.836 387.651L253.403 386.109V387.467V388.826L257.65 388.695L261.897 388.563L262.127 377.562C262.335 367.574 262.442 366.414 263.29 364.957C265.812 360.625 272.428 360.758 274.721 365.186C275.589 366.862 275.684 367.96 275.816 377.906L275.961 388.792H280.293H284.625V382.989V377.187L286.015 379.963C289.361 386.648 296.792 390.302 304.777 389.187C308.598 388.653 311.157 387.49 313.743 385.11C316.116 382.926 317.375 381.069 318.349 378.314L319.02 376.416L314.793 376.42L310.566 376.423L309.547 378.205C308.392 380.224 304.663 382.377 302.327 382.372C300.098 382.368 297.625 381.52 296.097 380.237C294.761 379.114 292.889 376.093 292.889 375.059C292.889 374.74 297.294 374.583 306.204 374.583H319.52V381.687V388.792H323.882H328.243V378.576C328.243 368.893 328.297 368.253 329.276 366.317C330.54 363.818 333.125 362.225 335.934 362.214L337.885 362.207V358.082V353.957H335.401C332.198 353.957 328.027 355.264 325.339 357.11C323.071 358.668 321.147 361.492 320.221 364.625L319.65 366.552L318.354 363.816C315.131 357.015 307.397 352.845 299.667 353.74C293.943 354.403 287.734 358.881 285.704 363.808C285.237 364.942 284.742 365.871 284.605 365.872C284.468 365.873 284.118 364.986 283.828 363.902C281.446 355.012 270.765 350.831 263.389 355.901L262.127 356.769V351.467V346.164H257.765H253.403L253.392 359.571C253.38 373.784 253.117 376.19 251.318 378.543C248.859 381.762 243.411 382.274 240.332 379.576C238.322 377.814 237.792 375.379 237.792 367.914V362.207H244.468H251.143L251.01 358.196L250.878 354.186L244.335 354.059L237.792 353.931V350.048V346.164H233.43H229.068V356.109V366.054L227.824 363.557C224.395 356.676 216.352 352.554 208.995 353.907C205.426 354.564 202.164 356.128 199.667 358.38L197.847 360.022V356.923V353.824L194.408 354.084C190.299 354.394 186.498 355.973 183.902 358.449C181.976 360.287 179.964 364.04 179.923 365.874C179.903 366.763 179.709 366.542 179.063 364.889C177.231 360.215 173.176 356.28 168.518 354.656C164.273 353.177 158.128 354.001 154.864 356.487C154.043 357.112 153.254 357.623 153.111 357.623C152.968 357.623 152.851 354.942 152.851 351.665V345.706H148.718H144.586V359.165ZM305.186 361.544C307.171 362.372 309.225 364.202 310.148 365.965C310.504 366.647 310.796 367.317 310.796 367.455C310.796 367.594 306.87 367.707 302.072 367.707C296.287 367.707 293.348 367.545 293.348 367.226C293.348 366.17 294.81 364.023 296.303 362.887C299.048 360.796 302.237 360.314 305.186 361.544ZM166.966 363.213C172.247 365.668 173.551 373.373 169.453 377.906C167.364 380.218 165.543 381 162.255 381C156.729 381 152.851 377.124 152.851 371.603C152.851 367.221 155.932 363.036 159.613 362.421C160.565 362.262 161.551 362.07 161.804 361.995C162.647 361.743 164.998 362.298 166.966 363.213ZM214.5 362.419C218.183 363.039 221.263 367.222 221.263 371.603C221.263 377.124 217.384 381 211.859 381C208.573 381 206.75 380.218 204.668 377.914C200.888 373.732 201.681 366.834 206.305 363.67C207.791 362.654 210.894 361.751 212.08 361.989C212.459 362.065 213.548 362.258 214.5 362.419ZM336.967 380.865C334.409 381.799 333.207 384.747 334.496 386.926C336.058 389.566 339.71 389.888 341.553 387.549C344.045 384.386 340.696 379.504 336.967 380.865ZM340.496 382.454C341.849 383.724 341.919 386.14 340.64 387.417C339.273 388.782 336.816 388.639 335.623 387.126C334.361 385.524 334.421 383.958 335.799 382.583C337.2 381.184 339.086 381.133 340.496 382.454ZM336.049 384.87C336.049 386.27 336.255 387.417 336.508 387.417C336.76 387.417 336.967 387.004 336.967 386.5C336.967 385.827 337.273 385.583 338.115 385.583C338.957 385.583 339.263 385.827 339.263 386.5C339.263 387.004 339.455 387.417 339.689 387.417C339.924 387.417 340.079 386.334 340.034 385.01L339.952 382.604L338 382.463L336.049 382.322V384.87ZM339.263 383.979C339.263 384.407 338.829 384.667 338.115 384.667C337.401 384.667 336.967 384.407 336.967 383.979C336.967 383.551 337.401 383.291 338.115 383.291C338.829 383.291 339.263 383.551 339.263 383.979Z" fill="#005CAB"/>
<rect x="412" y="306" width="289" height="123" rx="36" fill="#F8F8FB"/>
<mask id="mask0_635_267" style="mask-type:luminance" maskUnits="userSpaceOnUse" x="481" y="332" width="151" height="72">
<path d="M631.499 332.023H481.812V403.109H631.499V332.023Z" fill="white"/>
</mask>
<g mask="url(#mask0_635_267)">
<path d="M612.541 375.799H619.216C620.838 375.799 622.118 376.212 623.046 377.026C623.984 377.841 624.453 378.998 624.453 380.48C624.453 381.982 623.945 383.199 622.929 384.101C621.952 384.965 620.691 385.387 619.137 385.387H612.541V375.799ZM612.541 402.344V390.814H619.831C623.31 390.814 626.105 389.911 628.206 388.105C630.404 386.211 631.499 383.679 631.499 380.5C631.499 377.37 630.551 374.897 628.636 373.071C626.73 371.276 624.072 370.383 620.681 370.383H605.73V402.344H612.541ZM575.516 389.881C575.516 393.914 576.571 397.074 578.691 399.38C580.968 401.863 584.369 403.109 588.893 403.109C593.291 403.109 596.613 401.961 598.87 399.675C601.177 397.339 602.33 394.081 602.33 389.881V370.383H595.45V390.343C595.45 395.033 593.281 397.379 588.952 397.379C584.584 397.379 582.395 395.033 582.395 390.343V370.383H575.516V389.881ZM563.75 378.37C565.235 380.333 565.978 383.002 565.978 386.388C565.978 390.078 565.079 392.914 563.291 394.896C561.815 396.544 559.861 397.379 557.457 397.379C554.77 397.379 552.669 396.368 551.154 394.356C549.698 392.403 548.965 389.754 548.965 386.388C548.965 383.002 549.698 380.333 551.154 378.37C552.679 376.339 554.75 375.328 557.379 375.328C560.086 375.328 562.216 376.339 563.75 378.37ZM546.043 374.092C543.317 377.036 541.959 381.148 541.959 386.398C541.959 392.148 543.591 396.486 546.845 399.429C549.552 401.883 553.089 403.109 557.457 403.109C562.323 403.109 566.134 401.618 568.88 398.635C571.617 395.681 572.985 391.608 572.985 386.398C572.985 381.177 571.617 377.065 568.88 374.092C566.144 371.099 562.382 369.617 557.584 369.617C552.639 369.617 548.789 371.109 546.043 374.092ZM521.174 375.799H527.809C529.636 375.799 530.995 376.123 531.894 376.781C532.802 377.438 533.252 378.527 533.252 380.049C533.252 383.012 531.434 384.494 527.809 384.494H521.174V375.799ZM521.174 402.344V389.881H528.014L533.809 402.344H541.519L534.698 388.743C538.431 387.006 540.297 384.15 540.297 380.176C540.297 377.379 539.584 375.181 538.157 373.552C536.33 371.433 533.467 370.383 529.578 370.383H514.314V402.344H521.174ZM507.845 373.591C505.568 370.942 502.05 369.617 497.291 369.617C492.425 369.617 488.624 371.148 485.868 374.21C483.161 377.222 481.812 381.373 481.812 386.672C481.812 392.55 483.435 396.937 486.698 399.822C489.161 402.01 492.337 403.109 496.246 403.109C500.487 403.109 503.682 401.775 505.822 399.115L506.545 402.344H510.943V385.436H499.128V390.441H504.239V391.913C504.239 393.551 503.545 394.896 502.158 395.926C500.838 396.898 499.158 397.379 497.125 397.379C494.477 397.379 492.435 396.466 491.008 394.641C489.552 392.806 488.819 390.156 488.819 386.692C488.819 383.13 489.513 380.363 490.9 378.39C492.347 376.349 494.389 375.328 497.047 375.328C500.741 375.328 503.193 377.262 504.405 381.148L510.855 379.568C510.171 377.105 509.164 375.103 507.845 373.591Z" fill="black"/>
<path d="M565.189 363.445L571.1 341.263L576.699 363.445H584.141L591.856 332.023H584.863L580.064 354.688L574.641 332.023H567.842L562.234 354.688L557.562 332.023H550.393L557.679 363.445H565.189ZM519.893 363.465V341.08L527.423 363.465H533.041L540.532 341.08V363.465H547.038V332.053H538.045L530.388 355.383L522.634 332.053H513.436V363.465H519.893ZM489.929 337.377H497.167C498.581 337.377 499.654 337.541 500.405 337.868C501.624 338.399 502.229 339.402 502.229 340.878C502.229 342.102 501.829 342.999 501.039 343.568C500.268 344.137 498.981 344.417 497.167 344.417H489.929V337.377ZM489.929 349.712H497.089C498.981 349.712 500.395 349.953 501.331 350.426C502.551 351.043 503.155 352.21 503.155 353.898C503.155 355.316 502.775 356.338 502.004 356.974C501.068 357.746 499.429 358.132 497.089 358.132H489.929V349.712ZM496.962 363.465C505.701 363.465 510.071 360.311 510.071 354.023C510.071 350.522 508.374 348.101 504.97 346.761C507.701 345.459 509.066 343.212 509.066 340.029C509.066 337.232 507.944 335.139 505.711 333.741C503.926 332.612 501.507 332.053 498.444 332.053H483.18V363.465H496.962Z" fill="black"/>
</g>
<rect x="725" y="306" width="289" height="123" rx="36" fill="#F8F8FB"/>
<mask id="mask1_635_267" style="mask-type:luminance" maskUnits="userSpaceOnUse" x="783" y="332" width="174" height="71">
<path d="M956.001 332.932H783.305V402.747H956.001V332.932Z" fill="white"/>
</mask>
<g mask="url(#mask1_635_267)">
<path fill-rule="evenodd" clip-rule="evenodd" d="M784.38 401.183C785.763 402.674 787.541 402.73 789.68 402.73V402.746H846.905C848.848 402.746 850.483 402.71 852.221 401.327C853.958 399.945 854.277 398.46 854.59 396.685L864.609 339.564C864.954 337.614 865.185 335.963 863.797 334.478C862.409 332.993 860.631 332.931 858.497 332.931H801.267C799.329 332.931 797.684 332.967 795.951 334.349C794.219 335.731 793.895 337.212 793.587 338.991L783.562 396.092C783.213 398.042 782.997 399.692 784.38 401.183ZM813.41 362.759C813.338 362.974 813.318 363.203 813.35 363.427V378.114C813.317 378.339 813.338 378.568 813.409 378.783C813.481 378.998 813.602 379.193 813.762 379.353C813.95 379.505 814.167 379.617 814.399 379.682C814.631 379.748 814.874 379.765 815.113 379.732H822.288C830.138 379.732 833.86 374.982 833.86 368.536C833.86 362.09 830.133 357.34 822.288 357.34H820.891C820.652 357.308 820.409 357.325 820.177 357.391C819.945 357.456 819.728 357.568 819.54 357.72C819.379 357.879 819.258 358.074 819.186 358.289C819.114 358.504 819.094 358.734 819.128 358.958V360.191C819.159 360.417 819.137 360.647 819.065 360.863C818.992 361.079 818.871 361.274 818.71 361.435C818.522 361.585 818.305 361.696 818.073 361.76C817.841 361.825 817.598 361.841 817.36 361.809H815.113C814.874 361.779 814.631 361.797 814.399 361.862C814.167 361.927 813.951 362.038 813.762 362.189C813.602 362.349 813.482 362.544 813.41 362.759ZM819.634 375.064C819.563 374.849 819.543 374.619 819.576 374.395V362.97C819.544 362.746 819.564 362.517 819.636 362.303C819.707 362.089 819.828 361.895 819.989 361.737C820.175 361.584 820.391 361.471 820.622 361.405C820.854 361.338 821.096 361.32 821.334 361.352H821.607C825.448 361.352 827.705 364.151 827.705 368.682C827.705 373.214 825.453 376.018 821.607 376.018H821.334C821.096 376.048 820.854 376.03 820.623 375.964C820.391 375.898 820.176 375.785 819.989 375.633C819.828 375.474 819.706 375.279 819.634 375.064ZM804.778 379.678C804.545 379.743 804.301 379.76 804.061 379.727L804.071 379.732H801.071C800.832 379.765 800.588 379.748 800.355 379.683C800.122 379.617 799.905 379.505 799.716 379.353C799.557 379.193 799.437 378.997 799.366 378.782C799.295 378.567 799.276 378.339 799.309 378.114V362.767C799.34 362.543 799.319 362.315 799.247 362.101C799.175 361.887 799.055 361.693 798.896 361.534C798.708 361.382 798.491 361.27 798.259 361.205C798.027 361.14 797.785 361.122 797.546 361.154H795.365C795.127 361.185 794.886 361.167 794.654 361.102C794.423 361.037 794.208 360.925 794.02 360.774C793.859 360.614 793.737 360.419 793.665 360.203C793.592 359.987 793.571 359.757 793.602 359.531V358.958C793.57 358.733 793.591 358.504 793.664 358.289C793.737 358.073 793.859 357.879 794.02 357.72C794.207 357.569 794.423 357.457 794.654 357.391C794.885 357.326 795.127 357.309 795.365 357.34H809.757C809.996 357.309 810.239 357.326 810.471 357.391C810.703 357.456 810.919 357.568 811.107 357.72C811.268 357.879 811.388 358.075 811.46 358.29C811.532 358.505 811.552 358.734 811.52 358.958V359.531C811.552 359.756 811.532 359.986 811.46 360.202C811.388 360.418 811.268 360.614 811.107 360.774C810.919 360.925 810.702 361.037 810.47 361.102C810.238 361.167 809.996 361.185 809.757 361.154H807.592C807.353 361.122 807.11 361.139 806.878 361.204C806.646 361.27 806.43 361.382 806.242 361.534C806.081 361.692 805.961 361.886 805.889 362.1C805.817 362.315 805.797 362.543 805.829 362.767V378.109C805.862 378.334 805.842 378.563 805.77 378.778C805.698 378.993 805.577 379.188 805.417 379.347C805.228 379.5 805.011 379.613 804.778 379.678ZM853.719 375.626C853.511 375.571 853.292 375.566 853.081 375.612V375.648H852.813C852.231 375.7 851.38 375.758 850.617 375.758C846.793 375.758 844.025 373.193 844.025 368.552C844.025 363.068 847.7 360.977 851.71 361.268H851.916C852.119 361.305 852.327 361.29 852.523 361.227C852.719 361.163 852.896 361.053 853.04 360.904C853.175 360.737 853.275 360.544 853.333 360.336C853.391 360.128 853.405 359.911 853.375 359.697V359.031C853.396 358.815 853.375 358.596 853.312 358.388C853.249 358.18 853.146 357.987 853.009 357.819C852.711 357.545 852.333 357.377 851.932 357.34C850.978 357.221 850.017 357.169 849.056 357.184C841.257 357.184 837.483 362.564 837.483 368.573C837.483 374.582 841.251 379.961 849.056 379.961C850.203 379.977 851.351 379.907 852.488 379.753C852.957 379.72 853.406 379.552 853.782 379.269C853.938 379.142 854.068 378.984 854.162 378.805C854.257 378.627 854.315 378.431 854.334 378.229L854.525 377.121C854.589 376.918 854.6 376.702 854.558 376.493C854.515 376.284 854.42 376.09 854.282 375.929C854.121 375.785 853.928 375.681 853.719 375.626Z" fill="#006CB7"/>
<path d="M884.163 370.773H879.584V367.784H885.401C886.742 367.784 887.414 368.424 887.418 369.704V380.176C887.191 380.226 886.962 380.264 886.732 380.289C886.343 380.345 885.857 380.398 885.272 380.45C884.688 380.501 884.016 380.551 883.256 380.599C882.498 380.641 881.708 380.666 880.883 380.666C879.302 380.682 877.731 380.418 876.241 379.887C874.869 379.396 873.614 378.626 872.554 377.625C871.485 376.594 870.659 375.339 870.135 373.949C868.997 370.723 868.997 367.204 870.135 363.978C870.652 362.599 871.449 361.342 872.476 360.286C873.48 359.274 874.688 358.487 876.02 357.978C877.43 357.439 878.93 357.169 880.44 357.183C881.639 357.177 882.834 357.319 883.998 357.607C885.181 357.925 886.298 358.449 887.299 359.156L885.675 361.691C884.992 361.199 884.234 360.821 883.431 360.57C882.491 360.303 881.515 360.177 880.538 360.199C879.493 360.187 878.455 360.38 877.484 360.767C876.571 361.134 875.75 361.701 875.081 362.424C874.373 363.215 873.837 364.145 873.508 365.155C873.109 366.378 872.917 367.659 872.94 368.945C872.914 370.261 873.117 371.572 873.539 372.818C873.892 373.844 874.464 374.782 875.215 375.565C875.938 376.298 876.821 376.855 877.794 377.191C878.867 377.553 879.994 377.727 881.126 377.708C882.037 377.708 882.725 377.685 883.189 377.641C883.535 377.617 883.879 377.574 884.22 377.512V370.799L884.163 370.773ZM891.817 380.073V365.047C892.096 364.871 892.447 364.686 892.849 364.479C893.302 364.256 893.769 364.061 894.247 363.896C894.809 363.7 895.384 363.549 895.969 363.441C896.634 363.318 897.31 363.257 897.986 363.261C899.85 363.261 901.29 363.586 902.308 364.236L901.106 366.71C900.653 366.468 900.166 366.294 899.662 366.193C899.173 366.112 898.678 366.074 898.182 366.08C897.62 366.074 897.059 366.134 896.511 366.26C896.038 366.367 895.583 366.541 895.16 366.777V380.073H891.812H891.817ZM911.123 377.863C911.775 377.893 912.424 377.761 913.013 377.48C913.602 377.199 914.113 376.777 914.501 376.252C915.302 375.178 915.703 373.73 915.703 371.909C915.703 370.088 915.302 368.641 914.501 367.567C914.096 367.067 913.585 366.665 913.005 366.388C912.425 366.111 911.791 365.968 911.148 365.968C910.506 365.968 909.872 366.111 909.292 366.388C908.712 366.665 908.201 367.067 907.796 367.567C906.991 368.641 906.591 370.088 906.594 371.909C906.598 373.73 906.998 375.178 907.796 376.252C908.178 376.775 908.684 377.196 909.268 377.477C909.852 377.758 910.496 377.891 911.143 377.863H911.123ZM911.154 380.594C910.022 380.61 908.899 380.388 907.858 379.943C906.896 379.526 906.033 378.91 905.325 378.136C904.604 377.337 904.047 376.404 903.685 375.389C903.287 374.273 903.09 373.095 903.102 371.909C903.088 370.729 903.286 369.555 903.685 368.445C904.05 367.436 904.607 366.508 905.325 365.713C906.033 364.939 906.896 364.323 907.858 363.906C909.961 363.038 912.321 363.038 914.424 363.906C915.385 364.324 916.248 364.939 916.956 365.713C917.676 366.511 918.233 367.443 918.596 368.455C918.996 369.566 919.193 370.739 919.179 371.92C919.192 373.105 918.995 374.283 918.596 375.4C918.234 376.414 917.676 377.347 916.956 378.147C916.248 378.92 915.385 379.536 914.424 379.954C913.393 380.396 912.281 380.618 911.159 380.604L911.154 380.594ZM930.944 380.563C925.332 380.563 922.526 378.092 922.526 373.148V363.751H925.874V372.792C925.874 374.396 926.231 375.622 926.947 376.469C927.662 377.315 928.929 377.739 930.748 377.739C931.264 377.742 931.781 377.72 932.295 377.672C932.59 377.647 932.883 377.604 933.172 377.543V363.746H936.545V380.109C936.3 380.173 936.05 380.216 935.797 380.238L934.482 380.382C933.973 380.437 933.409 380.48 932.79 380.511C932.171 380.542 931.559 380.558 930.954 380.558L930.944 380.563ZM948.33 377.47C948.916 377.506 949.502 377.403 950.039 377.169C950.577 376.934 951.052 376.576 951.425 376.123C952.14 375.224 952.498 373.847 952.498 371.992C952.581 370.416 952.122 368.86 951.198 367.582C950.332 366.488 948.999 365.94 947.201 365.94C946.579 365.933 945.958 365.992 945.349 366.116C944.96 366.188 944.579 366.302 944.215 366.457V375.167C944.528 375.834 945.023 376.398 945.643 376.794C946.454 377.287 947.394 377.524 948.341 377.475L948.33 377.47ZM940.857 386.578V364.624L941.491 364.329C941.924 364.141 942.368 363.983 942.822 363.854C943.457 363.673 944.103 363.532 944.756 363.431C945.551 363.306 946.355 363.246 947.16 363.25C948.428 363.23 949.689 363.445 950.878 363.885C951.924 364.278 952.871 364.895 953.653 365.692C954.428 366.5 955.021 367.465 955.391 368.522C955.808 369.713 956.012 370.968 955.995 372.229C956.018 373.43 955.832 374.625 955.443 375.761C955.111 376.701 954.583 377.56 953.896 378.281C953.257 378.954 952.481 379.482 951.621 379.83C950.743 380.177 949.806 380.353 948.862 380.346C947.962 380.367 947.066 380.234 946.211 379.954C945.453 379.674 944.762 379.242 944.178 378.684V386.578H940.831H940.857Z" fill="#006CB7"/>
</g>
<rect x="1038" y="306" width="289" height="123" rx="36" fill="#F8F8FB"/>
<path d="M1114.89 339.505C1109.08 339.453 1103.6 342.375 1103.6 342.375C1103.6 342.375 1098.07 345.707 1096.06 350.7C1095.95 351.185 1085.01 372.325 1085.01 372.325C1071.13 368.33 1064.43 376.425 1064.64 379.549C1067.99 387.923 1084.38 381.967 1086.02 380.028C1086.92 379.544 1087.5 380.123 1087.5 380.123C1087.5 380.123 1091.52 382.784 1091.97 382.994C1092.43 383.204 1094.71 382.898 1094.71 382.898C1096.49 382.764 1099.66 379.296 1100.04 379.262C1100.64 379.264 1101.35 383.105 1103.79 383.042C1106.72 383.605 1109.89 380.315 1109.89 380.315C1110.31 379.726 1110.47 380.171 1110.47 380.171C1110.4 383.78 1113.34 383.143 1114.21 383.042C1117.11 381.869 1124.19 374.919 1123.39 376.966C1123.11 377.521 1120.94 381.559 1120.94 381.559C1120.7 382.634 1121.47 382.563 1121.47 382.563L1126.56 382.516C1127.43 381.997 1131.89 372.442 1131.36 373.76C1132.97 370.867 1136.6 369.837 1136.6 369.837C1136.95 369.734 1136.79 370.22 1136.79 370.22L1130.84 381.989C1130.73 382.301 1131.32 382.611 1131.32 382.611L1136.51 382.516C1137.2 382.448 1141.55 373.569 1141.55 373.569C1142.73 371.316 1146.93 370.029 1146.93 370.029C1147.7 369.892 1147.17 370.65 1147.17 370.65L1143.09 379.167C1142.47 383.033 1145.73 383.259 1147.12 383.09C1148.52 382.886 1150.78 382.104 1155.24 378.784C1156.15 378.093 1156.35 378.788 1156.35 378.927C1156.38 383.682 1161.63 383.138 1161.63 383.138C1163.2 383.524 1169.56 383.374 1174.89 372.803C1172.94 379.982 1176.91 381.937 1177.05 382.181C1177.19 382.423 1179.32 383.165 1180.13 382.994C1188.25 383.711 1191.65 371.129 1191.65 371.129C1193.48 369.764 1193.95 369.372 1194.68 368.976C1196.49 369.154 1196.98 369.205 1197.85 369.311C1198.55 369.556 1197.92 370.204 1197.71 370.411C1189.42 376.844 1193.06 381.805 1193.34 381.702C1196.96 386.606 1204.49 378.058 1205.92 377.923C1207.74 385.147 1213.27 382.002 1213.51 382.037C1213.03 383.459 1211.61 386.974 1210.39 389.261C1207.85 392.829 1203.86 388.831 1203.86 388.831L1202.85 388.783C1202.36 389.406 1202.66 390.123 1202.66 390.123C1203.7 391.792 1205.04 394.101 1209.19 394.668C1213.37 394.853 1215.77 390.266 1215.77 390.266C1215.77 390.266 1221.63 379.493 1222.02 378.21C1223.79 376.618 1226.87 374.32 1229.17 372.66C1230.67 372.352 1225.42 380.872 1225.04 382.085C1224.94 382.779 1225.19 382.803 1225.19 382.803C1225.19 382.803 1229.18 383 1229.94 382.898C1230.71 382.796 1234.43 373.987 1235.76 372.325C1236.9 370.419 1240.61 368.641 1240.61 368.641C1241.41 368.47 1241.14 369.407 1241.14 369.407L1236.24 379.262C1235.05 383.388 1238.38 383.41 1238.97 383.377C1240.58 383.276 1246.56 379.836 1246.56 379.836C1247.4 379.214 1247.38 380.219 1247.38 380.219C1247.31 381.538 1248.74 383.699 1249.93 383.425C1254.18 383.818 1260.61 376.784 1260.78 377.444C1260.82 377.583 1258.38 382.372 1258.38 382.372C1258.49 382.754 1258.91 382.946 1258.91 382.946C1258.91 382.946 1263.03 382.991 1264 382.994C1264.98 382.997 1269.42 372.434 1270.39 371.847C1272.38 369.805 1274.55 369.611 1274.62 369.646C1275.35 369.613 1270.48 377.367 1270.2 378.927C1269.12 383.402 1272.31 383.329 1272.31 383.329C1274.86 383.718 1281.1 379.311 1281.2 379.693C1281.93 378.967 1282.02 379.836 1282.02 379.836V380.171C1282.44 383.783 1284.56 383.377 1284.56 383.377C1287 384.008 1296.52 376.057 1296.52 376.057L1295.08 374.478L1289.13 378.784C1288.64 379.026 1288.36 378.497 1288.36 378.497L1295.04 365.675C1295.35 365.363 1294.89 365.005 1294.89 365.005H1288.89C1288.47 365.455 1288.21 365.77 1288.21 365.77L1282.79 376.296L1276.83 379.214C1276.2 379.386 1276.35 378.736 1276.35 378.736C1276.35 378.736 1281.31 369.036 1281.73 367.684C1282.01 367.06 1281.87 366.058 1281.87 366.058C1280.23 362.27 1273.6 367.174 1272.7 367.206C1272.66 367.24 1273.51 365.483 1273.51 365.483C1273.76 364.963 1273.27 364.957 1273.27 364.957L1267.7 364.909C1267.7 364.909 1267.72 364.515 1267.51 364.861C1267.3 365.208 1263.71 371.894 1263.71 371.894L1254.73 378.64C1253.96 378.778 1254.15 378.257 1254.15 378.257L1260.74 365.579L1260.78 365.053L1254.44 364.909L1249.21 374.956C1248.93 375.268 1243.44 378.353 1243.44 378.353C1242.6 378.595 1242.58 377.875 1242.58 377.875L1247.43 368.498C1248.53 364.839 1244.52 363.764 1242.53 364.479C1241.19 364.961 1239.93 365.388 1239.93 365.388C1239.93 365.388 1239.54 365.49 1239.89 365.005C1240.48 364.174 1246.61 352.087 1246.61 352.087C1246.75 351.74 1246.42 351.513 1246.42 351.513L1240.85 351.465C1240.39 351.672 1240.32 351.992 1240.32 351.992L1232.39 366.967L1225.86 371.847C1225.44 372.123 1225.43 371.655 1225.43 371.655L1228.69 365.483V364.861L1222.83 364.814L1221.87 365.579C1221.21 364.189 1217.84 364.205 1217.74 364.24C1210.7 364.011 1206.74 373.952 1206.74 373.952C1202.82 377.334 1201.01 378.386 1199.73 378.592C1198.65 378.652 1198.33 377.779 1198.33 377.779C1196.84 373.228 1206.21 368.928 1206.21 368.928C1206.52 368.755 1207.87 364.718 1207.7 364.718C1207.53 364.718 1196.18 364.705 1196.07 364.67C1195.45 364.426 1192.42 367.266 1191.51 367.923C1188.86 360.176 1178.57 366.035 1177.15 369.502C1176.53 369.665 1176.26 369.552 1175.95 369.55C1176.05 366.913 1175.7 365.269 1174.02 364.431C1173.12 363.943 1169.41 364.431 1169.41 364.431L1175.71 351.944C1176.02 351.563 1175.42 351.178 1175.42 351.178H1169.75C1169.5 351.317 1169.22 351.657 1169.22 351.657C1169.22 351.657 1158.51 372.316 1157.88 373.425C1157.26 374.534 1149.43 378.688 1149.43 378.688C1149.5 377.925 1154.54 369.193 1154.71 367.493C1154.92 363.086 1149.86 364.479 1149.86 364.479C1149.86 364.479 1147 366.372 1144.38 367.684C1143.82 362.858 1139.58 364.527 1139.58 364.527L1134.78 367.636L1135.64 365.388L1135.83 364.527L1130.07 364.383C1129.41 364.867 1128.24 367.493 1128.24 367.493L1126.42 370.842L1118.2 377.014C1117.4 377.462 1117.82 376.392 1117.82 376.392C1117.82 376.392 1123.36 365.558 1123.49 365.483C1123.94 365.206 1123.58 364.527 1123.58 364.527L1118.01 364.479C1118.01 364.479 1117.07 366.075 1116.86 366.249C1114.21 362.527 1105.46 364.038 1100.76 375.052C1100.16 375.788 1099.7 376.304 1099.37 376.44C1093.87 382.845 1090.72 376.487 1090.72 376.487L1100.57 357.781C1100.57 357.781 1105.05 347.797 1107.87 344.959C1115.01 340.154 1117.05 344.672 1117.05 344.672C1117.67 346.096 1119.55 351.235 1109.84 353.714C1108.57 353.839 1108.98 354.432 1108.98 354.432C1111.8 356.834 1115.27 356.585 1115.27 356.585C1118.69 357.253 1127.94 352.181 1124.59 344.05C1121.98 340.646 1118.37 339.536 1114.89 339.505ZM1261.46 352.183C1256.37 352.377 1256.07 359.177 1261.26 359.886C1266.32 360.039 1267.28 352.408 1261.46 352.183ZM1296.09 352.183C1290.59 352.203 1291 359.941 1296.19 359.886C1301.38 359.484 1300.94 352.37 1296.09 352.183ZM1114.31 366.68C1115.94 366.717 1115.65 368.66 1115.37 369.024C1115.54 369.614 1112.53 374.669 1112.53 374.669C1109.05 378.998 1107.39 378.21 1107.39 378.21C1107.39 378.21 1106.2 378.045 1107.1 375.722C1108.08 374.093 1109.97 369.856 1111.96 367.397C1113 366.862 1113.77 366.667 1114.31 366.68ZM1168.93 367.158C1170.64 367.371 1169.8 368.928 1169.8 368.928L1165.09 378.162C1163.59 379.997 1162.21 379.358 1162.21 379.358C1161.44 378.8 1162.73 376.679 1162.73 376.679L1167.15 368.067C1168.02 367.167 1168.93 367.158 1168.93 367.158ZM1217.93 367.206C1219.26 366.97 1219.81 368.067 1219.81 368.067C1219.81 368.067 1219.88 368.243 1219.71 369.215C1219.33 370.707 1215.19 377.827 1215.19 377.827C1213.45 379.558 1211.93 379.214 1211.93 379.214C1211.06 378.969 1211.4 377.683 1211.4 377.683C1211.4 377.683 1214.75 370.848 1216.35 367.971C1216.97 367.513 1217.49 367.284 1217.93 367.206ZM1185.89 367.254C1186.63 367.13 1187.33 367.432 1187.19 368.976C1186.32 370.813 1182.89 377.562 1182.19 378.497C1182.05 379.295 1178.55 380.596 1179.45 377.683C1179.45 377.683 1184.37 368.531 1184.4 368.115C1184.42 367.907 1185.15 367.377 1185.89 367.254ZM1075.25 374.765C1078.13 374.697 1080.73 375.626 1080.73 375.626C1080.73 375.626 1080.06 377.856 1073.72 378.88C1070.72 378.698 1069.15 378.712 1069.15 377.636C1070.62 375.468 1073.02 374.818 1075.25 374.765Z" fill="#F9CE5C"/>
<rect x="1351" y="306" width="289" height="123" rx="36" fill="#F8F8FB"/>
</g>
<defs>
<linearGradient id="paint0_linear_635_267" x1="1153.47" y1="25.6029" x2="1153.47" y2="97.0284" gradientUnits="userSpaceOnUse">
<stop stop-color="#F79710"/>
<stop offset="1" stop-color="#F8330E"/>
</linearGradient>
</defs>
</svg>
