<svg width="449" height="300" viewBox="0 0 449 300" fill="none" xmlns="http://www.w3.org/2000/svg">
<g clip-path="url(#clip0_635_205)">
<mask id="mask0_635_205" style="mask-type:luminance" maskUnits="userSpaceOnUse" x="0" y="0" width="450" height="300">
<path d="M417.353 0H31.7647C14.2215 0 0 14.2215 0 31.7647V268.235C0 285.778 14.2215 300 31.7647 300H417.353C434.896 300 449.118 285.778 449.118 268.235V31.7647C449.118 14.2215 434.896 0 417.353 0Z" fill="white"/>
</mask>
<g mask="url(#mask0_635_205)">
<path d="M449.118 0H0V300H449.118V0Z" fill="#8461FF"/>
<path fill-rule="evenodd" clip-rule="evenodd" d="M303.324 114.108L309.121 121.799C310.198 123.262 310.062 125.287 308.796 126.584L297.613 137.765C296.339 139.07 294.295 139.233 292.825 138.145L285.088 132.333C283.153 133.068 281.148 133.609 279.106 133.953L275.325 142.786C274.61 144.466 272.761 145.355 271.001 144.867L255.728 140.758C253.953 140.288 252.802 138.577 253.038 136.76L254.153 127.245C252.547 125.926 251.077 124.45 249.767 122.837L240.209 123.986C238.382 124.168 236.692 122.991 236.226 121.215L232.123 106C231.657 104.233 232.545 102.393 234.214 101.66L243.074 97.9087C243.378 95.8496 243.915 93.8317 244.679 91.8963L238.882 84.2028C237.781 82.7261 237.934 80.667 239.241 79.3749L250.388 68.2406C251.661 66.9341 253.707 66.7728 255.176 67.8606L262.903 73.667C264.84 72.9323 266.845 72.3893 268.887 72.047L272.668 63.2137C273.379 61.5363 275.223 60.6474 276.981 61.1313L292.254 65.2388C294.036 65.703 295.196 67.4162 294.966 69.2406L293.845 78.7602C295.451 80.0756 296.919 81.5523 298.227 83.1652L307.787 82.0164C309.614 81.8354 311.303 83.011 311.769 84.787L315.876 99.9983C316.342 101.764 315.457 103.604 313.788 104.341L304.929 108.095C304.622 110.154 304.085 112.17 303.324 114.108ZM257.39 98.5342C254.944 107.695 260.395 117.122 269.564 119.588C278.729 122.043 288.137 116.618 290.592 107.464C293.038 98.303 287.587 88.8766 278.418 86.4106C269.251 83.9447 259.836 89.3712 257.39 98.5342Z" fill="#FFBF00"/>
<rect x="129" y="164" width="83" height="83" rx="5" fill="white"/>
<rect x="129" y="68" width="83" height="83" rx="5" fill="white"/>
<rect x="227" y="164" width="83" height="83" rx="5" fill="white"/>
<rect x="135" y="157" width="83" height="83" rx="5" fill="white" fill-opacity="0.23"/>
<rect x="135" y="61" width="83" height="83" rx="5" fill="white" fill-opacity="0.23"/>
<rect x="233" y="157" width="83" height="83" rx="5" fill="white" fill-opacity="0.23"/>
</g>
</g>
<defs>
<clipPath id="clip0_635_205">
<rect width="449" height="300" rx="36" fill="white"/>
</clipPath>
</defs>
</svg>
