<svg width="449" height="300" viewBox="0 0 449 300" fill="none" xmlns="http://www.w3.org/2000/svg">
<g clip-path="url(#clip0_635_165)">
<mask id="mask0_635_165" style="mask-type:luminance" maskUnits="userSpaceOnUse" x="0" y="0" width="450" height="300">
<path d="M417.353 0H31.7647C14.2215 0 0 14.2215 0 31.7647V268.235C0 285.778 14.2215 300 31.7647 300H417.353C434.896 300 449.118 285.778 449.118 268.235V31.7647C449.118 14.2215 434.896 0 417.353 0Z" fill="white"/>
</mask>
<g mask="url(#mask0_635_165)">
<path d="M449.118 0H0V300H449.118V0Z" fill="#FFCC33"/>
<path d="M337.723 91.7061H111.982C104.877 91.7061 99.1172 97.4658 99.1172 104.571V234.135C99.1172 241.24 104.877 247 111.982 247H337.723C344.828 247 350.588 241.24 350.588 234.135V104.571C350.588 97.4658 344.828 91.7061 337.723 91.7061Z" fill="white" fill-opacity="0.34"/>
<path d="M350.412 52H99.2941C91.3997 52 85 58.3997 85 66.2941V214.176C85 222.071 91.3997 228.471 99.2941 228.471H350.412C358.306 228.471 364.706 222.071 364.706 214.176V66.2941C364.706 58.3997 358.306 52 350.412 52Z" fill="white"/>
<path d="M167.765 210.294L335.642 210.294C337.885 210.294 339.703 208.503 339.703 206.294C339.703 204.085 337.885 202.294 335.642 202.294L167.765 202.294C165.522 202.294 163.703 204.085 163.703 206.294C163.703 208.503 165.522 210.294 167.765 210.294Z" fill="#F6F6F6"/>
<path d="M240.769 191.294L335.637 191.294C337.883 191.294 339.703 189.503 339.703 187.294C339.703 185.085 337.883 183.294 335.637 183.294L240.769 183.294C238.523 183.294 236.703 185.085 236.703 187.294C236.703 189.503 238.523 191.294 240.769 191.294Z" fill="#F6F6F6"/>
<path d="M240.769 172.294L335.637 172.294C337.883 172.294 339.703 170.503 339.703 168.294C339.703 166.085 337.883 164.294 335.637 164.294L240.769 164.294C238.523 164.294 236.703 166.085 236.703 168.294C236.703 170.503 238.523 172.294 240.769 172.294Z" fill="#F6F6F6"/>
<path d="M129.839 119.837C129.699 119.91 129.543 119.962 129.373 119.985C128.612 120.092 127.883 119.602 127.743 118.892L127.023 115.23C126.917 114.693 127.179 114.164 127.68 113.9L132.881 111.164C133.543 110.815 134.403 111.041 134.801 111.669C135.198 112.297 134.983 113.088 134.321 113.437L129.951 115.736L130.496 118.507C130.605 119.059 130.325 119.581 129.839 119.837Z" fill="#FFCC33"/>
<path d="M131.359 108.804C131.175 108.907 130.963 108.965 130.734 108.967L125.406 109C124.924 109.004 124.471 108.748 124.223 108.333L122.188 104.929C121.813 104.302 122.016 103.512 122.64 103.164C123.265 102.815 124.075 103.041 124.449 103.668L126.083 106.4L130.63 106.371C131.358 106.366 131.971 106.943 131.999 107.66C132.019 108.151 131.759 108.581 131.359 108.804Z" fill="#FFCC33"/>
<path d="M136.315 124.817C136.201 124.899 136.073 124.957 135.934 124.984C135.314 125.103 134.719 124.553 134.606 123.756L134.019 119.642C133.947 119.136 134.085 118.628 134.384 118.302L137.102 115.336C137.574 114.821 138.295 114.908 138.713 115.529C139.131 116.15 139.087 117.07 138.616 117.585L136.38 120.025L136.85 123.324C136.938 123.943 136.711 124.529 136.315 124.817Z" fill="#FFCC33"/>
<path d="M158.224 104.142C157.689 104.437 157.006 104.415 156.514 104.037L154.041 102.138L149.239 104.797C148.511 105.201 147.594 104.984 147.19 104.313C146.786 103.642 147.049 102.771 147.777 102.368L153.492 99.2027C154.042 98.8984 154.723 98.9396 155.202 99.3069L158.471 101.817C159.104 102.303 159.18 103.195 158.64 103.808C158.519 103.945 158.378 104.056 158.224 104.142Z" fill="#FFCC33"/>
<path d="M146.606 100.809C146.081 101.066 145.408 101.072 144.846 100.774C144.027 100.337 143.755 99.4169 144.241 98.7188L147.272 94.3526L145.155 91.2226C144.669 90.5041 144.939 89.5948 145.758 89.1914C146.577 88.7881 147.634 89.0427 148.12 89.7612L150.759 93.6623C151.08 94.1374 151.081 94.7204 150.759 95.1823L147.208 100.298C147.055 100.518 146.847 100.69 146.606 100.809Z" fill="#FFCC33"/>
<path d="M157.735 111.698L155.278 109.788L151.856 110.911C151.134 111.148 150.34 110.786 150.082 110.103C149.823 109.421 150.199 108.674 150.921 108.438L155.08 107.072C155.537 106.922 156.047 107.009 156.424 107.302L159.488 109.685C160.083 110.147 160.172 110.972 159.688 111.528C159.58 111.652 159.452 111.753 159.312 111.828C158.827 112.091 158.197 112.056 157.735 111.698Z" fill="#FFCC33"/>
<path d="M133.346 99.8381C133.056 99.9928 132.702 100.045 132.353 99.9585L129.97 99.37C129.272 99.1982 128.857 98.5366 129.045 97.8939C129.232 97.2505 129.949 96.8687 130.647 97.0416L133.03 97.6296C133.728 97.802 134.142 98.463 133.955 99.1063C133.862 99.4277 133.635 99.684 133.346 99.8381Z" fill="#DC0032"/>
<path d="M138.809 96.7891C138.541 96.9906 138.215 97.0582 137.894 96.946C137.251 96.7215 136.869 95.8607 137.041 95.0237L137.63 92.164C137.802 91.3263 138.463 90.829 139.106 91.0542C139.749 91.278 140.131 92.1387 139.959 92.9765L139.37 95.8362C139.284 96.2547 139.076 96.5884 138.809 96.7891Z" fill="#DC0032"/>
<path fill-rule="evenodd" clip-rule="evenodd" d="M148 100.046C147.578 99.5613 147.536 98.8732 147.065 98.4453C143.277 95.0031 138.609 94.0443 135.174 96.0042C131.739 97.9634 130.245 102.437 131.368 107.4C131.508 108.016 132.091 108.396 132.304 109L148 100.046Z" fill="#DC0032"/>
<path fill-rule="evenodd" clip-rule="evenodd" d="M146.238 99.3002L133.1 107.023C132.201 107.552 131.784 108.651 132.111 109.655C132.452 110.699 132.903 111.718 133.46 112.7C135.137 115.658 137.591 117.941 140.367 119.128C143.273 120.371 146.191 120.282 148.581 118.877C150.97 117.473 152.505 114.945 152.901 111.761C153.279 108.719 152.565 105.414 150.887 102.457C150.33 101.474 149.689 100.567 148.971 99.7439C148.281 98.9536 147.137 98.772 146.238 99.3002Z" fill="#FFCC33"/>
</g>
<g clip-path="url(#clip1_635_165)">
<path d="M169.941 131.182L174.07 135.296L165.666 142.659L162.068 137.997C142.997 150.277 119.289 143.168 108.563 126.684C98.2676 110.881 101.136 89.4571 115.485 76.9243C129.945 64.3 151.505 64.2842 166.055 76.6459C180.56 88.9509 185.359 113.374 169.941 131.182ZM169.391 107.604C169.754 101.987 168.441 96.3879 165.617 91.5152C162.793 86.6424 158.586 82.7144 153.527 80.2276C148.468 77.7409 142.784 76.807 137.194 77.5442C131.604 78.2813 126.359 80.6563 122.122 84.369C117.884 88.0817 114.845 92.9653 113.388 98.4025C111.931 103.84 112.122 109.586 113.937 114.916C115.751 120.246 119.107 124.919 123.582 128.346C128.056 131.772 133.447 133.798 139.074 134.166C154.79 135.191 168.429 123.238 169.391 107.604Z" fill="#BF0000"/>
<path d="M206.837 166.861C206.78 167.542 206.59 168.205 206.277 168.812C205.963 169.419 205.533 169.959 205.01 170.4C202.352 172.743 199.707 175.109 196.996 177.398C194.457 179.527 191.234 179.156 189.194 176.558C182.053 167.455 174.919 158.345 167.793 149.229C166.502 147.575 166.613 146.471 168.192 145.082C170.969 142.644 173.751 140.211 176.538 137.781C178.087 136.432 179.179 136.44 180.624 137.888C188.827 146.108 197.022 154.329 205.211 162.552C205.789 163.102 206.236 163.775 206.517 164.521C206.799 165.267 206.908 166.067 206.837 166.861Z" fill="#BF0000"/>
</g>
</g>
<defs>
<clipPath id="clip0_635_165">
<rect width="449" height="300" rx="36" fill="white"/>
</clipPath>
<clipPath id="clip1_635_165">
<rect width="108.236" height="107.815" fill="white" transform="translate(104.992 65) rotate(3.71824)"/>
</clipPath>
</defs>
</svg>
