<svg width="449" height="300" viewBox="0 0 449 300" fill="none" xmlns="http://www.w3.org/2000/svg">
<g clip-path="url(#clip0_635_233)">
<mask id="mask0_635_233" style="mask-type:luminance" maskUnits="userSpaceOnUse" x="0" y="0" width="450" height="300">
<path d="M417.353 0H31.7647C14.2215 0 0 14.2215 0 31.7647V268.235C0 285.778 14.2215 300 31.7647 300H417.353C434.896 300 449.118 285.778 449.118 268.235V31.7647C449.118 14.2215 434.896 0 417.353 0Z" fill="white"/>
</mask>
<g mask="url(#mask0_635_233)">
<path d="M449.118 0H0V300H449.118V0Z" fill="#074EDC"/>
</g>
<g clip-path="url(#clip1_635_233)">
<path d="M280.184 191.941L284.935 194.772C270.081 221.073 221.945 244.543 176.748 212.466C173.993 214.916 171.282 217.57 168.288 219.852C167.676 220.302 166.98 220.624 166.241 220.799C165.502 220.974 164.736 220.998 163.988 220.87C163.193 220.64 162.504 218.543 162.478 217.269C162.319 209.935 162.407 202.602 162.336 195.268C162.336 192.614 163.467 190.756 166.143 191.066C173.525 191.906 180.881 192.994 188.22 194.224C189.553 194.445 191.443 195.613 191.752 196.683C192.061 197.754 190.772 199.443 189.783 200.478C187.372 203.017 184.731 205.335 181.835 208.069C197.739 219.622 215.189 223.878 234.423 220.843C253.656 217.809 268.774 207.75 280.184 191.941ZM168.527 211.404L181.985 199.488L168.545 197.718L168.527 211.404Z" fill="#7EA3ED"/>
<path d="M162.557 103.511C179.733 80.2712 202.729 69.2307 231.482 71.23C244.404 72.2199 256.791 76.8169 267.238 84.4999C269.887 86.3754 271.591 86.7027 273.852 84.1195C275.752 82.0868 277.849 80.2494 280.113 78.6346C282.718 76.6618 285.094 77.688 285.182 80.979C285.385 88.7551 285.465 96.5401 285.182 104.307C285.182 105.484 282.886 107.634 281.8 107.545C273.94 106.926 266.099 105.979 258.301 104.829C255.405 104.405 254.769 101.397 257.029 99.1321C259.679 96.4781 262.602 94.0719 265.86 91.1702C259.113 85.6411 251.908 82.3856 244.207 80.0678C231.039 76.0571 216.971 76.1176 203.838 80.2415C190.705 84.3654 179.119 92.361 170.593 103.184C167.176 107.528 167.176 107.528 162.557 103.511ZM279.124 87.5873C274.841 91.3914 271.238 94.5761 267.644 97.7963C267.176 98.3975 266.779 99.0505 266.461 99.7425L279.124 101.123V87.5873Z" fill="#7EA3ED"/>
<path d="M225.662 105.334C228.772 105.3 231.858 105.884 234.741 107.052C237.625 108.221 240.248 109.951 242.46 112.142C244.671 114.333 246.427 116.941 247.626 119.816C248.825 122.691 249.443 125.776 249.443 128.892C249.655 141.021 240.383 153.14 225.653 153.078C210.12 153.008 201.625 140.242 201.881 128.883C202.19 115.622 212.363 105.325 225.662 105.334ZM225.742 146.824C228.082 146.835 230.401 146.378 232.562 145.479C234.724 144.58 236.685 143.258 238.33 141.591C239.975 139.923 241.271 137.943 242.142 135.767C243.013 133.591 243.442 131.263 243.403 128.918C243.362 124.252 241.499 119.788 238.213 116.481C234.927 113.174 230.479 111.288 225.821 111.225C216.169 111.225 207.841 119.479 207.85 129.051C207.847 131.399 208.308 133.724 209.208 135.892C210.107 138.059 211.428 140.027 213.092 141.68C214.756 143.333 216.731 144.639 218.902 145.522C221.073 146.405 223.398 146.847 225.742 146.824Z" fill="#CDDCF8"/>
<path d="M258.752 183.555C257.321 172.001 251.457 165.083 241.01 162.323C239.41 162.06 237.77 162.438 236.445 163.376C233.755 165.396 231.214 167.607 228.842 169.993C226.599 172.161 224.603 172.054 222.395 169.993C220.187 167.932 217.618 166.092 215.551 163.801C213.485 161.509 211.515 161.607 208.946 162.659C200.468 166.145 194.189 171.409 192.706 181.122C192.564 182.06 190.569 183.431 189.571 183.325C188.943 183.099 188.384 182.713 187.949 182.206C187.514 181.699 187.218 181.088 187.089 180.432C187.504 171.683 192.388 165.561 199.294 160.775C200.018 160.28 200.804 159.89 201.563 159.439C211.277 153.813 213.926 154.069 222.236 161.492L225.601 164.464C228.356 162.084 230.899 159.51 233.857 157.484C235.482 156.361 237.911 155.281 239.659 155.653C252.022 158.307 264.386 167.277 264.668 183.157L258.752 183.555Z" fill="#CDDCF8"/>
<path d="M295.408 150.062C286.03 150.115 279.336 143.48 279.345 134.138C279.296 132.049 279.668 129.972 280.438 128.03C281.208 126.088 282.36 124.322 283.826 122.836C285.292 121.35 287.042 120.175 288.971 119.381C290.901 118.587 292.97 118.19 295.055 118.214C303.886 118.135 311.498 125.53 311.472 134.209C311.445 142.737 304.054 150.009 295.408 150.062ZM304.99 134.041C305 132.722 304.741 131.415 304.228 130.201C303.716 128.986 302.961 127.89 302.01 126.978C301.059 126.067 299.931 125.36 298.697 124.901C297.463 124.442 296.149 124.241 294.834 124.309C292.252 124.401 289.807 125.498 288.018 127.366C286.229 129.234 285.237 131.726 285.253 134.315C285.331 136.977 286.457 139.499 288.384 141.334C290.311 143.168 292.883 144.165 295.541 144.108C298.118 144.004 300.552 142.892 302.319 141.009C304.086 139.126 305.045 136.624 304.99 134.041Z" fill="#7EA4ED"/>
<path d="M155.493 150.062C146.309 150.088 139.597 143.542 139.465 134.501C139.376 125.265 146.176 118.276 155.29 118.258C163.997 118.258 171.503 125.424 171.618 133.89C171.741 142.604 164.324 150.044 155.493 150.062ZM155.272 124.318C153.304 124.316 151.38 124.902 149.747 126.001C148.114 127.101 146.846 128.664 146.105 130.49C145.364 132.316 145.184 134.322 145.588 136.251C145.992 138.181 146.962 139.945 148.374 141.318C149.785 142.692 151.574 143.612 153.511 143.961C155.447 144.31 157.444 144.071 159.244 143.276C161.045 142.481 162.568 141.165 163.617 139.498C164.667 137.831 165.196 135.887 165.136 133.917C165.076 131.335 164.003 128.88 162.151 127.084C160.298 125.288 157.815 124.294 155.237 124.318H155.272Z" fill="#7EA4ED"/>
<path d="M295.629 157.44C299.859 151.424 305.299 151.946 310.977 154.379C317.635 157.219 320.47 162.774 321 169.613C321.07 170.577 319.234 172.629 318.527 172.523C317.247 172.329 315.313 171.055 315.11 169.958C314.226 165.03 312.407 161.253 307.162 159.43C302.967 157.962 300.865 160.554 298.552 162.863C296.238 165.172 294.136 165.791 291.911 163.084C289.191 159.82 286.348 157.705 281.8 159.952C277.481 162.084 275.574 165.446 275.406 170.073C275.406 170.78 275.283 171.497 275.194 172.461H269.551C268.28 166.782 271.264 159.519 276.236 156.139C282.912 151.628 287.434 151.858 295.629 157.44Z" fill="#7EA4ED"/>
<path d="M155.598 157.475C160.349 151.185 166.195 151.866 172.112 154.874C179.053 158.413 181.137 164.712 181.384 171.948C175.953 173.496 175.733 173.355 174.77 168.011C174.002 163.774 171.644 161.067 167.529 159.492C163.414 157.918 161.144 160.085 158.883 162.677C156.376 165.561 153.982 165.57 151.616 162.677C149.249 159.784 146.662 157.926 142.617 159.669C138.573 161.412 135.853 164.402 135.72 168.896C135.623 172.054 134.396 173.151 131.455 172.718C128.126 172.231 128.903 169.745 129.689 168.029C131.455 164.137 132.762 159.545 135.72 156.838C141.866 151.176 147.916 151.734 155.598 157.475Z" fill="#7EA4ED"/>
</g>
</g>
<defs>
<clipPath id="clip0_635_233">
<rect width="449" height="300" rx="36" fill="white"/>
</clipPath>
<clipPath id="clip1_635_233">
<rect width="192" height="157" fill="white" transform="translate(129 71)"/>
</clipPath>
</defs>
</svg>
