<svg width="449" height="300" viewBox="0 0 449 300" fill="none" xmlns="http://www.w3.org/2000/svg">
<g clip-path="url(#clip0_635_65)">
<mask id="mask0_635_65" style="mask-type:luminance" maskUnits="userSpaceOnUse" x="0" y="0" width="450" height="300">
<path d="M417.353 0H31.7647C14.2215 0 0 14.2215 0 31.7647V268.235C0 285.778 14.2215 300 31.7647 300H417.353C434.896 300 449.118 285.778 449.118 268.235V31.7647C449.118 14.2215 434.896 0 417.353 0Z" fill="white"/>
</mask>
<g mask="url(#mask0_635_65)">
<path d="M449.118 0H0V300H449.118V0Z" fill="#07D2E0"/>
<path opacity="0.546917" fill-rule="evenodd" clip-rule="evenodd" d="M471.173 221.901C471.173 221.901 471.173 273.413 471.173 293.049C471.173 312.685 449.031 312.421 449.031 312.421C449.031 312.421 15.7746 312.421 -3.40382 312.421C-22.5822 312.421 -22.9453 293.049 -22.9453 293.049V238.128C-22.9453 238.128 22.0533 203.057 62.1563 235.658C76.8741 245.706 82.127 270.105 104.11 259.344C110.078 256.554 125.568 238.67 149.456 263.386C149.765 263.64 160.793 271.805 173.857 266.832C187.82 261.517 200.166 242.516 210.901 214.532C225.87 162.154 221.238 149.538 222.922 137.779C226.423 137.729 236.313 137.679 236.313 137.679C236.313 137.679 245.026 237.731 271.318 257.256C297.61 276.782 316.25 259.344 316.25 259.344C316.25 259.344 332.606 241.973 354.699 257.256C376.792 272.539 388.661 234.923 412.427 221.901C436.191 208.88 471.173 221.901 471.173 221.901Z" fill="white"/>
<path opacity="0.244359" fill-rule="evenodd" clip-rule="evenodd" d="M-22.9414 289.751C-22.9414 271.1 -22.9414 271.21 -22.9414 271.21C-22.9414 271.21 3.83219 260.342 21.1122 271.21C21.1846 271.345 37.684 216.961 91.8852 237.164C91.7502 237.333 124.001 183.861 177.144 220.88C177.173 220.721 194.797 175.47 243.926 192.834C255.089 196.241 282.82 215.786 282.82 237.164C282.885 237.325 300.741 226.059 308.018 247.661C308.018 247.661 326.033 218.497 362.241 226.059C366.973 227.065 392.764 235.351 401.285 260.779C402.057 262.744 454.777 223.282 471.129 288.124C471.129 291.123 473.248 313.96 448.102 312.342C419.83 312.346 12.3149 312.338 -0.987028 312.338C-14.289 312.338 -22.9414 308.402 -22.9414 289.751Z" fill="white"/>
<path opacity="0.244359" fill-rule="evenodd" clip-rule="evenodd" d="M-22 274.31C-22 253.177 -22 253.301 -22 253.301C-22 253.301 4.76738 240.987 22.0434 253.301C22.1158 253.454 38.6113 191.833 92.7999 214.725C92.6649 214.916 124.908 154.328 178.039 196.274C178.068 196.093 195.687 144.821 244.805 164.495C255.966 168.355 283.691 190.501 283.691 214.725C283.755 214.907 301.607 202.141 308.882 226.619C308.882 226.619 326.893 193.573 363.093 202.141C367.824 203.281 393.609 212.67 402.128 241.482C402.9 243.709 455.607 198.995 471.956 272.466C471.956 275.864 474.074 301.74 448.934 299.907C420.669 299.911 13.2482 299.902 -0.0507202 299.902C-13.3496 299.902 -22 295.442 -22 274.31Z" fill="white"/>
<g clip-path="url(#clip1_635_65)">
<path d="M226.034 34.7057C226.453 34.407 226.859 34.09 227.292 33.8163C228.245 33.2146 229.366 32.9328 230.491 33.012C231.616 33.0911 232.686 33.527 233.546 34.2564C237.552 37.6519 241.065 41.5195 244.326 45.6287C249.457 52.1096 253.639 59.1491 256.507 66.9321C259.843 75.9806 260.907 85.3735 260.718 94.9443C260.603 102.355 259.463 109.713 257.332 116.811C257.273 117.007 257.214 117.203 257.179 117.31L203.713 117.525C203.301 116.042 202.779 114.38 202.378 112.686C199.208 99.2953 199.035 85.8798 202.357 72.4962C204.196 65.0895 207.407 58.2347 211.665 51.9271C214.115 48.2785 216.961 44.9081 219.624 41.4077C219.832 41.1364 220.021 40.8513 220.219 40.5731C222.156 38.6165 224.094 36.6607 226.034 34.7057ZM219.387 88.6915C221.558 90.8537 224.321 92.3229 227.327 92.9132C230.332 93.5035 233.445 93.1884 236.272 92.0078C239.098 90.8272 241.511 88.8341 243.206 86.2806C244.9 83.7272 245.8 80.7281 245.791 77.6628C245.782 74.5976 244.865 71.6038 243.156 69.0603C241.446 66.5168 239.022 64.5378 236.188 63.3737C233.355 62.2096 230.24 61.9127 227.238 62.5205C224.236 63.1283 221.482 64.6136 219.323 66.7884C217.882 68.2258 216.739 69.9348 215.961 71.8169C215.183 73.6989 214.786 75.7166 214.791 77.7533C214.797 79.79 215.207 81.8053 215.995 83.6827C216.784 85.5602 217.937 87.2626 219.387 88.6915Z" fill="white" fill-opacity="0.99"/>
<path d="M191.874 141.658C191.459 140.29 190.951 138.933 190.65 137.535C189.488 132.158 188.422 126.758 187.26 121.381C186.619 118.419 187.137 115.801 189.137 113.498C191.003 111.34 192.831 109.151 194.856 106.761C196.704 118.042 200.359 128.443 206.757 137.868L201.599 141.685C201.462 141.788 201.305 141.87 201.179 141.984C198.816 144.112 196.23 144.666 193.339 143.113L191.874 141.658Z" fill="white" fill-opacity="0.99"/>
<path d="M254.714 124.017C253.027 128.085 250.856 131.934 248.25 135.483C247.275 136.794 245.816 137.391 244.189 137.401C235.107 137.455 226.025 137.492 216.942 137.51C214.992 137.51 213.413 136.68 212.353 135.002C210.986 132.853 209.619 130.712 208.352 128.514C207.53 127.089 206.885 125.563 206.224 124.213L254.714 124.017Z" fill="white" fill-opacity="0.99"/>
<path d="M265.984 106.428C268.263 109.106 270.459 111.527 272.473 114.086C273.84 115.835 274.267 117.963 273.84 120.156C272.605 126.541 271.366 132.926 270.017 139.277C269.156 143.339 264.548 145.035 261.176 142.634C258.909 141.038 256.671 139.378 254.329 137.679C260.636 128.217 264.225 117.778 265.984 106.428Z" fill="white" fill-opacity="0.99"/>
<path d="M223.719 84.2561C221.99 82.5151 221.02 80.1603 221.02 77.7057C221.02 75.2512 221.99 72.8963 223.719 71.1553C227.342 67.5272 233.327 67.5318 236.902 71.1667C238.604 72.9227 239.545 75.2794 239.522 77.7254C239.498 80.1714 238.512 82.5096 236.777 84.2325C235.042 85.9554 232.698 86.9242 230.254 86.9286C227.81 86.933 225.462 85.9727 223.721 84.2561H223.719Z" fill="white" fill-opacity="0.99"/>
</g>
<path fill-rule="evenodd" clip-rule="evenodd" d="M228.471 161.814C228.576 160.535 230.694 160.556 230.787 161.835C231.925 177.496 234.136 200.668 237.856 213.455C243.827 233.988 249.748 246.98 259.122 257.91C265.092 264.872 272.162 268.267 276.51 269.814C277.148 270.042 277.032 271.326 276.358 271.392L258.425 273.149C249.51 274.023 240.51 272.957 232.044 270.026L221.866 266.502C217.473 264.98 212.753 264.655 208.193 265.56L193.888 268.398C192.708 268.632 191.194 264.812 192.125 264.05C197.58 259.587 204.081 252.577 209.378 241.948C220.818 218.989 226.926 178.472 226.926 178.472L228.471 161.814Z" fill="url(#paint0_linear_635_65)"/>
</g>
</g>
<defs>
<linearGradient id="paint0_linear_635_65" x1="189.659" y1="164.459" x2="187.663" y2="273.687" gradientUnits="userSpaceOnUse">
<stop stop-color="white"/>
<stop offset="1" stop-color="white" stop-opacity="0.181675"/>
</linearGradient>
<clipPath id="clip0_635_65">
<rect width="449" height="300" rx="36" fill="white"/>
</clipPath>
<clipPath id="clip1_635_65">
<rect width="87" height="111" fill="white" transform="translate(187 33)"/>
</clipPath>
</defs>
</svg>
