<svg width="449" height="300" viewBox="0 0 449 300" fill="none" xmlns="http://www.w3.org/2000/svg">
<g clip-path="url(#clip0_635_124)">
<mask id="mask0_635_124" style="mask-type:luminance" maskUnits="userSpaceOnUse" x="0" y="0" width="450" height="300">
<path d="M417.353 0H31.7647C14.2215 0 0 14.2215 0 31.7647V268.235C0 285.778 14.2215 300 31.7647 300H417.353C434.896 300 449.118 285.778 449.118 268.235V31.7647C449.118 14.2215 434.896 0 417.353 0Z" fill="white"/>
</mask>
<g mask="url(#mask0_635_124)">
<path d="M449.118 0H0V300H449.118V0Z" fill="#5856D6"/>
<path d="M296.797 67.8251V61H313.981V78.1601H307.182V221.784H314V238.981H296.843V232.175H153.25V239H136V221.831H142.828V78.2064H136V61H153.166V67.8251H296.797ZM296.797 72.1869H153.203V78.2434H147.274V221.895H153.231V227.813H296.824V221.757H302.753V78.1045H296.741L296.797 72.1869ZM149.053 74.0391V65.0654H140.076V74.0483L149.053 74.0391ZM300.984 74.0391H309.933V65.1025H300.984V74.0391ZM149.053 226.035H140.095V234.99H149.025L149.053 226.035ZM309.979 234.962V226.026H300.975V234.962H309.979Z" fill="#7EA3ED"/>
<path d="M234.669 118.051C236.302 118.735 237.837 119.633 239.233 120.721C244.482 125.753 249.582 130.99 254.626 136.171C257.695 139.354 257.729 142.96 254.751 146.212C253.315 147.567 251.79 148.825 250.187 149.977C249.693 150.354 249.282 150.828 248.978 151.369C246.338 156.466 243.725 161.578 241.139 166.705C240.371 168.207 239.281 169.52 237.945 170.55C236.609 171.58 235.062 172.301 233.414 172.661C221.144 175.894 208.886 179.123 196.639 182.348C193.079 183.284 191.207 181.378 192.154 177.784C195.418 165.37 198.738 152.967 202.013 140.552C202.473 138.902 203.298 137.376 204.428 136.088C205.558 134.8 206.963 133.783 208.54 133.113C213.572 130.694 218.683 128.457 223.727 126.05C224.42 125.598 224.992 124.983 225.393 124.258C227.469 121.189 229.706 118.428 234.669 118.051ZM201.009 168.485L201.431 168.644C204.306 165.769 207.136 162.837 210.057 160.018C210.633 159.618 211.058 159.037 211.265 158.367C211.472 157.696 211.448 156.976 211.198 156.321C210.598 154.564 210.526 152.67 210.993 150.873C211.459 149.075 212.443 147.455 213.823 146.212C215.584 144.622 217.842 143.691 220.212 143.578C222.582 143.465 224.919 144.176 226.824 145.59C228.729 147.005 230.086 149.035 230.663 151.337C231.24 153.639 231.003 156.069 229.991 158.215C228.95 160.449 227.122 162.22 224.857 163.19C222.592 164.16 220.049 164.262 217.713 163.475C217.074 163.304 216.082 163.008 215.762 163.316C212.419 166.533 209.179 169.854 205.915 173.151C215.043 171.12 223.886 168.838 232.695 166.305C234.027 165.787 235.131 164.812 235.81 163.555C238.241 159.242 240.488 154.827 242.656 150.377C242.789 149.972 242.824 149.542 242.759 149.122C242.693 148.701 242.529 148.302 242.28 147.958C237.328 142.861 232.3 137.837 227.195 132.885C226.825 132.606 226.395 132.419 225.939 132.338C225.483 132.257 225.015 132.284 224.571 132.417C220.007 134.425 215.534 136.49 211.164 138.807C209.776 139.544 208.708 140.767 208.163 142.241C205.619 150.936 203.359 159.733 201.009 168.485ZM230.984 126.94L248.099 144.055L250.997 141.488C250.278 140.666 249.856 140.107 249.366 139.605C244.801 135.041 240.055 130.477 235.548 125.708C233.984 124.064 232.958 124.338 231.759 125.879C231.474 126.358 231.121 126.78 230.984 126.94ZM224.902 153.788C224.87 152.702 224.426 151.668 223.658 150.898C222.89 150.128 221.858 149.681 220.771 149.646C220.273 149.633 219.777 149.717 219.311 149.896C218.846 150.075 218.42 150.343 218.058 150.687C217.697 151.03 217.407 151.442 217.205 151.898C217.002 152.353 216.892 152.845 216.881 153.343C216.899 154.427 217.313 155.467 218.044 156.267C218.775 157.068 219.773 157.574 220.851 157.69C221.894 157.667 222.89 157.253 223.642 156.53C224.394 155.808 224.848 154.829 224.913 153.788H224.902Z" fill="white"/>
</g>
</g>
<defs>
<clipPath id="clip0_635_124">
<rect width="449" height="300" rx="36" fill="white"/>
</clipPath>
</defs>
</svg>
