<svg width="449" height="300" viewBox="0 0 449 300" fill="none" xmlns="http://www.w3.org/2000/svg">
<g clip-path="url(#clip0_635_97)">
<mask id="mask0_635_97" style="mask-type:luminance" maskUnits="userSpaceOnUse" x="0" y="0" width="450" height="300">
<path d="M417.353 0H31.7647C14.2215 0 0 14.2215 0 31.7647V268.235C0 285.778 14.2215 300 31.7647 300H417.353C434.896 300 449.118 285.778 449.118 268.235V31.7647C449.118 14.2215 434.896 0 417.353 0Z" fill="white"/>
</mask>
<g mask="url(#mask0_635_97)">
<path d="M449.118 0H0V300H449.118V0Z" fill="#FF9933"/>
<path opacity="0.5" d="M347.716 79H137.284C132.156 79 128 83.1638 128 88.3V224.7C128 229.836 132.156 234 137.284 234H347.716C352.844 234 357 229.836 357 224.7V88.3C357 83.1638 352.844 79 347.716 79Z" fill="#DC0032" fill-opacity="0.4"/>
<path fill-rule="evenodd" clip-rule="evenodd" d="M159.059 98.5882H324.941V165.618H159.059V98.5882ZM159.059 165.618H324.941V208.505C324.941 211.704 324.547 212.864 323.805 214.034C323.064 215.204 321.976 216.121 320.589 216.747C319.203 217.372 317.828 217.706 314.036 217.706H159.059V165.618ZM313.881 58L102.215 58.0061C98.9997 58.055 97.7115 58.3957 96.4135 58.9952C95.0079 59.6446 93.9041 60.5976 93.1524 61.8118C92.4006 63.026 92 64.2304 92 67.5517V91.5294H324.941V67.5517C324.941 64.2304 324.541 63.026 323.789 61.8118C323.037 60.5976 321.933 59.6446 320.528 58.9952C319.122 58.3458 317.727 58 313.881 58ZM159.059 217.706V98.5882H92L92.0088 209.159C92.0803 211.849 92.5797 212.927 93.4568 214.012C94.4079 215.189 95.8029 216.112 97.5809 216.741C99.3588 217.371 101.122 217.706 105.984 217.706H159.059Z" fill="white"/>
<path d="M311.853 79.8236C314.533 79.8236 316.706 77.6508 316.706 74.9706C316.706 72.2904 314.533 70.1177 311.853 70.1177C309.173 70.1177 307 72.2904 307 74.9706C307 77.6508 309.173 79.8236 311.853 79.8236Z" fill="#0C8CE9"/>
<path d="M295.97 79.8236C298.65 79.8236 300.823 77.6508 300.823 74.9706C300.823 72.2904 298.65 70.1177 295.97 70.1177C293.29 70.1177 291.117 72.2904 291.117 74.9706C291.117 77.6508 293.29 79.8236 295.97 79.8236Z" fill="#5A0169"/>
<path d="M280.087 79.8236C282.768 79.8236 284.94 77.6508 284.94 74.9706C284.94 72.2904 282.768 70.1177 280.087 70.1177C277.407 70.1177 275.234 72.2904 275.234 74.9706C275.234 77.6508 277.407 79.8236 280.087 79.8236Z" fill="#FFCC33"/>
<path d="M344.818 247.705C345.422 247.68 345.947 247.283 346.137 246.708L349.694 238.694L357.708 235.137C358.283 234.947 358.679 234.422 358.705 233.818C358.73 233.205 358.371 232.654 357.824 232.42L336.027 223.12C334.825 222.608 333.608 223.825 334.12 225.027L343.42 246.823C343.658 247.38 344.214 247.73 344.818 247.705Z" fill="white"/>
<rect x="101.234" y="107.118" width="65" height="101" rx="2" fill="#F87A33" fill-opacity="0.07"/>
<rect x="171.234" y="107.118" width="145" height="101" rx="2" fill="#F87A33" fill-opacity="0.07"/>
</g>
</g>
<defs>
<clipPath id="clip0_635_97">
<rect width="449" height="300" rx="36" fill="white"/>
</clipPath>
</defs>
</svg>
