<svg width="90" height="128" viewBox="0 0 90 128" fill="none" xmlns="http://www.w3.org/2000/svg">
<rect y="0.761719" width="90" height="90" rx="24" fill="#F8F8FB"/>
<path opacity="0.8" d="M37.3809 27.4248C39.1527 32.8563 39.8277 42.5402 45.0196 42.5402C45.4134 42.5402 45.8206 42.5087 46.2121 42.43C41.4905 41.332 40.9415 31.7414 38.0559 26.7812C37.8354 26.9849 37.6171 27.2054 37.3809 27.4248Z" fill="#0066FF"/>
<path opacity="0.5" d="M38.0703 26.7802C40.9413 31.7403 41.5061 41.331 46.2277 42.429C46.6046 42.3671 46.9657 42.2568 47.3414 42.1308C43.1069 40.0586 41.9302 30.7515 38.6677 26.2773C38.4629 26.4348 38.2571 26.607 38.0703 26.7802Z" fill="#0066FF"/>
<path opacity="0.8" d="M42.2123 23.8301C41.8197 23.8301 41.4113 23.8616 41.0198 23.9403C39.968 24.1428 38.9015 24.5838 37.835 25.2735C38.1331 25.5558 38.4155 25.9012 38.6675 26.2635C39.7655 25.3522 40.8477 24.6772 41.93 24.2846C42.3372 24.1282 42.7445 24.018 43.1528 23.9403C42.8401 23.8773 42.542 23.8301 42.2123 23.8301Z" fill="#0066FF"/>
<path opacity="0.3" d="M50.6358 40.2164C51.0746 39.8722 51.4987 39.4953 51.9374 39.0712C50.1341 33.6723 49.4917 23.8477 44.2661 23.8477C43.8903 23.8477 43.5146 23.8792 43.1377 23.9568C47.9054 25.1347 48.5028 35.4937 50.6358 40.2187" fill="#0066FF"/>
<path d="M43.1378 23.9403C42.8397 23.8616 42.5415 23.8301 42.2119 23.8301H44.2662C43.8904 23.8458 43.5147 23.8773 43.1378 23.9403Z" fill="#0066FF"/>
<path opacity="0.5" d="M50.543 41.3623C50.3382 41.1745 50.1492 40.954 49.9467 40.7177C49.0681 41.3466 48.1895 41.8168 47.3255 42.1161C47.6405 42.2725 47.9532 42.3816 48.2986 42.4457C48.5652 42.4918 48.8487 42.5233 49.1311 42.5233C50.1031 42.5233 50.8715 42.4131 51.5296 42.0992C51.1854 41.9113 50.8557 41.6605 50.543 41.3623ZM41.9289 24.2848C46.1949 26.5123 46.556 36.6216 49.9602 40.7177C50.1965 40.5613 50.4159 40.3881 50.6352 40.2002C48.5022 35.4752 47.8902 25.1162 43.1371 23.9395C42.7287 24.0182 42.3215 24.1273 41.9277 24.2837" fill="#0066FF"/>
<path d="M38.6671 26.2629C41.9296 30.7359 43.1064 40.0442 47.3409 42.1164C48.2049 41.8014 49.0824 41.3312 49.9621 40.718C46.5568 36.6219 46.1956 26.5138 41.9285 24.2852C40.8451 24.6935 39.7471 25.3697 38.666 26.264" fill="#0066FF"/>
<path opacity="0.8" d="M35.2936 27.2988C34.7761 28.461 34.2586 29.9831 33.6309 31.9766C34.8852 30.2036 36.1407 28.6803 37.3962 27.4406C37.223 26.9062 37.0362 26.4202 36.8472 25.9961C36.3297 26.373 35.8122 26.8128 35.2947 27.2988" fill="#0066FF"/>
<path opacity="0.85" d="M37.2856 25.6504C37.1281 25.7595 36.9874 25.8698 36.8311 25.9789C37.0347 26.4176 37.2068 26.9048 37.3801 27.4234C37.5994 27.2029 37.8346 26.9846 38.0551 26.7799C37.8188 26.3726 37.5679 25.9789 37.2856 25.6504Z" fill="#0066FF"/>
<path opacity="0.9" d="M37.8194 25.2891C37.6473 25.3982 37.4594 25.5231 37.2861 25.6491C37.5685 25.9944 37.8194 26.3724 38.0703 26.7966C38.275 26.6233 38.4629 26.4343 38.6665 26.2768C38.3999 25.9011 38.1175 25.5714 37.8194 25.2891Z" fill="#0066FF"/>
<path opacity="0.3" d="M66.9049 23.4219C64.4884 32.729 59.4529 40.2013 55.233 42.0856H55.2173L54.981 42.179C54.9664 42.179 54.9664 42.179 54.9506 42.1947C54.9349 42.2105 54.9034 42.2105 54.8876 42.2262C54.8719 42.2262 54.8719 42.242 54.8561 42.242C54.8246 42.2577 54.7931 42.2577 54.747 42.2735C54.7313 42.2735 54.7155 42.2892 54.6998 42.2892C54.684 42.2892 54.6683 42.305 54.6525 42.305C54.6368 42.305 54.621 42.3196 54.6053 42.3196C54.5895 42.3196 54.5738 42.3365 54.558 42.3365C54.5265 42.3511 54.495 42.3511 54.4635 42.368C54.4489 42.368 54.4331 42.368 54.4331 42.3826C54.4174 42.3826 54.3859 42.3984 54.3701 42.3984C54.3544 42.3984 54.3386 42.4141 54.3229 42.4141C54.3071 42.4141 54.2757 42.4299 54.261 42.4299C54.2284 42.4299 54.2138 42.4467 54.1823 42.4467C54.3701 42.5086 54.5738 42.5559 54.7931 42.5559C58.7936 42.5559 62.8414 35.3829 69.5081 23.4376L66.9049 23.4219ZM32.7521 24.2071C32.7836 24.1914 32.814 24.1745 32.8309 24.1599H32.8624C32.8928 24.1599 32.9096 24.1441 32.9243 24.1284C32.9715 24.1126 33.0345 24.0969 33.0818 24.0811H33.0975C33.1121 24.0811 33.1436 24.0654 33.1605 24.0654C33.1763 24.0654 33.1763 24.0654 33.1909 24.0496C33.2078 24.0496 33.2393 24.0339 33.2539 24.0339H33.2854C33.3641 24.0181 33.4271 23.9866 33.5048 23.972H33.5374C33.552 23.972 33.5835 23.9551 33.5993 23.9551C33.615 23.9551 33.615 23.9551 33.6308 23.9405C33.6465 23.9405 33.678 23.9405 33.6938 23.9236H33.7084C33.7568 23.909 33.8029 23.909 33.8501 23.8932H33.8816C33.8974 23.8932 33.9289 23.8932 33.9446 23.8775H33.9761C33.9919 23.8775 34.0234 23.8775 34.038 23.8617H34.0695C34.1168 23.8617 34.164 23.846 34.2113 23.846C34.0695 23.8302 33.93 23.8302 33.7871 23.8302C29.2838 23.8302 23.0738 32.1946 20.2646 43.0419H20.7979C21.6923 41.441 22.4921 39.9346 23.2301 38.507C25.2214 30.8311 29.2073 25.6021 32.7521 24.2071Z" fill="#0066FF"/>
<path opacity="0.5" d="M35.2939 27.2984C35.8114 26.8124 36.3143 26.3737 36.8318 25.9799C36.7216 25.7291 36.5956 25.4939 36.4707 25.2734C36.0466 25.7752 35.6697 26.4356 35.2939 27.2984Z" fill="#0066FF"/>
<path opacity="0.8" d="M35.6695 24.2699C35.9676 24.5208 36.2354 24.8504 36.4705 25.2577C36.5492 25.1643 36.628 25.0855 36.7067 24.9922C36.376 24.6772 36.016 24.4263 35.6222 24.2227C35.6222 24.253 35.6391 24.2699 35.6695 24.2699ZM23.2607 38.5214C27.3715 30.5947 29.3177 25.5727 32.7524 24.2227C29.2052 25.6042 25.2216 30.8309 23.2607 38.5214ZM36.7056 25.0068C36.6269 25.0855 36.5481 25.18 36.4694 25.2734C36.5954 25.4939 36.7214 25.729 36.8316 25.9799C36.988 25.8708 37.1297 25.7605 37.2861 25.6514C37.0982 25.4152 36.9104 25.1947 36.7056 25.0068Z" fill="#0066FF"/>
<path opacity="0.5" d="M25.1276 43.0094C25.0961 43.0094 25.0804 43.0094 25.0489 43.0263H24.9544C24.9082 43.0263 24.8452 43.0263 24.798 43.0409H24.7822C28.9402 42.9318 30.8527 40.8438 31.7955 37.8153C32.5166 35.5237 33.0971 33.5921 33.6146 31.9766C31.8731 34.4246 30.1159 37.3597 28.3586 40.6402C27.5284 42.2096 26.2256 42.8688 25.1276 43.0094Z" fill="#0066FF"/>
<path opacity="0.85" d="M25.1279 43.0096C26.2417 42.869 27.5276 42.2108 28.3747 40.6246C30.1319 37.3441 31.8892 34.4247 33.6307 31.9598C34.2573 29.9663 34.7917 28.4442 35.2934 27.2832C31.8273 30.5941 28.3443 36.1021 25.1279 43.0096Z" fill="#0066FF"/>
<path opacity="0.8" d="M23.2602 38.5215C22.5234 39.9345 21.7235 41.4577 20.8291 43.0586H22.3985C22.6032 41.4577 22.8991 39.9491 23.2602 38.5215Z" fill="#0066FF"/>
<path d="M34.0862 23.877H34.0547C34.0378 23.877 34.0232 23.877 33.9917 23.8927H33.9602C33.9445 23.8927 33.913 23.8927 33.8972 23.9085H33.8657C33.8185 23.9085 33.7712 23.9231 33.7251 23.9231H33.7082C33.6936 23.9231 33.6632 23.94 33.6463 23.94C33.6306 23.94 33.6306 23.94 33.6148 23.9546C33.5991 23.9546 33.5687 23.9715 33.5518 23.9715H33.5203C33.4416 23.9861 33.3797 24.003 33.301 24.0333H33.2695C33.2537 24.0333 33.2222 24.0491 33.2076 24.0491C33.1907 24.0491 33.1907 24.0491 33.1761 24.0648C33.1603 24.0648 33.1288 24.0806 33.1131 24.0806H33.0816C33.0343 24.0963 32.9871 24.1121 32.9241 24.1278C32.9095 24.1278 32.878 24.1436 32.8622 24.1593C32.8465 24.1593 32.8465 24.1593 32.8307 24.174C32.815 24.174 32.7835 24.1908 32.7677 24.2077C32.7677 24.2077 32.752 24.2077 32.752 24.2223C29.3162 25.587 27.3711 30.5943 23.2603 38.5211C22.9003 39.9498 22.6022 41.4573 22.3975 43.0413H24.814C24.8612 43.0413 24.9085 43.0413 24.9715 43.0267H25.0648C25.0806 43.0267 25.1121 43.0267 25.1436 43.0098C28.3588 36.1023 31.8418 30.6101 35.3091 27.2981C35.686 26.4352 36.0617 25.7748 36.4858 25.2731C36.2496 24.8647 35.9841 24.5193 35.686 24.2842H35.6691C35.6545 24.2842 35.6387 24.2696 35.623 24.2696C35.6072 24.2527 35.5915 24.2527 35.5757 24.2381C35.56 24.2381 35.5442 24.2223 35.5285 24.2223C35.5127 24.2223 35.4981 24.2066 35.4666 24.2066C35.4497 24.2066 35.4351 24.1908 35.4193 24.1908C35.3878 24.174 35.3563 24.1593 35.3248 24.1593C35.3091 24.1593 35.2933 24.1436 35.2933 24.1436C35.2776 24.1436 35.2461 24.1278 35.2303 24.1121C35.2146 24.1121 35.2 24.1121 35.2 24.0963C35.1685 24.0806 35.137 24.0806 35.1055 24.0648H35.0897C35.0582 24.0491 35.0098 24.0491 34.9806 24.0333H34.9468C34.9165 24.0176 34.885 24.0176 34.8535 24.003H34.8388L34.6026 23.9546H34.5711C34.5396 23.9546 34.5081 23.94 34.4766 23.94H34.4608C34.4147 23.94 34.3821 23.9231 34.3517 23.9231H34.336C34.3045 23.9231 34.273 23.9231 34.2415 23.9085C34.1785 23.877 34.1312 23.877 34.084 23.877" fill="#0066FF"/>
<path opacity="0.5" d="M57.4923 28.571C56.7082 31.1135 56.0636 33.2004 55.5011 34.9115C57.6656 31.9302 59.8143 28.1615 61.8371 23.8302C59.469 24.584 58.1977 26.294 57.4923 28.571ZM55.563 41.9281C55.4527 41.99 55.3425 42.0384 55.2333 42.0856C59.4532 40.2013 64.4887 32.7301 66.9052 23.4219H66.4192C60.8808 33.3264 59.0921 39.9492 55.563 41.9281ZM52.8168 41.0956C53.7427 39.9819 54.4807 38.0671 55.5 34.9272C54.3232 36.5439 53.1307 37.9423 51.9551 39.0706V39.0875C52.2048 39.8559 52.4883 40.5466 52.8168 41.0956Z" fill="#0066FF"/>
<path opacity="0.3" d="M52.817 41.0957C52.5031 41.4715 52.1746 41.7707 51.7977 41.989C51.719 42.0373 51.6402 42.0846 51.5469 42.115C51.9384 42.3186 52.3625 42.4603 52.8327 42.5233C52.8957 42.5233 52.9745 42.5391 53.0375 42.5391H53.6484C53.6799 42.5391 53.6967 42.5391 53.7271 42.5233H53.7586C53.7901 42.5233 53.8216 42.5076 53.8531 42.5076H53.8846C53.9161 42.5076 53.9465 42.4918 53.978 42.4918H53.9949C54.0568 42.4772 54.1197 42.4603 54.1974 42.4457C53.6484 42.241 53.1939 41.7707 52.817 41.0957Z" fill="#0066FF"/>
<path d="M45.0205 42.6617C45.412 42.6617 45.8204 42.6212 46.213 42.5199C46.5888 42.4389 46.9499 42.2972 47.3268 42.1374C47.6395 42.3377 47.9534 42.4794 48.2988 42.5604C48.5654 42.6212 48.8489 42.6617 49.1313 42.6617H45.0205ZM49.1459 42.6617C50.119 42.6617 50.8874 42.5199 51.5466 42.1172C51.9381 42.3782 52.3623 42.5604 52.8325 42.6403C52.8955 42.6403 52.9743 42.6617 53.0373 42.6617H53.2735H49.1459ZM53.2881 42.6617H53.665C53.6965 42.6617 53.7111 42.6617 53.7426 42.6403H53.7741C53.8056 42.6403 53.8371 42.6212 53.8675 42.6212H53.899C53.9305 42.6212 53.962 42.6009 53.9946 42.6009H54.0093C54.0723 42.5807 54.1353 42.5604 54.214 42.5402C54.4019 42.6212 54.6055 42.6808 54.8249 42.6808L53.2881 42.6617Z" fill="#0066FF"/>
<path opacity="0.6" d="M51.9376 39.0703C51.4988 39.4787 51.0758 39.8556 50.6359 40.2009C50.4166 40.3742 50.1814 40.5463 49.9609 40.7184C50.1499 40.9547 50.3547 41.1572 50.5572 41.3631C50.8711 41.6601 51.2007 41.9121 51.5618 42.1157C51.6406 42.0684 51.7339 42.0369 51.8127 41.9897C52.1884 41.7703 52.5192 41.4879 52.8319 41.0964C52.4877 40.5452 52.2053 39.8556 51.9376 39.0714" fill="#0066FF"/>
<path d="M64.8652 23.4213H62.4183C62.2923 23.4213 62.1517 23.437 62.0257 23.437C61.9638 23.563 61.9008 23.6879 61.8378 23.8297C59.7982 28.1609 57.664 31.9297 55.4984 34.9109C54.4803 38.0508 53.7265 39.9655 52.8164 41.0793C53.209 41.7543 53.6647 42.2268 54.2137 42.4147C54.2283 42.4147 54.244 42.4147 54.2598 42.3978H54.307C54.3228 42.3978 54.3543 42.382 54.37 42.382C54.3858 42.382 54.4015 42.382 54.4173 42.3674C54.433 42.3674 54.4634 42.3505 54.4803 42.3505C54.4949 42.3505 54.5118 42.3359 54.5118 42.3359C54.5422 42.319 54.5737 42.319 54.6052 42.3044C54.6209 42.3044 54.6367 42.2887 54.6524 42.2887C54.6682 42.2887 54.6839 42.2729 54.6997 42.2729C54.7154 42.2729 54.7312 42.2572 54.7469 42.2572C54.7615 42.2572 54.7784 42.2414 54.793 42.2414C54.8245 42.2257 54.856 42.2257 54.9033 42.2099C54.919 42.2099 54.919 42.1942 54.9348 42.1942C54.9505 42.1784 54.9809 42.1784 54.9978 42.1627C55.0124 42.1627 55.0124 42.1627 55.0293 42.148L55.2644 42.0524H55.279C55.3893 42.0063 55.4995 41.9433 55.6087 41.8949C59.1389 39.9183 60.9277 33.2943 66.4649 23.3887L64.8652 23.4213Z" fill="#0066FF"/>
<path opacity="0.5" d="M34.2256 23.862H34.3358C34.3673 23.862 34.4146 23.8766 34.4461 23.8766H34.4618C34.4933 23.8766 34.5237 23.8924 34.5552 23.8924H34.5867L34.823 23.9396H34.8387C34.8702 23.9396 34.9017 23.9542 34.9321 23.9711H34.9636C34.9951 23.9857 35.0423 23.9857 35.0738 24.0026H35.0896C35.1211 24.0172 35.1515 24.0172 35.183 24.033C35.1998 24.033 35.2145 24.0487 35.2145 24.0487C35.2302 24.0645 35.2617 24.0645 35.2775 24.0802C35.2932 24.0802 35.309 24.096 35.309 24.096C35.3405 24.1117 35.3708 24.1275 35.4035 24.1275C35.4192 24.1275 35.435 24.1432 35.4496 24.1432C35.4665 24.159 35.4811 24.159 35.498 24.159C35.5126 24.159 35.5283 24.1736 35.5441 24.1736C35.5598 24.1905 35.5756 24.1905 35.5913 24.2074C35.984 24.3941 36.344 24.6619 36.6736 24.9746C36.7996 24.8498 36.9245 24.7237 37.0662 24.6304C36.3282 24.1118 35.498 23.8125 34.5395 23.8125C34.4607 23.844 34.3358 23.8597 34.2256 23.8597" fill="#0066FF"/>
<path opacity="0.6" d="M36.7051 25.0065C36.9098 25.1944 37.1123 25.4149 37.2856 25.6342C37.4588 25.5094 37.6456 25.3834 37.8188 25.2742C37.5837 25.038 37.3328 24.8355 37.0808 24.6465C36.9571 24.7556 36.8153 24.8816 36.7051 25.0065Z" fill="#0066FF"/>
<path d="M34.1917 23.8872H34.509C35.4585 23.8872 36.3304 24.2044 37.0425 24.6803C37.8345 24.0458 38.7851 23.8872 40.0519 23.8872H33.7969C33.9544 23.8084 34.113 23.8084 34.1929 23.8872" fill="#0066FF"/>
<path opacity="0.5" d="M40.0523 23.8086C38.7856 23.8086 37.835 24.046 37.043 24.6006C37.2803 24.7592 37.5177 24.9977 37.7562 25.2351C38.8643 24.5218 39.8937 24.1258 40.9242 23.8873C41.3191 23.8086 41.7162 23.8086 42.1122 23.8086H40.0535H40.0523Z" fill="#0066FF"/>
<path opacity="0.3" d="M55.5 34.9282C56.0647 33.2002 56.6925 31.1134 57.4924 28.5709C58.2135 26.2781 59.469 24.5839 61.8529 23.8301C61.9159 23.7041 61.9789 23.5635 62.0419 23.4375C58.1662 23.6737 56.3629 25.6346 55.4527 28.5551C53.853 33.6559 52.8956 36.9521 51.9697 39.0559C53.1307 37.9421 54.3232 36.5449 55.5 34.9282Z" fill="#0066FF"/>
<path d="M46.4737 64.1389C46.4737 64.3414 46.3972 64.5225 46.2544 64.6665C46.1126 64.8195 45.9315 64.887 45.7223 64.887C45.5231 64.887 45.3431 64.8105 45.2093 64.6665C45.0664 64.5135 45 64.3403 45 64.1389C45 63.9285 45.0675 63.7564 45.2093 63.6023C45.3521 63.4583 45.5231 63.3818 45.7223 63.3818C45.9315 63.3818 46.1025 63.4583 46.2544 63.6023C46.3972 63.7553 46.4737 63.9375 46.4737 64.1389ZM55.7516 64.7442H54.4016L49.4966 57.0998C49.383 56.9175 49.2874 56.7173 49.2019 56.4957H49.1636C49.2019 56.6982 49.2199 57.138 49.2199 57.8097V64.7442H48.1084V55.1524H49.5529L54.3161 62.6809C54.5051 62.979 54.639 63.1894 54.6964 63.3233H54.7245C54.6772 63.0454 54.657 62.5752 54.657 61.9137V55.1524H55.7708L55.7516 64.7442ZM62.8999 64.7442H57.861V55.1535H62.6805V56.1694H58.9736V59.3644H62.4049V60.3803H58.9736V63.7362H62.8999V64.7442ZM70.542 56.1604H67.8049V64.7329H66.6911V56.1604H63.9461V55.1445H70.542V56.1604Z" fill="#0066FF"/>
<path d="M21.4585 63.9492H19.4194L22.5264 54.9492H24.9785L28.0811 63.9492H26.042L23.7876 57.0059H23.7173L21.4585 63.9492ZM21.3311 60.4116H26.1475V61.897H21.3311V60.4116ZM33.8412 57.5376C33.806 57.1831 33.6552 56.9077 33.3885 56.7114C33.1219 56.5151 32.7601 56.417 32.3031 56.417C31.9926 56.417 31.7303 56.4609 31.5165 56.5488C31.3026 56.6338 31.1385 56.7524 31.0243 56.9048C30.913 57.0571 30.8573 57.23 30.8573 57.4233C30.8514 57.5845 30.8851 57.7251 30.9584 57.8452C31.0345 57.9653 31.1385 58.0693 31.2704 58.1572C31.4022 58.2422 31.5546 58.3169 31.7274 58.3813C31.9003 58.4429 32.0848 58.4956 32.2811 58.5396L33.0897 58.7329C33.4823 58.8208 33.8427 58.938 34.1708 59.0845C34.4989 59.231 34.7831 59.4111 35.0233 59.625C35.2635 59.8389 35.4496 60.0908 35.5814 60.3809C35.7162 60.6709 35.785 61.0034 35.788 61.3784C35.785 61.9292 35.6444 62.4067 35.3661 62.811C35.0907 63.2124 34.6923 63.5244 34.1708 63.7471C33.6522 63.9668 33.0267 64.0767 32.2943 64.0767C31.5677 64.0767 30.9349 63.9653 30.3959 63.7427C29.8597 63.52 29.4408 63.1904 29.139 62.7539C28.8402 62.3145 28.6835 61.771 28.6688 61.1235H30.5101C30.5306 61.4253 30.6171 61.6772 30.7694 61.8794C30.9247 62.0786 31.1312 62.2295 31.389 62.332C31.6498 62.4316 31.9442 62.4814 32.2723 62.4814C32.5946 62.4814 32.8744 62.4346 33.1117 62.3408C33.3519 62.2471 33.538 62.1167 33.6698 61.9497C33.8016 61.7827 33.8676 61.5908 33.8676 61.374C33.8676 61.1719 33.8075 61.002 33.6874 60.8643C33.5702 60.7266 33.3973 60.6094 33.1688 60.5127C32.9432 60.416 32.6664 60.3281 32.3383 60.249L31.3583 60.0029C30.5995 59.8184 30.0004 59.5298 29.5609 59.1372C29.1215 58.7446 28.9032 58.2158 28.9061 57.5508C28.9032 57.0059 29.0482 56.5298 29.3412 56.1226C29.6371 55.7153 30.0428 55.3975 30.5585 55.1689C31.0741 54.9404 31.66 54.8262 32.3163 54.8262C32.9843 54.8262 33.5673 54.9404 34.0653 55.1689C34.5663 55.3975 34.9559 55.7153 35.2343 56.1226C35.5126 56.5298 35.6561 57.0015 35.6649 57.5376H33.8412ZM37.0679 63.9492V54.9492H40.6187C41.3013 54.9492 41.8828 55.0796 42.3633 55.3403C42.8438 55.5981 43.21 55.957 43.4619 56.417C43.7168 56.874 43.8442 57.4014 43.8442 57.999C43.8442 58.5967 43.7153 59.124 43.4575 59.5811C43.1997 60.0381 42.8262 60.394 42.3369 60.6489C41.8506 60.9038 41.2617 61.0312 40.5703 61.0312H38.3071V59.5063H40.2627C40.6289 59.5063 40.9307 59.4434 41.168 59.3174C41.4082 59.1885 41.5869 59.0112 41.7041 58.7856C41.8242 58.5571 41.8843 58.2949 41.8843 57.999C41.8843 57.7002 41.8242 57.4395 41.7041 57.2168C41.5869 56.9912 41.4082 56.8169 41.168 56.6938C40.9277 56.5679 40.623 56.5049 40.2539 56.5049H38.9707V63.9492H37.0679Z" fill="#0066FF"/>
<path d="M9.89181 119.262L14.9638 108.062H16.5478L21.6358 119.262H19.9558L15.4278 108.958H16.0678L11.5398 119.262H9.89181ZM12.0518 116.462L12.4838 115.182H18.7878L19.2518 116.462H12.0518ZM26.0706 119.39C25.2172 119.39 24.4012 119.262 23.6226 119.006C22.8439 118.739 22.2306 118.398 21.7826 117.982L22.3746 116.734C22.8012 117.107 23.3452 117.416 24.0066 117.662C24.6679 117.907 25.3559 118.03 26.0706 118.03C26.7212 118.03 27.2492 117.955 27.6546 117.806C28.0599 117.656 28.3586 117.454 28.5506 117.198C28.7426 116.931 28.8386 116.632 28.8386 116.302C28.8386 115.918 28.7106 115.608 28.4546 115.374C28.2092 115.139 27.8839 114.952 27.4786 114.814C27.0839 114.664 26.6466 114.536 26.1666 114.43C25.6866 114.323 25.2012 114.2 24.7106 114.062C24.2306 113.912 23.7879 113.726 23.3826 113.502C22.9879 113.278 22.6679 112.979 22.4226 112.606C22.1772 112.222 22.0546 111.731 22.0546 111.134C22.0546 110.558 22.2039 110.03 22.5026 109.55C22.8119 109.059 23.2812 108.67 23.9106 108.382C24.5506 108.083 25.3612 107.934 26.3426 107.934C26.9932 107.934 27.6386 108.019 28.2786 108.19C28.9186 108.36 29.4732 108.606 29.9426 108.926L29.4146 110.206C28.9346 109.886 28.4279 109.656 27.8946 109.518C27.3612 109.368 26.8439 109.294 26.3426 109.294C25.7132 109.294 25.1959 109.374 24.7906 109.534C24.3852 109.694 24.0866 109.907 23.8946 110.174C23.7132 110.44 23.6226 110.739 23.6226 111.07C23.6226 111.464 23.7452 111.779 23.9906 112.014C24.2466 112.248 24.5719 112.435 24.9666 112.574C25.3719 112.712 25.8146 112.84 26.2946 112.958C26.7746 113.064 27.2546 113.187 27.7346 113.326C28.2252 113.464 28.6679 113.646 29.0626 113.87C29.4679 114.094 29.7932 114.392 30.0386 114.766C30.2839 115.139 30.4066 115.619 30.4066 116.206C30.4066 116.771 30.2519 117.299 29.9426 117.79C29.6332 118.27 29.1532 118.659 28.5026 118.958C27.8626 119.246 27.0519 119.39 26.0706 119.39ZM32.2441 119.262V108.062H36.6121C37.5934 108.062 38.4307 108.216 39.1241 108.526C39.8174 108.835 40.3507 109.283 40.7241 109.87C41.0974 110.456 41.2841 111.155 41.2841 111.966C41.2841 112.776 41.0974 113.475 40.7241 114.062C40.3507 114.638 39.8174 115.086 39.1241 115.406C38.4307 115.715 37.5934 115.87 36.6121 115.87H33.1241L33.8441 115.118V119.262H32.2441ZM33.8441 115.278L33.1241 114.478H36.5641C37.5881 114.478 38.3614 114.259 38.8841 113.822C39.4174 113.384 39.6841 112.766 39.6841 111.966C39.6841 111.166 39.4174 110.547 38.8841 110.11C38.3614 109.672 37.5881 109.454 36.5641 109.454H33.1241L33.8441 108.654V115.278ZM47.2318 119.358C46.9331 119.358 46.6771 119.256 46.4638 119.054C46.2505 118.84 46.1438 118.574 46.1438 118.254C46.1438 117.934 46.2505 117.672 46.4638 117.47C46.6771 117.267 46.9331 117.166 47.2318 117.166C47.5198 117.166 47.7651 117.267 47.9678 117.47C48.1811 117.672 48.2878 117.934 48.2878 118.254C48.2878 118.574 48.1811 118.84 47.9678 119.054C47.7651 119.256 47.5198 119.358 47.2318 119.358ZM50.2128 119.262V108.062H51.5248L58.9328 117.262H58.2448V108.062H59.8448V119.262H58.5328L51.1248 110.062H51.8128V119.262H50.2128ZM64.1532 112.894H69.9132V114.254H64.1532V112.894ZM64.2972 117.87H70.8252V119.262H62.6972V108.062H70.6012V109.454H64.2972V117.87ZM75.1399 119.262V109.454H71.2999V108.062H80.5639V109.454H76.7239V119.262H75.1399Z" fill="#202020"/>
</svg>
