<svg width="90" height="133" viewBox="0 0 90 133" fill="none" xmlns="http://www.w3.org/2000/svg">
<rect y="0.761719" width="90" height="90" rx="24" fill="#F8F8FB"/>
<path d="M64.2853 23.2617L60.771 63.7574L44.976 68.2617L29.2239 63.7639L25.7139 23.2617H64.2853Z" fill="#0066FF"/>
<path d="M39.6005 49.6639L39.9691 53.5553L45.7269 55.0232L45.7494 55.0168V60.0932L45.7259 60.0986L35.1348 57.3246L34.4105 49.6639H39.6005ZM45.7494 42.3461V47.2243H34.1802L33.7162 42.3461H45.7494ZM45.7494 32.4707V37.35H33.2555L32.7852 32.4707H45.7494ZM52.1223 47.2264L51.5212 53.5543L45.7494 55.0232V60.0986L56.3587 57.3268L56.4369 56.5028L57.653 43.6575L57.7794 42.3471L58.7137 32.4707H45.7494V37.35H53.0416L52.5712 42.3471L45.7494 42.3461V47.2264H52.1223Z" fill="white"/>
<path d="M36.7582 119.39C35.9049 119.39 35.1155 119.251 34.3902 118.974C33.6755 118.686 33.0515 118.286 32.5182 117.774C31.9955 117.251 31.5849 116.643 31.2862 115.95C30.9875 115.256 30.8382 114.494 30.8382 113.662C30.8382 112.83 30.9875 112.067 31.2862 111.374C31.5849 110.68 32.0009 110.078 32.5342 109.566C33.0675 109.043 33.6915 108.643 34.4062 108.366C35.1315 108.078 35.9209 107.934 36.7742 107.934C37.6382 107.934 38.4329 108.083 39.1582 108.382C39.8942 108.67 40.5182 109.102 41.0302 109.678L39.9902 110.686C39.5635 110.238 39.0835 109.907 38.5502 109.694C38.0169 109.47 37.4462 109.358 36.8382 109.358C36.2089 109.358 35.6222 109.464 35.0782 109.678C34.5449 109.891 34.0809 110.19 33.6862 110.574C33.2915 110.958 32.9822 111.416 32.7582 111.95C32.5449 112.472 32.4382 113.043 32.4382 113.662C32.4382 114.28 32.5449 114.856 32.7582 115.39C32.9822 115.912 33.2915 116.366 33.6862 116.75C34.0809 117.134 34.5449 117.432 35.0782 117.646C35.6222 117.859 36.2089 117.966 36.8382 117.966C37.4462 117.966 38.0169 117.859 38.5502 117.646C39.0835 117.422 39.5635 117.08 39.9902 116.622L41.0302 117.63C40.5182 118.206 39.8942 118.643 39.1582 118.942C38.4329 119.24 37.6329 119.39 36.7582 119.39ZM46.0611 119.39C45.2078 119.39 44.3918 119.262 43.6131 119.006C42.8344 118.739 42.2211 118.398 41.7731 117.982L42.3651 116.734C42.7918 117.107 43.3358 117.416 43.9971 117.662C44.6584 117.907 45.3464 118.03 46.0611 118.03C46.7118 118.03 47.2398 117.955 47.6451 117.806C48.0504 117.656 48.3491 117.454 48.5411 117.198C48.7331 116.931 48.8291 116.632 48.8291 116.302C48.8291 115.918 48.7011 115.608 48.4451 115.374C48.1998 115.139 47.8744 114.952 47.4691 114.814C47.0744 114.664 46.6371 114.536 46.1571 114.43C45.6771 114.323 45.1918 114.2 44.7011 114.062C44.2211 113.912 43.7784 113.726 43.3731 113.502C42.9784 113.278 42.6584 112.979 42.4131 112.606C42.1678 112.222 42.0451 111.731 42.0451 111.134C42.0451 110.558 42.1944 110.03 42.4931 109.55C42.8024 109.059 43.2718 108.67 43.9011 108.382C44.5411 108.083 45.3518 107.934 46.3331 107.934C46.9838 107.934 47.6291 108.019 48.2691 108.19C48.9091 108.36 49.4638 108.606 49.9331 108.926L49.4051 110.206C48.9251 109.886 48.4184 109.656 47.8851 109.518C47.3518 109.368 46.8344 109.294 46.3331 109.294C45.7038 109.294 45.1864 109.374 44.7811 109.534C44.3758 109.694 44.0771 109.907 43.8851 110.174C43.7038 110.44 43.6131 110.739 43.6131 111.07C43.6131 111.464 43.7358 111.779 43.9811 112.014C44.2371 112.248 44.5624 112.435 44.9571 112.574C45.3624 112.712 45.8051 112.84 46.2851 112.958C46.7651 113.064 47.2451 113.187 47.7251 113.326C48.2158 113.464 48.6584 113.646 49.0531 113.87C49.4584 114.094 49.7838 114.392 50.0291 114.766C50.2744 115.139 50.3971 115.619 50.3971 116.206C50.3971 116.771 50.2424 117.299 49.9331 117.79C49.6238 118.27 49.1438 118.659 48.4931 118.958C47.8531 119.246 47.0424 119.39 46.0611 119.39ZM55.4986 119.39C54.6453 119.39 53.8293 119.262 53.0506 119.006C52.2719 118.739 51.6586 118.398 51.2106 117.982L51.8026 116.734C52.2293 117.107 52.7733 117.416 53.4346 117.662C54.0959 117.907 54.7839 118.03 55.4986 118.03C56.1493 118.03 56.6773 117.955 57.0826 117.806C57.4879 117.656 57.7866 117.454 57.9786 117.198C58.1706 116.931 58.2666 116.632 58.2666 116.302C58.2666 115.918 58.1386 115.608 57.8826 115.374C57.6373 115.139 57.3119 114.952 56.9066 114.814C56.5119 114.664 56.0746 114.536 55.5946 114.43C55.1146 114.323 54.6293 114.2 54.1386 114.062C53.6586 113.912 53.2159 113.726 52.8106 113.502C52.4159 113.278 52.0959 112.979 51.8506 112.606C51.6053 112.222 51.4826 111.731 51.4826 111.134C51.4826 110.558 51.6319 110.03 51.9306 109.55C52.2399 109.059 52.7093 108.67 53.3386 108.382C53.9786 108.083 54.7893 107.934 55.7706 107.934C56.4213 107.934 57.0666 108.019 57.7066 108.19C58.3466 108.36 58.9013 108.606 59.3706 108.926L58.8426 110.206C58.3626 109.886 57.8559 109.656 57.3226 109.518C56.7893 109.368 56.2719 109.294 55.7706 109.294C55.1413 109.294 54.6239 109.374 54.2186 109.534C53.8133 109.694 53.5146 109.907 53.3226 110.174C53.1413 110.44 53.0506 110.739 53.0506 111.07C53.0506 111.464 53.1733 111.779 53.4186 112.014C53.6746 112.248 53.9999 112.435 54.3946 112.574C54.7999 112.712 55.2426 112.84 55.7226 112.958C56.2026 113.064 56.6826 113.187 57.1626 113.326C57.6533 113.464 58.0959 113.646 58.4906 113.87C58.8959 114.094 59.2213 114.392 59.4666 114.766C59.7119 115.139 59.8346 115.619 59.8346 116.206C59.8346 116.771 59.6799 117.299 59.3706 117.79C59.0613 118.27 58.5813 118.659 57.9306 118.958C57.2906 119.246 56.4799 119.39 55.4986 119.39Z" fill="#202020"/>
</svg>
