<svg width="90" height="128" viewBox="0 0 90 128" fill="none" xmlns="http://www.w3.org/2000/svg">
<rect y="0.761719" width="90" height="90" rx="24" fill="#F8F8FB"/>
<path d="M15.1798 54.702C15.0097 54.5128 14.8041 54.3643 14.5769 54.259C14.351 54.1536 14.1073 54.1041 13.8598 54.1041C13.611 54.0991 13.3686 54.1549 13.1414 54.2539C12.9142 54.358 12.7086 54.5078 12.5398 54.6956C12.3646 54.8784 12.2276 55.0941 12.1374 55.3328C12.0486 55.5752 12.0004 55.8303 12.0004 56.0841C11.9953 56.3443 12.0435 56.5995 12.1374 56.8368C12.2326 57.0754 12.371 57.2912 12.5436 57.4727C12.8863 57.8535 13.3661 58.0641 13.8636 58.054C14.3611 58.0565 14.8384 57.8471 15.1836 57.4727C15.3638 57.295 15.5009 57.0792 15.5961 56.8431C15.6913 56.6045 15.7395 56.3507 15.7395 56.0905C15.7395 55.8303 15.6913 55.5752 15.5961 55.3378C15.4958 55.0941 15.3587 54.8784 15.1798 54.702ZM37.2771 50.2089C37.2492 51.4489 37.3076 52.6928 37.4446 53.9277H37.3812C37.2339 53.6231 36.9065 53.0583 36.4039 52.2346L24.3677 32.4346H20.7124V57.7113H23.5212V39.4382C23.5529 38.2832 23.5059 37.1256 23.3892 35.9694H23.4958C23.6963 36.5228 23.954 37.0533 24.2611 37.5521L36.626 57.7113H40.0846V32.4346H37.2758V50.2089H37.2771ZM59.1294 54.9342H49.2041V46.1765H57.8894V43.5111H49.2015V35.1126H58.5215V32.4346H46.3242V57.7113H59.1142L59.1294 54.9342ZM61.2782 32.4346V35.1126H68.1956V57.7113H71.0044V35.1126H78.0004V32.4346H61.2782Z" fill="#0066FF"/>
<path d="M29.4777 119.358C29.179 119.358 28.923 119.256 28.7097 119.054C28.4964 118.84 28.3897 118.574 28.3897 118.254C28.3897 117.934 28.4964 117.672 28.7097 117.47C28.923 117.267 29.179 117.166 29.4777 117.166C29.7657 117.166 30.011 117.267 30.2137 117.47C30.427 117.672 30.5337 117.934 30.5337 118.254C30.5337 118.574 30.427 118.84 30.2137 119.054C30.011 119.256 29.7657 119.358 29.4777 119.358ZM32.4587 119.262V108.062H33.7707L41.1787 117.262H40.4907V108.062H42.0907V119.262H40.7787L33.3707 110.062H34.0587V119.262H32.4587ZM46.3991 112.894H52.1591V114.254H46.3991V112.894ZM46.5431 117.87H53.0711V119.262H44.9431V108.062H52.8471V109.454H46.5431V117.87ZM57.3858 119.262V109.454H53.5458V108.062H62.8098V109.454H58.9698V119.262H57.3858Z" fill="#202020"/>
</svg>
