<svg width="91" height="128" viewBox="0 0 91 128" fill="none" xmlns="http://www.w3.org/2000/svg">
<rect x="0.572266" y="0.761719" width="90" height="90" rx="24" fill="#F8F8FB"/>
<path d="M27.0225 35.6398H56.9026C60.1955 35.6398 63.1359 34.1637 65.1089 31.8592C60.9933 26.6329 54.5341 23.2617 47.2661 23.2617C38.3668 23.2617 30.6756 28.312 27.0225 35.6398Z" fill="#0066FF"/>
<path d="M54.1431 39.4492H26.009C25.4328 41.4133 25.1182 43.4886 25.1182 45.6383C25.1182 47.788 25.4328 49.8634 26.009 51.8273H54.1431C57.5213 51.8273 60.348 49.0767 60.348 45.6383C60.348 42.1999 57.5904 39.4492 54.1431 39.4492Z" fill="#0066FF"/>
<path d="M65.1089 59.3198C63.1523 57.0671 60.2415 55.6348 56.9828 55.6348H27.0225C30.6682 62.9627 38.344 68.0128 47.2253 68.0128C54.5233 68.0128 61.0057 64.6012 65.1089 59.3198Z" fill="#0066FF"/>
<path d="M26.006 39.4492C25.4316 41.4133 25.1182 43.4886 25.1182 45.6383C25.1182 47.788 25.4316 49.8634 26.006 51.8273H44.3577C44.8388 49.9706 45.1135 47.9076 45.1135 45.6383C45.1135 43.3689 44.8388 41.306 44.3577 39.4492H26.006Z" fill="#93BEFF"/>
<path d="M35.7332 26.1172C32.0293 28.3412 28.9429 31.6771 27.0225 35.6388H43.2092C41.563 31.8162 38.9568 28.6193 35.7332 26.1172Z" fill="#93BEFF"/>
<path d="M36.6851 65.1564C39.9294 62.6754 42.539 59.3898 44.1614 55.6348H27.0225C28.8917 59.6365 32.5239 63.326 36.6851 65.4717" fill="#93BEFF"/>
<path d="M23.9598 112.894H29.7198V114.254H23.9598V112.894ZM24.1038 117.87H30.6318V119.262H22.5038V108.062H30.4078V109.454H24.1038V117.87ZM32.4986 119.262V107.39H34.0346V119.262H32.4986ZM41.7313 119.262V117.47L41.6513 117.134V114.078C41.6513 113.427 41.4593 112.926 41.0753 112.574C40.702 112.211 40.1367 112.03 39.3793 112.03C38.878 112.03 38.3873 112.115 37.9073 112.286C37.4273 112.446 37.022 112.664 36.6913 112.942L36.0513 111.79C36.4887 111.438 37.0113 111.171 37.6193 110.99C38.238 110.798 38.8833 110.702 39.5553 110.702C40.718 110.702 41.614 110.984 42.2433 111.55C42.8727 112.115 43.1873 112.979 43.1873 114.142V119.262H41.7313ZM38.9473 119.358C38.318 119.358 37.7633 119.251 37.2833 119.038C36.814 118.824 36.4513 118.531 36.1953 118.158C35.9393 117.774 35.8113 117.342 35.8113 116.862C35.8113 116.403 35.918 115.987 36.1313 115.614C36.3553 115.24 36.7127 114.942 37.2033 114.718C37.7047 114.494 38.3767 114.382 39.2193 114.382H41.9073V115.486H39.2833C38.5153 115.486 37.998 115.614 37.7313 115.87C37.4647 116.126 37.3313 116.435 37.3313 116.798C37.3313 117.214 37.4967 117.55 37.8273 117.806C38.158 118.051 38.6167 118.174 39.2033 118.174C39.7793 118.174 40.2807 118.046 40.7073 117.79C41.1447 117.534 41.4593 117.16 41.6513 116.67L41.9553 117.726C41.7527 118.227 41.3953 118.627 40.8833 118.926C40.3713 119.214 39.726 119.358 38.9473 119.358ZM47.9618 119.358C47.2578 119.358 46.5858 119.262 45.9458 119.07C45.3165 118.878 44.8205 118.643 44.4578 118.366L45.0978 117.15C45.4605 117.395 45.9085 117.603 46.4418 117.774C46.9752 117.944 47.5192 118.03 48.0738 118.03C48.7885 118.03 49.3005 117.928 49.6098 117.726C49.9298 117.523 50.0898 117.24 50.0898 116.878C50.0898 116.611 49.9938 116.403 49.8018 116.254C49.6098 116.104 49.3538 115.992 49.0338 115.918C48.7245 115.843 48.3778 115.779 47.9938 115.726C47.6098 115.662 47.2258 115.587 46.8418 115.502C46.4578 115.406 46.1058 115.278 45.7858 115.118C45.4658 114.947 45.2098 114.718 45.0178 114.43C44.8258 114.131 44.7298 113.736 44.7298 113.246C44.7298 112.734 44.8738 112.286 45.1618 111.902C45.4498 111.518 45.8552 111.224 46.3778 111.022C46.9112 110.808 47.5405 110.702 48.2658 110.702C48.8205 110.702 49.3805 110.771 49.9458 110.91C50.5218 111.038 50.9912 111.224 51.3538 111.47L50.6978 112.686C50.3138 112.43 49.9138 112.254 49.4978 112.158C49.0818 112.062 48.6658 112.014 48.2498 112.014C47.5778 112.014 47.0765 112.126 46.7458 112.35C46.4152 112.563 46.2498 112.84 46.2498 113.182C46.2498 113.47 46.3458 113.694 46.5378 113.854C46.7405 114.003 46.9965 114.12 47.3058 114.206C47.6258 114.291 47.9778 114.366 48.3618 114.43C48.7458 114.483 49.1298 114.558 49.5138 114.654C49.8978 114.739 50.2445 114.862 50.5538 115.022C50.8738 115.182 51.1298 115.406 51.3218 115.694C51.5245 115.982 51.6258 116.366 51.6258 116.846C51.6258 117.358 51.4765 117.8 51.1778 118.174C50.8792 118.547 50.4578 118.84 49.9138 119.054C49.3698 119.256 48.7192 119.358 47.9618 119.358ZM55.9575 119.358C55.1041 119.358 54.4428 119.128 53.9735 118.67C53.5041 118.211 53.2695 117.555 53.2695 116.702V108.926H54.8055V116.638C54.8055 117.096 54.9175 117.448 55.1415 117.694C55.3761 117.939 55.7068 118.062 56.1335 118.062C56.6135 118.062 57.0135 117.928 57.3335 117.662L57.8135 118.766C57.5788 118.968 57.2961 119.118 56.9655 119.214C56.6455 119.31 56.3095 119.358 55.9575 119.358ZM51.8295 112.046V110.782H57.2375V112.046H51.8295ZM59.1705 119.262V110.782H60.7065V119.262H59.1705ZM59.9385 109.15C59.6398 109.15 59.3891 109.054 59.1865 108.862C58.9945 108.67 58.8985 108.435 58.8985 108.158C58.8985 107.87 58.9945 107.63 59.1865 107.438C59.3891 107.246 59.6398 107.15 59.9385 107.15C60.2371 107.15 60.4825 107.246 60.6745 107.438C60.8771 107.619 60.9785 107.848 60.9785 108.126C60.9785 108.414 60.8825 108.659 60.6905 108.862C60.4985 109.054 60.2478 109.15 59.9385 109.15ZM66.8352 119.358C65.9712 119.358 65.1979 119.171 64.5152 118.798C63.8432 118.424 63.3152 117.912 62.9312 117.262C62.5472 116.611 62.3552 115.864 62.3552 115.022C62.3552 114.179 62.5472 113.432 62.9312 112.782C63.3152 112.131 63.8432 111.624 64.5152 111.262C65.1979 110.888 65.9712 110.702 66.8352 110.702C67.6032 110.702 68.2859 110.856 68.8832 111.166C69.4912 111.464 69.9605 111.912 70.2912 112.51L69.1232 113.262C68.8459 112.846 68.5045 112.542 68.0992 112.35C67.7045 112.147 67.2779 112.046 66.8192 112.046C66.2645 112.046 65.7685 112.168 65.3312 112.414C64.8939 112.659 64.5472 113.006 64.2912 113.454C64.0352 113.891 63.9072 114.414 63.9072 115.022C63.9072 115.63 64.0352 116.158 64.2912 116.606C64.5472 117.054 64.8939 117.4 65.3312 117.646C65.7685 117.891 66.2645 118.014 66.8192 118.014C67.2779 118.014 67.7045 117.918 68.0992 117.726C68.5045 117.523 68.8459 117.214 69.1232 116.798L70.2912 117.534C69.9605 118.12 69.4912 118.574 68.8832 118.894C68.2859 119.203 67.6032 119.358 66.8352 119.358Z" fill="#202020"/>
</svg>
