<svg width="90" height="128" viewBox="0 0 90 128" fill="none" xmlns="http://www.w3.org/2000/svg">
<rect y="0.761719" width="90" height="90" rx="24" fill="#F8F8FB"/>
<path fill-rule="evenodd" clip-rule="evenodd" d="M12.0158 44.5741C12.1358 43.9694 12.2431 43.361 12.3505 42.7524C12.5823 41.4387 12.8142 40.1242 13.174 38.8442C16.3326 27.5059 29.2831 22.7918 38.18 29.818C43.3917 33.9396 44.6868 39.7489 44.4288 46.2989H15.0534C14.6112 58.05 23.029 65.145 33.7579 61.526C37.5219 60.2563 39.7381 57.2933 40.849 53.5897C41.4123 51.7327 42.344 51.4417 44.0814 51.9708C43.1917 56.6055 41.1754 60.4785 36.9638 62.9016C30.6465 66.5311 21.6286 65.3566 16.8854 60.3144C14.0847 57.3516 12.895 53.6639 12.3685 49.6798C12.3136 49.2387 12.2181 48.8027 12.1225 48.3664C12.0805 48.1747 12.0386 47.9832 12 47.7909C12.0105 46.7187 12.0158 45.6465 12.0158 44.5741ZM78 63.9916C75.5994 64.6053 74.1148 64.018 72.783 62.0075C70.611 58.7372 68.2753 55.5756 65.9391 52.4136C65.0588 51.2223 64.1786 50.0307 63.307 48.8333C62.9894 48.3955 62.6624 47.9641 62.2847 47.4655C62.1739 47.3193 62.0588 47.1675 61.9382 47.0079C60.7371 48.6366 59.5366 50.2405 58.3438 51.8339C55.7938 55.2406 53.279 58.6002 50.8725 62.0498C49.609 63.8593 48.2824 64.6476 45.9239 64.0074L60.0957 44.8916L46.9031 27.6276C49.172 27.1832 50.7409 27.4107 52.1306 29.4529C54.3016 32.6414 56.6304 35.7214 59.0019 38.8576C59.9832 40.1553 60.9717 41.4625 61.9593 42.7912C62.9002 41.5379 63.8368 40.3019 64.7667 39.0751C67.1932 35.8739 69.5729 32.7341 71.8564 29.5059C73.1252 27.6964 74.4887 27.0086 76.7681 27.6752C76.2711 28.3377 75.7772 28.9971 75.2851 29.6539L75.2798 29.6609C74.0642 31.2836 72.8604 32.8907 71.6511 34.4898C71.0608 35.2695 70.4734 36.0515 69.8858 36.8337L69.8848 36.8351C68.1879 39.094 66.4903 41.354 64.7231 43.5583C63.8756 44.6165 64.0124 45.3043 64.7706 46.3043C67.947 50.5009 71.096 54.728 74.2868 59.0112C75.517 60.6625 76.7534 62.3221 78 63.9916ZM41.6545 43.7858H15.106C15.4482 35.0295 21.1232 29.1355 29.0199 29.199C36.2164 29.2519 41.4807 35.2887 41.6545 43.7858Z" fill="#0066FF"/>
<path d="M11.2455 112.894H17.0055V114.254H11.2455V112.894ZM11.3895 117.87H17.9175V119.262H9.78952V108.062H17.6935V109.454H11.3895V117.87ZM18.3648 119.262L22.0128 114.526L21.9968 115.31L18.5248 110.782H20.2368L22.8928 114.27H22.2368L24.8928 110.782H26.5728L23.0528 115.342L23.0688 114.526L26.7488 119.262H25.0048L22.2048 115.55L22.8288 115.646L20.0768 119.262H18.3648ZM32.4209 119.358C31.7169 119.358 31.0716 119.198 30.4849 118.878C29.9089 118.547 29.4449 118.062 29.0929 117.422C28.7516 116.782 28.5809 115.982 28.5809 115.022C28.5809 114.062 28.7462 113.262 29.0769 112.622C29.4182 111.982 29.8769 111.502 30.4529 111.182C31.0396 110.862 31.6956 110.702 32.4209 110.702C33.2529 110.702 33.9889 110.883 34.6289 111.246C35.2689 111.608 35.7756 112.115 36.1489 112.766C36.5222 113.406 36.7089 114.158 36.7089 115.022C36.7089 115.886 36.5222 116.643 36.1489 117.294C35.7756 117.944 35.2689 118.451 34.6289 118.814C33.9889 119.176 33.2529 119.358 32.4209 119.358ZM27.9249 122.366V110.782H29.3969V113.07L29.3009 115.038L29.4609 117.006V122.366H27.9249ZM32.2929 118.014C32.8369 118.014 33.3222 117.891 33.7489 117.646C34.1862 117.4 34.5276 117.054 34.7729 116.606C35.0289 116.147 35.1569 115.619 35.1569 115.022C35.1569 114.414 35.0289 113.891 34.7729 113.454C34.5276 113.006 34.1862 112.659 33.7489 112.414C33.3222 112.168 32.8369 112.046 32.2929 112.046C31.7596 112.046 31.2742 112.168 30.8369 112.414C30.4102 112.659 30.0689 113.006 29.8129 113.454C29.5676 113.891 29.4449 114.414 29.4449 115.022C29.4449 115.619 29.5676 116.147 29.8129 116.606C30.0689 117.054 30.4102 117.4 30.8369 117.646C31.2742 117.891 31.7596 118.014 32.2929 118.014ZM38.3311 119.262V110.782H39.8031V113.086L39.6591 112.51C39.8938 111.923 40.2885 111.475 40.8431 111.166C41.3978 110.856 42.0805 110.702 42.8911 110.702V112.19C42.8271 112.179 42.7631 112.174 42.6991 112.174C42.6458 112.174 42.5925 112.174 42.5391 112.174C41.7178 112.174 41.0671 112.419 40.5871 112.91C40.1071 113.4 39.8671 114.11 39.8671 115.038V119.262H38.3311ZM47.9821 119.358C47.0755 119.358 46.2755 119.171 45.5821 118.798C44.8995 118.424 44.3661 117.912 43.9821 117.262C43.6088 116.611 43.4221 115.864 43.4221 115.022C43.4221 114.179 43.6035 113.432 43.9661 112.782C44.3395 112.131 44.8461 111.624 45.4861 111.262C46.1368 110.888 46.8675 110.702 47.6781 110.702C48.4995 110.702 49.2248 110.883 49.8541 111.246C50.4835 111.608 50.9741 112.12 51.3261 112.782C51.6888 113.432 51.8701 114.195 51.8701 115.07C51.8701 115.134 51.8648 115.208 51.8541 115.294C51.8541 115.379 51.8488 115.459 51.8381 115.534H44.6221V114.43H51.0381L50.4141 114.814C50.4248 114.27 50.3128 113.784 50.0781 113.358C49.8435 112.931 49.5181 112.6 49.1021 112.366C48.6968 112.12 48.2221 111.998 47.6781 111.998C47.1448 111.998 46.6701 112.12 46.2541 112.366C45.8381 112.6 45.5128 112.936 45.2781 113.374C45.0435 113.8 44.9261 114.291 44.9261 114.846V115.102C44.9261 115.667 45.0541 116.174 45.3101 116.622C45.5768 117.059 45.9448 117.4 46.4141 117.646C46.8835 117.891 47.4221 118.014 48.0301 118.014C48.5315 118.014 48.9848 117.928 49.3901 117.758C49.8061 117.587 50.1688 117.331 50.4781 116.99L51.3261 117.982C50.9421 118.43 50.4621 118.771 49.8861 119.006C49.3208 119.24 48.6861 119.358 47.9821 119.358ZM55.935 119.358C55.231 119.358 54.559 119.262 53.919 119.07C53.2897 118.878 52.7937 118.643 52.431 118.366L53.071 117.15C53.4337 117.395 53.8817 117.603 54.415 117.774C54.9484 117.944 55.4924 118.03 56.047 118.03C56.7617 118.03 57.2737 117.928 57.583 117.726C57.903 117.523 58.063 117.24 58.063 116.878C58.063 116.611 57.967 116.403 57.775 116.254C57.583 116.104 57.327 115.992 57.007 115.918C56.6977 115.843 56.351 115.779 55.967 115.726C55.583 115.662 55.199 115.587 54.815 115.502C54.431 115.406 54.079 115.278 53.759 115.118C53.439 114.947 53.183 114.718 52.991 114.43C52.799 114.131 52.703 113.736 52.703 113.246C52.703 112.734 52.847 112.286 53.135 111.902C53.423 111.518 53.8284 111.224 54.351 111.022C54.8844 110.808 55.5137 110.702 56.239 110.702C56.7937 110.702 57.3537 110.771 57.919 110.91C58.495 111.038 58.9644 111.224 59.327 111.47L58.671 112.686C58.287 112.43 57.887 112.254 57.471 112.158C57.055 112.062 56.639 112.014 56.223 112.014C55.551 112.014 55.0497 112.126 54.719 112.35C54.3884 112.563 54.223 112.84 54.223 113.182C54.223 113.47 54.319 113.694 54.511 113.854C54.7137 114.003 54.9697 114.12 55.279 114.206C55.599 114.291 55.951 114.366 56.335 114.43C56.719 114.483 57.103 114.558 57.487 114.654C57.871 114.739 58.2177 114.862 58.527 115.022C58.847 115.182 59.103 115.406 59.295 115.694C59.4977 115.982 59.599 116.366 59.599 116.846C59.599 117.358 59.4497 117.8 59.151 118.174C58.8524 118.547 58.431 118.84 57.887 119.054C57.343 119.256 56.6924 119.358 55.935 119.358ZM63.4506 119.358C62.7466 119.358 62.0746 119.262 61.4346 119.07C60.8053 118.878 60.3093 118.643 59.9466 118.366L60.5866 117.15C60.9493 117.395 61.3973 117.603 61.9306 117.774C62.464 117.944 63.008 118.03 63.5626 118.03C64.2773 118.03 64.7893 117.928 65.0986 117.726C65.4186 117.523 65.5786 117.24 65.5786 116.878C65.5786 116.611 65.4826 116.403 65.2906 116.254C65.0986 116.104 64.8426 115.992 64.5226 115.918C64.2133 115.843 63.8666 115.779 63.4826 115.726C63.0986 115.662 62.7146 115.587 62.3306 115.502C61.9466 115.406 61.5946 115.278 61.2746 115.118C60.9546 114.947 60.6986 114.718 60.5066 114.43C60.3146 114.131 60.2186 113.736 60.2186 113.246C60.2186 112.734 60.3626 112.286 60.6506 111.902C60.9386 111.518 61.344 111.224 61.8666 111.022C62.4 110.808 63.0293 110.702 63.7546 110.702C64.3093 110.702 64.8693 110.771 65.4346 110.91C66.0106 111.038 66.48 111.224 66.8426 111.47L66.1866 112.686C65.8026 112.43 65.4026 112.254 64.9866 112.158C64.5706 112.062 64.1546 112.014 63.7386 112.014C63.0666 112.014 62.5653 112.126 62.2346 112.35C61.904 112.563 61.7386 112.84 61.7386 113.182C61.7386 113.47 61.8346 113.694 62.0266 113.854C62.2293 114.003 62.4853 114.12 62.7946 114.206C63.1146 114.291 63.4666 114.366 63.8506 114.43C64.2346 114.483 64.6186 114.558 65.0026 114.654C65.3866 114.739 65.7333 114.862 66.0426 115.022C66.3626 115.182 66.6186 115.406 66.8106 115.694C67.0133 115.982 67.1146 116.366 67.1146 116.846C67.1146 117.358 66.9653 117.8 66.6666 118.174C66.368 118.547 65.9466 118.84 65.4026 119.054C64.8586 119.256 64.208 119.358 63.4506 119.358ZM68.9023 119.358C68.6036 119.358 68.3476 119.256 68.1343 119.054C67.9209 118.84 67.8143 118.574 67.8143 118.254C67.8143 117.934 67.9209 117.672 68.1343 117.47C68.3476 117.267 68.6036 117.166 68.9023 117.166C69.1903 117.166 69.4356 117.267 69.6383 117.47C69.8516 117.672 69.9583 117.934 69.9583 118.254C69.9583 118.574 69.8516 118.84 69.6383 119.054C69.4356 119.256 69.1903 119.358 68.9023 119.358ZM70.7275 122.462C70.3755 122.462 70.0395 122.419 69.7195 122.334C69.3889 122.248 69.1115 122.12 68.8875 121.95L69.3835 120.766C69.7035 121.032 70.1195 121.166 70.6315 121.166C71.0369 121.166 71.3462 121.038 71.5595 120.782C71.7835 120.536 71.8955 120.168 71.8955 119.678V110.782H73.4315V119.646C73.4315 120.51 73.1969 121.192 72.7275 121.694C72.2689 122.206 71.6022 122.462 70.7275 122.462ZM72.6635 109.15C72.3649 109.15 72.1142 109.054 71.9115 108.862C71.7195 108.67 71.6235 108.435 71.6235 108.158C71.6235 107.87 71.7195 107.63 71.9115 107.438C72.1142 107.246 72.3649 107.15 72.6635 107.15C72.9622 107.15 73.2075 107.246 73.3995 107.438C73.6022 107.619 73.7035 107.848 73.7035 108.126C73.7035 108.414 73.6075 108.659 73.4155 108.862C73.2235 109.054 72.9729 109.15 72.6635 109.15ZM78.2944 119.358C77.5904 119.358 76.9184 119.262 76.2784 119.07C75.6491 118.878 75.1531 118.643 74.7904 118.366L75.4304 117.15C75.7931 117.395 76.2411 117.603 76.7744 117.774C77.3077 117.944 77.8517 118.03 78.4064 118.03C79.1211 118.03 79.6331 117.928 79.9424 117.726C80.2624 117.523 80.4224 117.24 80.4224 116.878C80.4224 116.611 80.3264 116.403 80.1344 116.254C79.9424 116.104 79.6864 115.992 79.3664 115.918C79.0571 115.843 78.7104 115.779 78.3264 115.726C77.9424 115.662 77.5584 115.587 77.1744 115.502C76.7904 115.406 76.4384 115.278 76.1184 115.118C75.7984 114.947 75.5424 114.718 75.3504 114.43C75.1584 114.131 75.0624 113.736 75.0624 113.246C75.0624 112.734 75.2064 112.286 75.4944 111.902C75.7824 111.518 76.1877 111.224 76.7104 111.022C77.2437 110.808 77.8731 110.702 78.5984 110.702C79.1531 110.702 79.7131 110.771 80.2784 110.91C80.8544 111.038 81.3237 111.224 81.6864 111.47L81.0304 112.686C80.6464 112.43 80.2464 112.254 79.8304 112.158C79.4144 112.062 78.9984 112.014 78.5824 112.014C77.9104 112.014 77.4091 112.126 77.0784 112.35C76.7477 112.563 76.5824 112.84 76.5824 113.182C76.5824 113.47 76.6784 113.694 76.8704 113.854C77.0731 114.003 77.3291 114.12 77.6384 114.206C77.9584 114.291 78.3104 114.366 78.6944 114.43C79.0784 114.483 79.4624 114.558 79.8464 114.654C80.2304 114.739 80.5771 114.862 80.8864 115.022C81.2064 115.182 81.4624 115.406 81.6544 115.694C81.8571 115.982 81.9584 116.366 81.9584 116.846C81.9584 117.358 81.8091 117.8 81.5104 118.174C81.2117 118.547 80.7904 118.84 80.2464 119.054C79.7024 119.256 79.0517 119.358 78.2944 119.358Z" fill="#202020"/>
</svg>
