<svg width="90" height="128" viewBox="0 0 90 128" fill="none" xmlns="http://www.w3.org/2000/svg">
<rect y="0.761719" width="90" height="90" rx="24" fill="#F8F8FB"/>
<path fill-rule="evenodd" clip-rule="evenodd" d="M41.0862 23.4375C31.8408 25.1853 24.8668 31.9455 22.7692 41.192C22.5462 42.1718 22.4961 43.0431 22.5002 45.8567C22.5053 48.8819 22.5473 49.4894 22.8326 50.6788C23.8799 55.0336 25.8701 58.6315 28.9485 61.7406C31.9032 64.7239 35.2741 66.6446 39.5808 67.7983C41.2918 68.2564 41.3552 68.2615 45.0002 68.2615C48.6452 68.2615 48.7086 68.2564 50.4197 67.7983C54.7264 66.6446 58.0973 64.7239 61.0519 61.7406C64.1303 58.6315 66.1206 55.0336 67.1678 50.6788C67.4542 49.4894 67.4951 48.8819 67.5002 45.8567C67.5053 42.1503 67.4082 41.4078 66.5767 38.7855C66.0255 37.0469 64.5742 34.1822 63.4502 32.6175C62.1708 30.8338 59.9566 28.6155 58.2568 27.4148C55.6847 25.5975 53.5032 24.5839 50.4197 23.7739C48.7956 23.3485 48.4867 23.3178 45.4523 23.2728C43.1112 23.238 41.9034 23.283 41.0862 23.4375ZM47.8567 28.411C49.4256 28.6656 51.4864 29.3069 52.7126 29.9246C54.847 30.9964 57.097 32.7658 58.5831 34.5392L59.2172 35.296L58.0993 36.3105L56.9815 37.3261L55.6417 35.9117C53.5093 33.6586 51.2542 32.327 48.3527 31.609C46.4924 31.1478 43.5081 31.1478 41.6477 31.609C38.9682 32.2728 36.8614 33.4448 34.863 35.3829C33.561 36.646 32.3 38.4225 31.6649 39.889L31.2517 40.8412L40.5994 50.1848L49.9472 59.5275L50.5976 59.2483C53.0655 58.1846 55.6601 56.0277 57.1349 53.8114C57.9428 52.5985 58.8643 50.5868 59.073 49.5804L59.1742 49.0915H51.4731V45.9323H62.6126V46.5715C62.6106 48.3306 61.7556 51.723 60.8709 53.4821C58.6761 57.844 54.6578 61.2722 50.1384 62.6376L49.0298 62.973L38.421 52.3704L27.8123 41.7678L28.1426 40.653C29.7503 35.2203 34.3782 30.5833 39.8416 28.9326C42.3125 28.185 45.2733 27.9917 47.8567 28.411ZM44.0787 63.3606C43.5306 63.4465 40.7958 62.928 39.411 62.476C36.8573 61.6414 34.5674 60.2158 32.5628 58.2122C29.8731 55.5245 28.2111 52.2702 27.5965 48.4902C27.1802 45.9221 26.4255 45.3484 35.8959 54.8096C42.7594 61.667 44.3406 63.3197 44.0787 63.3606Z" fill="#0066FF"/>
<path d="M25.1683 119.39C24.3043 119.39 23.5096 119.251 22.7843 118.974C22.059 118.686 21.4296 118.286 20.8963 117.774C20.363 117.251 19.947 116.643 19.6483 115.95C19.3496 115.256 19.2003 114.494 19.2003 113.662C19.2003 112.83 19.3496 112.067 19.6483 111.374C19.947 110.68 20.363 110.078 20.8963 109.566C21.4403 109.043 22.075 108.643 22.8003 108.366C23.5256 108.078 24.3256 107.934 25.2003 107.934C26.0856 107.934 26.8963 108.078 27.6323 108.366C28.3683 108.654 28.9923 109.086 29.5043 109.662L28.5123 110.654C28.0536 110.206 27.5523 109.88 27.0083 109.678C26.475 109.464 25.8936 109.358 25.2643 109.358C24.6243 109.358 24.027 109.464 23.4723 109.678C22.9283 109.891 22.4536 110.19 22.0483 110.574C21.6536 110.958 21.3443 111.416 21.1203 111.95C20.907 112.472 20.8003 113.043 20.8003 113.662C20.8003 114.27 20.907 114.84 21.1203 115.374C21.3443 115.896 21.6536 116.355 22.0483 116.75C22.4536 117.134 22.9283 117.432 23.4723 117.646C24.0163 117.859 24.6083 117.966 25.2483 117.966C25.8456 117.966 26.4163 117.875 26.9603 117.694C27.515 117.502 28.027 117.187 28.4963 116.75L29.4083 117.966C28.8536 118.435 28.203 118.792 27.4563 119.038C26.7203 119.272 25.9576 119.39 25.1683 119.39ZM27.8723 117.758V113.598H29.4083V117.966L27.8723 117.758ZM37.0117 119.262V117.47L36.9317 117.134V114.078C36.9317 113.427 36.7397 112.926 36.3557 112.574C35.9824 112.211 35.417 112.03 34.6597 112.03C34.1584 112.03 33.6677 112.115 33.1877 112.286C32.7077 112.446 32.3024 112.664 31.9717 112.942L31.3317 111.79C31.769 111.438 32.2917 111.171 32.8997 110.99C33.5184 110.798 34.1637 110.702 34.8357 110.702C35.9984 110.702 36.8944 110.984 37.5237 111.55C38.153 112.115 38.4677 112.979 38.4677 114.142V119.262H37.0117ZM34.2277 119.358C33.5984 119.358 33.0437 119.251 32.5637 119.038C32.0944 118.824 31.7317 118.531 31.4757 118.158C31.2197 117.774 31.0917 117.342 31.0917 116.862C31.0917 116.403 31.1984 115.987 31.4117 115.614C31.6357 115.24 31.993 114.942 32.4837 114.718C32.985 114.494 33.657 114.382 34.4997 114.382H37.1877V115.486H34.5637C33.7957 115.486 33.2784 115.614 33.0117 115.87C32.745 116.126 32.6117 116.435 32.6117 116.798C32.6117 117.214 32.777 117.55 33.1077 117.806C33.4384 118.051 33.897 118.174 34.4837 118.174C35.0597 118.174 35.561 118.046 35.9877 117.79C36.425 117.534 36.7397 117.16 36.9317 116.67L37.2357 117.726C37.033 118.227 36.6757 118.627 36.1637 118.926C35.6517 119.214 35.0064 119.358 34.2277 119.358ZM43.7222 119.358C42.8689 119.358 42.2075 119.128 41.7382 118.67C41.2689 118.211 41.0342 117.555 41.0342 116.702V108.926H42.5702V116.638C42.5702 117.096 42.6822 117.448 42.9062 117.694C43.1409 117.939 43.4715 118.062 43.8982 118.062C44.3782 118.062 44.7782 117.928 45.0982 117.662L45.5782 118.766C45.3435 118.968 45.0609 119.118 44.7302 119.214C44.4102 119.31 44.0742 119.358 43.7222 119.358ZM39.5942 112.046V110.782H45.0022V112.046H39.5942ZM49.3672 119.358C48.6632 119.358 47.9912 119.262 47.3512 119.07C46.7219 118.878 46.2259 118.643 45.8632 118.366L46.5032 117.15C46.8659 117.395 47.3139 117.603 47.8472 117.774C48.3805 117.944 48.9245 118.03 49.4792 118.03C50.1939 118.03 50.7059 117.928 51.0152 117.726C51.3352 117.523 51.4952 117.24 51.4952 116.878C51.4952 116.611 51.3992 116.403 51.2072 116.254C51.0152 116.104 50.7592 115.992 50.4392 115.918C50.1299 115.843 49.7832 115.779 49.3992 115.726C49.0152 115.662 48.6312 115.587 48.2472 115.502C47.8632 115.406 47.5112 115.278 47.1912 115.118C46.8712 114.947 46.6152 114.718 46.4232 114.43C46.2312 114.131 46.1352 113.736 46.1352 113.246C46.1352 112.734 46.2792 112.286 46.5672 111.902C46.8552 111.518 47.2605 111.224 47.7832 111.022C48.3165 110.808 48.9459 110.702 49.6712 110.702C50.2259 110.702 50.7859 110.771 51.3512 110.91C51.9272 111.038 52.3965 111.224 52.7592 111.47L52.1032 112.686C51.7192 112.43 51.3192 112.254 50.9032 112.158C50.4872 112.062 50.0712 112.014 49.6552 112.014C48.9832 112.014 48.4819 112.126 48.1512 112.35C47.8205 112.563 47.6552 112.84 47.6552 113.182C47.6552 113.47 47.7512 113.694 47.9432 113.854C48.1459 114.003 48.4019 114.12 48.7112 114.206C49.0312 114.291 49.3832 114.366 49.7672 114.43C50.1512 114.483 50.5352 114.558 50.9192 114.654C51.3032 114.739 51.6499 114.862 51.9592 115.022C52.2792 115.182 52.5352 115.406 52.7272 115.694C52.9299 115.982 53.0312 116.366 53.0312 116.846C53.0312 117.358 52.8819 117.8 52.5832 118.174C52.2845 118.547 51.8632 118.84 51.3192 119.054C50.7752 119.256 50.1245 119.358 49.3672 119.358ZM58.9468 119.358C58.2215 119.358 57.5655 119.198 56.9788 118.878C56.4028 118.547 55.9441 118.062 55.6028 117.422C55.2721 116.782 55.1068 115.982 55.1068 115.022C55.1068 114.062 55.2775 113.262 55.6188 112.622C55.9708 111.982 56.4348 111.502 57.0108 111.182C57.5975 110.862 58.2428 110.702 58.9468 110.702C59.7788 110.702 60.5148 110.883 61.1548 111.246C61.7948 111.608 62.3015 112.115 62.6748 112.766C63.0481 113.406 63.2348 114.158 63.2348 115.022C63.2348 115.886 63.0481 116.643 62.6748 117.294C62.3015 117.944 61.7948 118.451 61.1548 118.814C60.5148 119.176 59.7788 119.358 58.9468 119.358ZM54.4508 119.262V107.39H55.9868V113.038L55.8268 115.006L55.9228 116.974V119.262H54.4508ZM58.8188 118.014C59.3628 118.014 59.8481 117.891 60.2748 117.646C60.7121 117.4 61.0535 117.054 61.2988 116.606C61.5548 116.147 61.6828 115.619 61.6828 115.022C61.6828 114.414 61.5548 113.891 61.2988 113.454C61.0535 113.006 60.7121 112.659 60.2748 112.414C59.8481 112.168 59.3628 112.046 58.8188 112.046C58.2855 112.046 57.8001 112.168 57.3628 112.414C56.9361 112.659 56.5948 113.006 56.3388 113.454C56.0935 113.891 55.9708 114.414 55.9708 115.022C55.9708 115.619 56.0935 116.147 56.3388 116.606C56.5948 117.054 56.9361 117.4 57.3628 117.646C57.8001 117.891 58.2855 118.014 58.8188 118.014ZM64.9907 122.462C64.5854 122.462 64.1907 122.392 63.8067 122.254C63.4227 122.126 63.092 121.934 62.8147 121.678L63.4707 120.526C63.684 120.728 63.9187 120.883 64.1747 120.99C64.4307 121.096 64.7027 121.15 64.9907 121.15C65.364 121.15 65.6734 121.054 65.9187 120.862C66.164 120.67 66.3934 120.328 66.6067 119.838L67.1347 118.67L67.2947 118.478L70.6227 110.782H72.1267L68.0147 120.11C67.7694 120.707 67.492 121.176 67.1827 121.518C66.884 121.859 66.5534 122.099 66.1907 122.238C65.828 122.387 65.428 122.462 64.9907 122.462ZM67.0067 119.534L63.1347 110.782H64.7347L68.0307 118.334L67.0067 119.534Z" fill="#202020"/>
</svg>
