<svg width="90" height="133" viewBox="0 0 90 133" fill="none" xmlns="http://www.w3.org/2000/svg">
<rect y="0.761719" width="90" height="90" rx="24" fill="#F8F8FB"/>
<path d="M28.9536 63.7767L25.3848 23.2617H64.6155L61.0467 63.7548L44.9678 68.2617" fill="#0066FF"/>
<path d="M34.6234 57.3864L33.9103 49.7133H38.9872L39.3449 53.6191L44.9999 55.0845V55.1018L50.6538 53.6364L51.2457 47.2822H44.9999V47.2591H33.6876L32.3076 32.4922H57.6922L57.2238 37.3822H44.9999V37.3787H37.8518L38.3203 42.383H44.9999V42.391H56.7668L55.3718 57.406L44.9999 60.1845L34.6234 57.3864Z" fill="white"/>
<path d="M27.7949 108.062H29.3949V119.262H27.7949V108.062ZM21.3629 119.262H19.7629V108.062H21.3629V119.262ZM27.9389 114.27H21.2029V112.878H27.9389V114.27ZM34.4713 119.262V109.454H30.6313V108.062H39.8953V109.454H36.0553V119.262H34.4713ZM41.1379 119.262V108.062H42.4499L47.4739 116.526H46.7699L51.7299 108.062H53.0419L53.0579 119.262H51.5219L51.5059 110.478H51.8739L47.4579 117.902H46.7219L42.2739 110.478H42.6739V119.262H41.1379ZM55.9191 119.262V108.062H57.5191V117.87H63.5831V119.262H55.9191ZM67.6231 119.39C66.8338 119.39 66.0658 119.267 65.3191 119.022C64.5831 118.776 63.9805 118.446 63.5111 118.03L64.2471 116.766C64.6205 117.118 65.1058 117.406 65.7031 117.63C66.3005 117.854 66.9351 117.966 67.6071 117.966C68.4605 117.966 69.1165 117.784 69.5751 117.422C70.0338 117.059 70.2631 116.574 70.2631 115.966C70.2631 115.55 70.1618 115.187 69.9591 114.878C69.7565 114.568 69.4045 114.334 68.9031 114.174C68.4125 114.003 67.7351 113.918 66.8711 113.918H64.3271L64.9191 108.062H71.2391V109.454H65.5111L66.3431 108.67L65.8791 113.294L65.0471 112.526H67.2071C68.3271 112.526 69.2285 112.67 69.9111 112.958C70.5938 113.246 71.0898 113.646 71.3991 114.158C71.7085 114.659 71.8631 115.24 71.8631 115.902C71.8631 116.542 71.7085 117.128 71.3991 117.662C71.0898 118.184 70.6205 118.606 69.9911 118.926C69.3725 119.235 68.5831 119.39 67.6231 119.39Z" fill="#202020"/>
</svg>
