<svg width="90" height="133" viewBox="0 0 90 133" fill="none" xmlns="http://www.w3.org/2000/svg">
<rect y="0.761719" width="90" height="90" rx="24" fill="#F8F8FB"/>
<path d="M28.606 63.7215L24.8687 23.2617L65.1318 23.2771L61.4264 63.6907L44.9683 68.2617L28.606 63.7215Z" fill="#0066FF"/>
<path d="M43.4928 31.9404H39.489L39.4416 52.6795L31.6685 50.5953L31.6839 55.3356L43.4928 58.4703V31.9404ZM57.2273 55.9337L58.3227 42.6326L50.231 43.5362V36.4333L58.8615 36.4025L59.2108 31.5508L46.1845 31.6147L46.3586 49.2749L54.2289 47.9272L54.1175 51.86L46.1845 53.9679L46.2639 58.7876L57.2273 55.9337Z" fill="white"/>
<path d="M9.92534 119.39C9.26401 119.39 8.64534 119.251 8.06934 118.974C7.49334 118.696 7.02401 118.296 6.66134 117.774L7.58934 116.686C7.89867 117.112 8.24534 117.443 8.62934 117.678C9.02401 117.902 9.45601 118.014 9.92534 118.014C11.2053 118.014 11.8453 117.256 11.8453 115.742V109.454H7.79734V108.062H13.4293V115.662C13.4293 116.91 13.1307 117.843 12.5333 118.462C11.9467 119.08 11.0773 119.39 9.92534 119.39ZM21.2285 119.262V117.47L21.1485 117.134V114.078C21.1485 113.427 20.9565 112.926 20.5725 112.574C20.1991 112.211 19.6338 112.03 18.8765 112.03C18.3751 112.03 17.8845 112.115 17.4045 112.286C16.9245 112.446 16.5191 112.664 16.1885 112.942L15.5485 111.79C15.9858 111.438 16.5085 111.171 17.1165 110.99C17.7351 110.798 18.3805 110.702 19.0525 110.702C20.2151 110.702 21.1111 110.984 21.7405 111.55C22.3698 112.115 22.6845 112.979 22.6845 114.142V119.262H21.2285ZM18.4445 119.358C17.8151 119.358 17.2605 119.251 16.7805 119.038C16.3111 118.824 15.9485 118.531 15.6925 118.158C15.4365 117.774 15.3085 117.342 15.3085 116.862C15.3085 116.403 15.4151 115.987 15.6285 115.614C15.8525 115.24 16.2098 114.942 16.7005 114.718C17.2018 114.494 17.8738 114.382 18.7165 114.382H21.4045V115.486H18.7805C18.0125 115.486 17.4951 115.614 17.2285 115.87C16.9618 116.126 16.8285 116.435 16.8285 116.798C16.8285 117.214 16.9938 117.55 17.3245 117.806C17.6551 118.051 18.1138 118.174 18.7005 118.174C19.2765 118.174 19.7778 118.046 20.2045 117.79C20.6418 117.534 20.9565 117.16 21.1485 116.67L21.4525 117.726C21.2498 118.227 20.8925 118.627 20.3805 118.926C19.8685 119.214 19.2231 119.358 18.4445 119.358ZM27.0947 119.262L23.3827 110.782H24.9827L28.2787 118.462H27.5107L30.8707 110.782H32.3747L28.6627 119.262H27.0947ZM38.3066 119.262V117.47L38.2266 117.134V114.078C38.2266 113.427 38.0346 112.926 37.6506 112.574C37.2773 112.211 36.7119 112.03 35.9546 112.03C35.4533 112.03 34.9626 112.115 34.4826 112.286C34.0026 112.446 33.5973 112.664 33.2666 112.942L32.6266 111.79C33.0639 111.438 33.5866 111.171 34.1946 110.99C34.8133 110.798 35.4586 110.702 36.1306 110.702C37.2933 110.702 38.1893 110.984 38.8186 111.55C39.4479 112.115 39.7626 112.979 39.7626 114.142V119.262H38.3066ZM35.5226 119.358C34.8933 119.358 34.3386 119.251 33.8586 119.038C33.3893 118.824 33.0266 118.531 32.7706 118.158C32.5146 117.774 32.3866 117.342 32.3866 116.862C32.3866 116.403 32.4933 115.987 32.7066 115.614C32.9306 115.24 33.2879 114.942 33.7786 114.718C34.2799 114.494 34.9519 114.382 35.7946 114.382H38.4826V115.486H35.8586C35.0906 115.486 34.5733 115.614 34.3066 115.87C34.0399 116.126 33.9066 116.435 33.9066 116.798C33.9066 117.214 34.0719 117.55 34.4026 117.806C34.7333 118.051 35.1919 118.174 35.7786 118.174C36.3546 118.174 36.8559 118.046 37.2826 117.79C37.7199 117.534 38.0346 117.16 38.2266 116.67L38.5306 117.726C38.3279 118.227 37.9706 118.627 37.4586 118.926C36.9466 119.214 36.3013 119.358 35.5226 119.358ZM44.5371 119.358C43.8331 119.358 43.1611 119.262 42.5211 119.07C41.8918 118.878 41.3958 118.643 41.0331 118.366L41.6731 117.15C42.0358 117.395 42.4838 117.603 43.0171 117.774C43.5504 117.944 44.0944 118.03 44.6491 118.03C45.3638 118.03 45.8758 117.928 46.1851 117.726C46.5051 117.523 46.6651 117.24 46.6651 116.878C46.6651 116.611 46.5691 116.403 46.3771 116.254C46.1851 116.104 45.9291 115.992 45.6091 115.918C45.2998 115.843 44.9531 115.779 44.5691 115.726C44.1851 115.662 43.8011 115.587 43.4171 115.502C43.0331 115.406 42.6811 115.278 42.3611 115.118C42.0411 114.947 41.7851 114.718 41.5931 114.43C41.4011 114.131 41.3051 113.736 41.3051 113.246C41.3051 112.734 41.4491 112.286 41.7371 111.902C42.0251 111.518 42.4304 111.224 42.9531 111.022C43.4864 110.808 44.1158 110.702 44.8411 110.702C45.3958 110.702 45.9558 110.771 46.5211 110.91C47.0971 111.038 47.5664 111.224 47.9291 111.47L47.2731 112.686C46.8891 112.43 46.4891 112.254 46.0731 112.158C45.6571 112.062 45.2411 112.014 44.8251 112.014C44.1531 112.014 43.6518 112.126 43.3211 112.35C42.9904 112.563 42.8251 112.84 42.8251 113.182C42.8251 113.47 42.9211 113.694 43.1131 113.854C43.3158 114.003 43.5718 114.12 43.8811 114.206C44.2011 114.291 44.5531 114.366 44.9371 114.43C45.3211 114.483 45.7051 114.558 46.0891 114.654C46.4731 114.739 46.8198 114.862 47.1291 115.022C47.4491 115.182 47.7051 115.406 47.8971 115.694C48.0998 115.982 48.2011 116.366 48.2011 116.846C48.2011 117.358 48.0518 117.8 47.7531 118.174C47.4544 118.547 47.0331 118.84 46.4891 119.054C45.9451 119.256 45.2944 119.358 44.5371 119.358ZM53.3167 119.358C52.4527 119.358 51.6794 119.171 50.9967 118.798C50.3247 118.424 49.7967 117.912 49.4127 117.262C49.0287 116.611 48.8367 115.864 48.8367 115.022C48.8367 114.179 49.0287 113.432 49.4127 112.782C49.7967 112.131 50.3247 111.624 50.9967 111.262C51.6794 110.888 52.4527 110.702 53.3167 110.702C54.0847 110.702 54.7674 110.856 55.3647 111.166C55.9727 111.464 56.442 111.912 56.7727 112.51L55.6047 113.262C55.3274 112.846 54.986 112.542 54.5807 112.35C54.186 112.147 53.7594 112.046 53.3007 112.046C52.746 112.046 52.25 112.168 51.8127 112.414C51.3754 112.659 51.0287 113.006 50.7727 113.454C50.5167 113.891 50.3887 114.414 50.3887 115.022C50.3887 115.63 50.5167 116.158 50.7727 116.606C51.0287 117.054 51.3754 117.4 51.8127 117.646C52.25 117.891 52.746 118.014 53.3007 118.014C53.7594 118.014 54.186 117.918 54.5807 117.726C54.986 117.523 55.3274 117.214 55.6047 116.798L56.7727 117.534C56.442 118.12 55.9727 118.574 55.3647 118.894C54.7674 119.203 54.0847 119.358 53.3167 119.358ZM58.2613 119.262V110.782H59.7333V113.086L59.5893 112.51C59.824 111.923 60.2187 111.475 60.7733 111.166C61.328 110.856 62.0107 110.702 62.8213 110.702V112.19C62.7573 112.179 62.6933 112.174 62.6293 112.174C62.576 112.174 62.5227 112.174 62.4693 112.174C61.648 112.174 60.9973 112.419 60.5173 112.91C60.0373 113.4 59.7973 114.11 59.7973 115.038V119.262H58.2613ZM64.2145 119.262V110.782H65.7505V119.262H64.2145ZM64.9825 109.15C64.6838 109.15 64.4331 109.054 64.2305 108.862C64.0385 108.67 63.9425 108.435 63.9425 108.158C63.9425 107.87 64.0385 107.63 64.2305 107.438C64.4331 107.246 64.6838 107.15 64.9825 107.15C65.2811 107.15 65.5265 107.246 65.7185 107.438C65.9211 107.619 66.0225 107.848 66.0225 108.126C66.0225 108.414 65.9265 108.659 65.7345 108.862C65.5425 109.054 65.2918 109.15 64.9825 109.15ZM72.6792 119.358C71.9752 119.358 71.3299 119.198 70.7432 118.878C70.1672 118.547 69.7032 118.062 69.3512 117.422C69.0099 116.782 68.8392 115.982 68.8392 115.022C68.8392 114.062 69.0045 113.262 69.3352 112.622C69.6765 111.982 70.1352 111.502 70.7112 111.182C71.2979 110.862 71.9539 110.702 72.6792 110.702C73.5112 110.702 74.2472 110.883 74.8872 111.246C75.5272 111.608 76.0339 112.115 76.4072 112.766C76.7805 113.406 76.9672 114.158 76.9672 115.022C76.9672 115.886 76.7805 116.643 76.4072 117.294C76.0339 117.944 75.5272 118.451 74.8872 118.814C74.2472 119.176 73.5112 119.358 72.6792 119.358ZM68.1832 122.366V110.782H69.6552V113.07L69.5592 115.038L69.7192 117.006V122.366H68.1832ZM72.5512 118.014C73.0952 118.014 73.5805 117.891 74.0072 117.646C74.4445 117.4 74.7859 117.054 75.0312 116.606C75.2872 116.147 75.4152 115.619 75.4152 115.022C75.4152 114.414 75.2872 113.891 75.0312 113.454C74.7859 113.006 74.4445 112.659 74.0072 112.414C73.5805 112.168 73.0952 112.046 72.5512 112.046C72.0179 112.046 71.5325 112.168 71.0952 112.414C70.6685 112.659 70.3272 113.006 70.0712 113.454C69.8259 113.891 69.7032 114.414 69.7032 115.022C69.7032 115.619 69.8259 116.147 70.0712 116.606C70.3272 117.054 70.6685 117.4 71.0952 117.646C71.5325 117.891 72.0179 118.014 72.5512 118.014ZM81.5015 119.358C80.6481 119.358 79.9868 119.128 79.5175 118.67C79.0481 118.211 78.8135 117.555 78.8135 116.702V108.926H80.3495V116.638C80.3495 117.096 80.4615 117.448 80.6855 117.694C80.9201 117.939 81.2508 118.062 81.6775 118.062C82.1575 118.062 82.5575 117.928 82.8775 117.662L83.3575 118.766C83.1228 118.968 82.8401 119.118 82.5095 119.214C82.1895 119.31 81.8535 119.358 81.5015 119.358ZM77.3735 112.046V110.782H82.7815V112.046H77.3735Z" fill="#202020"/>
</svg>
