<svg width="91" height="128" viewBox="0 0 91 128" fill="none" xmlns="http://www.w3.org/2000/svg">
<rect x="0.572266" y="0.761719" width="90" height="90" rx="24" fill="#F8F8FB"/>
<path fill-rule="evenodd" clip-rule="evenodd" d="M46.5414 68.2348L45.3444 67.8253C45.3444 67.8253 45.4899 61.7226 43.2999 61.2846C41.8396 59.5903 43.5339 -10.5542 48.7899 61.0506C48.7899 61.0506 46.9794 61.9558 46.6584 63.5031C46.3074 65.0226 46.5414 68.2348 46.5414 68.2348Z" fill="white"/>
<path fill-rule="evenodd" clip-rule="evenodd" d="M46.5414 68.2348L45.3444 67.8253C45.3444 67.8253 45.4899 61.7226 43.2999 61.2846C41.8396 59.5903 43.5339 -10.5542 48.7899 61.0506C48.7899 61.0506 46.9794 61.9558 46.6584 63.5031C46.3074 65.0226 46.5414 68.2348 46.5414 68.2348Z" fill="#0066FF"/>
<path fill-rule="evenodd" clip-rule="evenodd" d="M47.1835 62.3354C47.1835 62.3354 57.6685 55.4429 55.2145 41.1044C52.849 30.6794 47.272 27.2632 46.6585 25.9484C45.9865 25.0139 45.3438 23.3789 45.3438 23.3789L45.7825 52.3769C45.7825 52.4069 44.8773 61.2547 47.1843 62.3354" fill="white"/>
<path fill-rule="evenodd" clip-rule="evenodd" d="M47.1835 62.3354C47.1835 62.3354 57.6685 55.4429 55.2145 41.1044C52.849 30.6794 47.272 27.2632 46.6585 25.9484C45.9865 25.0139 45.3438 23.3789 45.3438 23.3789L45.7825 52.3769C45.7825 52.4069 44.8773 61.2547 47.1843 62.3354" fill="#0066FF"/>
<path fill-rule="evenodd" clip-rule="evenodd" d="M44.7303 62.7147C44.7303 62.7147 34.888 55.9977 35.4723 44.171C36.0273 32.3435 42.9775 26.5325 44.3208 25.481C45.1975 24.5465 45.226 24.1962 45.2845 23.2617C45.898 24.5757 45.781 42.9155 45.8688 45.0762C46.1313 53.399 45.4015 61.1382 44.7303 62.7147Z" fill="white"/>
<path fill-rule="evenodd" clip-rule="evenodd" d="M44.7303 62.7147C44.7303 62.7147 34.888 55.9977 35.4723 44.171C36.0273 32.3435 42.9775 26.5325 44.3208 25.481C45.1975 24.5465 45.226 24.1962 45.2845 23.2617C45.898 24.5757 45.781 42.9155 45.8688 45.0762C46.1313 53.399 45.4015 61.1382 44.7303 62.7147Z" fill="#93BEFF"/>
<path d="M7.60683 119.262V108.062H8.91883L13.9428 116.526H13.2388L18.1988 108.062H19.5108L19.5268 119.262H17.9908L17.9748 110.478H18.3428L13.9268 117.902H13.1908L8.74283 110.478H9.14283V119.262H7.60683ZM25.7961 119.358C24.9427 119.358 24.1854 119.171 23.5241 118.798C22.8627 118.424 22.3401 117.912 21.9561 117.262C21.5721 116.6 21.3801 115.854 21.3801 115.022C21.3801 114.179 21.5721 113.432 21.9561 112.782C22.3401 112.131 22.8627 111.624 23.5241 111.262C24.1854 110.888 24.9427 110.702 25.7961 110.702C26.6387 110.702 27.3907 110.888 28.0521 111.262C28.7241 111.624 29.2467 112.131 29.6201 112.782C30.0041 113.422 30.1961 114.168 30.1961 115.022C30.1961 115.864 30.0041 116.611 29.6201 117.262C29.2467 117.912 28.7241 118.424 28.0521 118.798C27.3907 119.171 26.6387 119.358 25.7961 119.358ZM25.7961 118.014C26.3401 118.014 26.8254 117.891 27.2521 117.646C27.6894 117.4 28.0307 117.054 28.2761 116.606C28.5214 116.147 28.6441 115.619 28.6441 115.022C28.6441 114.414 28.5214 113.891 28.2761 113.454C28.0307 113.006 27.6894 112.659 27.2521 112.414C26.8254 112.168 26.3401 112.046 25.7961 112.046C25.2521 112.046 24.7667 112.168 24.3401 112.414C23.9134 112.659 23.5721 113.006 23.3161 113.454C23.0601 113.891 22.9321 114.414 22.9321 115.022C22.9321 115.619 23.0601 116.147 23.3161 116.606C23.5721 117.054 23.9134 117.4 24.3401 117.646C24.7667 117.891 25.2521 118.014 25.7961 118.014ZM36.3483 110.702C37.0417 110.702 37.6497 110.835 38.1723 111.102C38.7057 111.368 39.1217 111.774 39.4203 112.318C39.719 112.862 39.8683 113.55 39.8683 114.382V119.262H38.3323V114.558C38.3323 113.736 38.1297 113.118 37.7243 112.702C37.3297 112.286 36.7697 112.078 36.0443 112.078C35.5003 112.078 35.0257 112.184 34.6203 112.398C34.215 112.611 33.9003 112.926 33.6763 113.342C33.463 113.758 33.3563 114.275 33.3563 114.894V119.262H31.8203V110.782H33.2923V113.07L33.0523 112.462C33.3297 111.907 33.7563 111.475 34.3323 111.166C34.9083 110.856 35.5803 110.702 36.3483 110.702ZM45.923 122.462C45.1443 122.462 44.387 122.35 43.651 122.126C42.9256 121.912 42.3336 121.603 41.875 121.198L42.611 120.014C43.0056 120.355 43.491 120.622 44.067 120.814C44.643 121.016 45.2456 121.118 45.875 121.118C46.8776 121.118 47.6136 120.883 48.083 120.414C48.5523 119.944 48.787 119.23 48.787 118.27V116.478L48.947 114.798L48.867 113.102V110.782H50.323V118.11C50.323 119.603 49.9496 120.702 49.203 121.406C48.4563 122.11 47.363 122.462 45.923 122.462ZM45.731 118.91C44.9096 118.91 44.1736 118.739 43.523 118.398C42.883 118.046 42.371 117.56 41.987 116.942C41.6136 116.323 41.427 115.608 41.427 114.798C41.427 113.976 41.6136 113.262 41.987 112.654C42.371 112.035 42.883 111.555 43.523 111.214C44.1736 110.872 44.9096 110.702 45.731 110.702C46.4563 110.702 47.1176 110.851 47.715 111.15C48.3123 111.438 48.787 111.886 49.139 112.494C49.5016 113.102 49.683 113.87 49.683 114.798C49.683 115.715 49.5016 116.478 49.139 117.086C48.787 117.694 48.3123 118.152 47.715 118.462C47.1176 118.76 46.4563 118.91 45.731 118.91ZM45.907 117.566C46.4723 117.566 46.9736 117.448 47.411 117.214C47.8483 116.979 48.1896 116.654 48.435 116.238C48.691 115.822 48.819 115.342 48.819 114.798C48.819 114.254 48.691 113.774 48.435 113.358C48.1896 112.942 47.8483 112.622 47.411 112.398C46.9736 112.163 46.4723 112.046 45.907 112.046C45.3416 112.046 44.835 112.163 44.387 112.398C43.9496 112.622 43.603 112.942 43.347 113.358C43.1016 113.774 42.979 114.254 42.979 114.798C42.979 115.342 43.1016 115.822 43.347 116.238C43.603 116.654 43.9496 116.979 44.387 117.214C44.835 117.448 45.3416 117.566 45.907 117.566ZM56.3898 119.358C55.5365 119.358 54.7792 119.171 54.1178 118.798C53.4565 118.424 52.9338 117.912 52.5498 117.262C52.1658 116.6 51.9738 115.854 51.9738 115.022C51.9738 114.179 52.1658 113.432 52.5498 112.782C52.9338 112.131 53.4565 111.624 54.1178 111.262C54.7792 110.888 55.5365 110.702 56.3898 110.702C57.2325 110.702 57.9845 110.888 58.6458 111.262C59.3178 111.624 59.8405 112.131 60.2138 112.782C60.5978 113.422 60.7898 114.168 60.7898 115.022C60.7898 115.864 60.5978 116.611 60.2138 117.262C59.8405 117.912 59.3178 118.424 58.6458 118.798C57.9845 119.171 57.2325 119.358 56.3898 119.358ZM56.3898 118.014C56.9338 118.014 57.4192 117.891 57.8458 117.646C58.2832 117.4 58.6245 117.054 58.8698 116.606C59.1152 116.147 59.2378 115.619 59.2378 115.022C59.2378 114.414 59.1152 113.891 58.8698 113.454C58.6245 113.006 58.2832 112.659 57.8458 112.414C57.4192 112.168 56.9338 112.046 56.3898 112.046C55.8458 112.046 55.3605 112.168 54.9338 112.414C54.5072 112.659 54.1658 113.006 53.9098 113.454C53.6538 113.891 53.5258 114.414 53.5258 115.022C53.5258 115.619 53.6538 116.147 53.9098 116.606C54.1658 117.054 54.5072 117.4 54.9338 117.646C55.3605 117.891 55.8458 118.014 56.3898 118.014ZM62.6381 119.262V108.062H67.3581C68.5527 108.062 69.6034 108.296 70.5101 108.766C71.4274 109.235 72.1367 109.891 72.6381 110.734C73.1501 111.576 73.4061 112.552 73.4061 113.662C73.4061 114.771 73.1501 115.747 72.6381 116.59C72.1367 117.432 71.4274 118.088 70.5101 118.558C69.6034 119.027 68.5527 119.262 67.3581 119.262H62.6381ZM64.2381 117.87H67.2621C68.1901 117.87 68.9901 117.694 69.6621 117.342C70.3447 116.99 70.8727 116.499 71.2461 115.87C71.6194 115.23 71.8061 114.494 71.8061 113.662C71.8061 112.819 71.6194 112.083 71.2461 111.454C70.8727 110.824 70.3447 110.334 69.6621 109.982C68.9901 109.63 68.1901 109.454 67.2621 109.454H64.2381V117.87ZM75.3568 119.262V108.062H80.3808C81.6715 108.062 82.6635 108.323 83.3568 108.846C84.0502 109.358 84.3968 110.062 84.3968 110.958C84.3968 111.566 84.2582 112.078 83.9808 112.494C83.7142 112.91 83.3515 113.23 82.8928 113.454C82.4342 113.678 81.9382 113.79 81.4048 113.79L81.6928 113.31C82.3328 113.31 82.8982 113.422 83.3888 113.646C83.8795 113.87 84.2688 114.2 84.5568 114.638C84.8448 115.064 84.9888 115.598 84.9888 116.238C84.9888 117.198 84.6262 117.944 83.9008 118.478C83.1862 119 82.1195 119.262 80.7008 119.262H75.3568ZM76.9568 117.966H80.6368C81.5222 117.966 82.1995 117.816 82.6688 117.518C83.1382 117.219 83.3728 116.75 83.3728 116.11C83.3728 115.459 83.1382 114.984 82.6688 114.686C82.1995 114.387 81.5222 114.238 80.6368 114.238H76.8128V112.942H80.2368C81.0475 112.942 81.6768 112.792 82.1248 112.494C82.5728 112.195 82.7968 111.747 82.7968 111.15C82.7968 110.552 82.5728 110.104 82.1248 109.806C81.6768 109.507 81.0475 109.358 80.2368 109.358H76.9568V117.966Z" fill="#202020"/>
</svg>
