<svg width="90" height="128" viewBox="0 0 90 128" fill="none" xmlns="http://www.w3.org/2000/svg">
<rect y="0.761719" width="90" height="90" rx="24" fill="#F8F8FB"/>
<path d="M29.0304 46.2727L29.8624 45.3158L30.3198 46.494C32.6754 52.6012 37.9211 56.844 37.9753 56.8872C39.6945 58.2556 41.5661 59.4981 43.4864 60.6222C46.9909 60.962 49.9508 62.0328 51.9795 62.7675C53.6987 63.3947 55.6961 63.6491 57.6651 63.6702C54.4931 61.2164 52.6655 58.4062 52.5562 58.228L52.1485 57.6008L52.7794 57.1958C54.0311 56.4014 56.7679 55.8981 58.7754 55.6226C54.3305 51.3366 48.8782 49.9103 48.8185 49.8828L48.5742 49.8185L48.4162 49.6183C48.351 49.532 46.8219 47.5805 44.0255 40.7983C41.3531 34.3018 35.6353 29.8211 35.5765 29.7614L35.5435 29.7292C31.1849 25.9841 25.6572 25.8537 25.5976 25.8537L25.2871 25.8758L25.064 25.6434C23.6332 24.1345 20.8689 23.2006 19.1883 23.2648C18.6428 23.2869 18.4315 23.4053 18.3985 23.4549C18.3241 23.5743 18.3672 23.9417 18.7208 24.5478C19.0854 25.1851 19.6401 25.8932 20.1406 26.4984C20.4731 26.9255 20.7724 27.2818 20.9736 27.5894C21.7624 28.8008 21.9369 29.6594 21.9581 29.7467L21.9691 29.7788C22.3227 32.0922 24.7389 36.594 25.3257 37.0697C26.267 37.8099 26.1908 38.9184 25.9897 39.4694C24.7931 43.1016 24.6241 46.3388 25.5112 49.0847C26.0007 50.5918 26.6968 51.6727 27.3066 52.3863C27.8889 47.7384 28.9064 46.4141 29.0313 46.2736L29.0304 46.2727Z" fill="#0066FF"/>
<path d="M63.8358 65.8588C60.4746 66.5127 55.4897 66.9627 51.7721 65.5025C48.668 64.2875 43.3929 62.2441 37.3005 63.4058C31.2154 64.574 25.7144 66.5356 25.7144 66.5356C25.7144 66.5356 33.6105 64.5859 36.6539 64.4399C39.6919 64.2994 44.2645 64.7613 47.757 66.3666C52.3801 68.5101 59.4754 69.1291 64.5815 66.6761C69.6959 64.2241 71.6327 62.752 71.6327 62.752C71.6327 62.752 67.208 65.204 63.8358 65.8588Z" fill="#0066FF"/>
<path d="M19.455 119.262V108.062H20.767L25.791 116.526H25.087L30.047 108.062H31.359L31.375 119.262H29.839L29.823 110.478H30.191L25.775 117.902H25.039L20.591 110.478H20.991V119.262H19.455ZM34.3802 122.462C33.9749 122.462 33.5802 122.392 33.1962 122.254C32.8122 122.126 32.4816 121.934 32.2042 121.678L32.8602 120.526C33.0736 120.728 33.3082 120.883 33.5642 120.99C33.8202 121.096 34.0922 121.15 34.3802 121.15C34.7536 121.15 35.0629 121.054 35.3082 120.862C35.5536 120.67 35.7829 120.328 35.9962 119.838L36.5242 118.67L36.6842 118.478L40.0122 110.782H41.5162L37.4042 120.11C37.1589 120.707 36.8816 121.176 36.5722 121.518C36.2736 121.859 35.9429 122.099 35.5802 122.238C35.2176 122.387 34.8176 122.462 34.3802 122.462ZM36.3962 119.534L32.5242 110.782H34.1242L37.4202 118.334L36.3962 119.534ZM45.8284 119.39C44.975 119.39 44.159 119.262 43.3804 119.006C42.6017 118.739 41.9884 118.398 41.5404 117.982L42.1324 116.734C42.559 117.107 43.103 117.416 43.7644 117.662C44.4257 117.907 45.1137 118.03 45.8284 118.03C46.479 118.03 47.007 117.955 47.4124 117.806C47.8177 117.656 48.1164 117.454 48.3084 117.198C48.5004 116.931 48.5964 116.632 48.5964 116.302C48.5964 115.918 48.4684 115.608 48.2124 115.374C47.967 115.139 47.6417 114.952 47.2364 114.814C46.8417 114.664 46.4044 114.536 45.9244 114.43C45.4444 114.323 44.959 114.2 44.4684 114.062C43.9884 113.912 43.5457 113.726 43.1404 113.502C42.7457 113.278 42.4257 112.979 42.1804 112.606C41.935 112.222 41.8124 111.731 41.8124 111.134C41.8124 110.558 41.9617 110.03 42.2604 109.55C42.5697 109.059 43.039 108.67 43.6684 108.382C44.3084 108.083 45.119 107.934 46.1004 107.934C46.751 107.934 47.3964 108.019 48.0364 108.19C48.6764 108.36 49.231 108.606 49.7004 108.926L49.1724 110.206C48.6924 109.886 48.1857 109.656 47.6524 109.518C47.119 109.368 46.6017 109.294 46.1004 109.294C45.471 109.294 44.9537 109.374 44.5484 109.534C44.143 109.694 43.8444 109.907 43.6524 110.174C43.471 110.44 43.3804 110.739 43.3804 111.07C43.3804 111.464 43.503 111.779 43.7484 112.014C44.0044 112.248 44.3297 112.435 44.7244 112.574C45.1297 112.712 45.5724 112.84 46.0524 112.958C46.5324 113.064 47.0124 113.187 47.4924 113.326C47.983 113.464 48.4257 113.646 48.8204 113.87C49.2257 114.094 49.551 114.392 49.7964 114.766C50.0417 115.139 50.1644 115.619 50.1644 116.206C50.1644 116.771 50.0097 117.299 49.7004 117.79C49.391 118.27 48.911 118.659 48.2604 118.958C47.6204 119.246 46.8097 119.39 45.8284 119.39ZM57.0579 119.39C56.2045 119.39 55.4099 119.246 54.6739 118.958C53.9485 118.67 53.3192 118.27 52.7859 117.758C52.2525 117.235 51.8365 116.627 51.5379 115.934C51.2392 115.24 51.0899 114.483 51.0899 113.662C51.0899 112.84 51.2392 112.083 51.5379 111.39C51.8365 110.696 52.2525 110.094 52.7859 109.582C53.3192 109.059 53.9485 108.654 54.6739 108.366C55.3992 108.078 56.1939 107.934 57.0579 107.934C57.9112 107.934 58.6952 108.078 59.4099 108.366C60.1352 108.643 60.7645 109.043 61.2979 109.566C61.8419 110.078 62.2579 110.68 62.5459 111.374C62.8445 112.067 62.9939 112.83 62.9939 113.662C62.9939 114.494 62.8445 115.256 62.5459 115.95C62.2579 116.643 61.8419 117.251 61.2979 117.774C60.7645 118.286 60.1352 118.686 59.4099 118.974C58.6952 119.251 57.9112 119.39 57.0579 119.39ZM60.7219 121.598C60.3485 121.598 59.9912 121.55 59.6499 121.454C59.3085 121.368 58.9672 121.224 58.6259 121.022C58.2845 120.83 57.9325 120.574 57.5699 120.254C57.2072 119.944 56.8125 119.56 56.3859 119.102L58.0979 118.654C58.4179 119.048 58.7219 119.368 59.0099 119.614C59.3085 119.87 59.6019 120.051 59.8899 120.158C60.1779 120.275 60.4605 120.334 60.7379 120.334C61.5379 120.334 62.2205 120.014 62.7859 119.374L63.5379 120.286C62.8125 121.16 61.8739 121.598 60.7219 121.598ZM57.0579 117.966C57.6765 117.966 58.2472 117.859 58.7699 117.646C59.3032 117.432 59.7619 117.128 60.1459 116.734C60.5405 116.339 60.8445 115.88 61.0579 115.358C61.2819 114.835 61.3939 114.27 61.3939 113.662C61.3939 113.043 61.2819 112.472 61.0579 111.95C60.8445 111.427 60.5405 110.974 60.1459 110.59C59.7619 110.195 59.3032 109.891 58.7699 109.678C58.2472 109.464 57.6765 109.358 57.0579 109.358C56.4285 109.358 55.8472 109.464 55.3139 109.678C54.7912 109.891 54.3325 110.195 53.9379 110.59C53.5432 110.974 53.2339 111.427 53.0099 111.95C52.7965 112.472 52.6899 113.043 52.6899 113.662C52.6899 114.27 52.7965 114.835 53.0099 115.358C53.2339 115.88 53.5432 116.339 53.9379 116.734C54.3325 117.128 54.7912 117.432 55.3139 117.646C55.8472 117.859 56.4285 117.966 57.0579 117.966ZM64.9394 119.262V108.062H66.5394V117.87H72.6034V119.262H64.9394Z" fill="#202020"/>
</svg>
