<svg width="90" height="128" viewBox="0 0 90 128" fill="none" xmlns="http://www.w3.org/2000/svg">
<rect y="0.761719" width="90" height="90" rx="24" fill="#F8F8FB"/>
<path d="M43.6305 24.1931C44.6932 23.5839 46.079 23.5816 47.1417 24.1931C52.4875 27.2139 57.8344 30.2301 63.1802 33.2508C64.184 33.8185 64.8567 34.9366 64.8463 36.0951V54.2681C64.8544 55.4751 64.1148 56.6197 63.0544 57.1735C57.7271 60.177 52.4009 63.1851 47.0736 66.1885C45.989 66.8093 44.5755 66.762 43.5244 66.0904C41.9263 65.1639 40.3271 64.2431 38.729 63.3178C38.4025 63.1228 38.0344 62.9681 37.8036 62.652C38.0078 62.3774 38.3725 62.3428 38.669 62.2228C39.3348 62.0104 39.9475 61.6701 40.5602 61.3401C40.7148 61.2339 40.904 61.2754 41.0528 61.3701C42.4178 62.1535 43.7725 62.9589 45.1432 63.7354C45.4352 63.9039 45.7317 63.6789 45.9809 63.5393C51.2102 60.5854 56.444 57.6408 61.6721 54.6847C61.8659 54.5924 61.9721 54.3858 61.9571 54.1747C61.9605 48.1793 61.9571 42.1839 61.9594 36.1885C61.9813 35.9474 61.8417 35.727 61.6248 35.6278C56.3148 32.6381 51.0071 29.6428 45.6994 26.652C45.5102 26.5228 45.2621 26.5228 45.074 26.652C39.7652 29.6428 34.4586 32.6404 29.1509 35.6301C28.9328 35.7293 28.7875 35.9474 28.814 36.1885V54.1747C28.7944 54.387 28.9098 54.5889 29.1025 54.6801C30.5194 55.4831 31.9375 56.2804 33.3555 57.0812C34.154 57.5116 35.1336 57.7666 36.014 57.4366C36.7905 57.1597 37.3352 56.3658 37.3202 55.542C37.3271 49.5824 37.3167 43.6216 37.3259 37.662C37.3063 37.3966 37.5567 37.1785 37.814 37.2039C38.4948 37.1993 39.1755 37.1947 39.8563 37.2062C40.1413 37.1993 40.3363 37.4843 40.3017 37.7508C40.2994 43.7485 40.3086 49.7462 40.2971 55.7439C40.2994 57.342 39.6417 59.082 38.1636 59.8631C36.3417 60.807 34.0905 60.6074 32.2905 59.7016C30.7328 58.9251 29.2467 58.0078 27.7167 57.1747C26.654 56.6231 25.9178 55.4739 25.9259 54.2681V36.0962C25.9144 34.9135 26.6136 33.7735 27.6509 33.2162L43.6305 24.1931Z" fill="#0066FF"/>
<path d="M48.2775 36.7821C50.6014 36.6321 53.0891 36.6933 55.1798 37.8379C56.7987 38.7148 57.6952 40.5563 57.7241 42.354C57.6791 42.5963 57.4252 42.7313 57.1933 42.714C56.5195 42.714 55.8456 42.7233 55.1718 42.7094C54.8856 42.721 54.7195 42.4567 54.6837 42.204C54.4898 41.3433 54.0202 40.4917 53.2102 40.0763C51.9675 39.4533 50.5252 39.4856 49.1695 39.4983C48.1806 39.5513 47.1156 39.6367 46.2779 40.2183C45.6341 40.659 45.4379 41.5498 45.6675 42.2663C45.8845 42.781 46.4787 42.9471 46.9645 43.0994C49.7648 43.8321 52.7314 43.7594 55.4787 44.7229C56.6152 45.1152 57.7287 45.8802 58.1175 47.0698C58.6252 48.6656 58.4037 50.5729 57.2683 51.8537C56.3475 52.9083 55.0068 53.4817 53.6683 53.7933C51.8902 54.1902 50.0429 54.2006 48.2371 54.024C46.5375 53.8302 44.7698 53.3848 43.4579 52.2263C42.3364 51.2525 41.7883 49.7352 41.8425 48.271C41.8564 48.024 42.1021 47.851 42.3387 47.8717C43.0183 47.866 43.6968 47.8648 44.3764 47.8717C44.6475 47.8533 44.8483 48.0875 44.861 48.3437C44.9879 49.1629 45.2948 50.0237 46.0102 50.5094C47.3902 51.399 49.121 51.339 50.7006 51.3633C52.0102 51.3056 53.4791 51.2883 54.5475 50.4229C55.1106 49.929 55.2779 49.104 55.1245 48.3933C54.9606 47.7933 54.3329 47.5152 53.7941 47.3317C51.0306 46.4583 48.0295 46.7756 45.2925 45.7856C44.1814 45.3933 43.1071 44.6513 42.6802 43.509C42.0837 41.8937 42.3571 39.8952 43.6114 38.6571C44.8345 37.426 46.5998 36.9517 48.2775 36.7821Z" fill="#0066FF"/>
<path d="M18.361 119.262V108.062H19.673L27.081 117.262H26.393V108.062H27.993V119.262H26.681L19.273 110.062H19.961V119.262H18.361ZM34.2534 119.358C33.4 119.358 32.6427 119.171 31.9814 118.798C31.32 118.424 30.7974 117.912 30.4134 117.262C30.0294 116.6 29.8374 115.854 29.8374 115.022C29.8374 114.179 30.0294 113.432 30.4134 112.782C30.7974 112.131 31.32 111.624 31.9814 111.262C32.6427 110.888 33.4 110.702 34.2534 110.702C35.096 110.702 35.848 110.888 36.5094 111.262C37.1814 111.624 37.704 112.131 38.0774 112.782C38.4614 113.422 38.6534 114.168 38.6534 115.022C38.6534 115.864 38.4614 116.611 38.0774 117.262C37.704 117.912 37.1814 118.424 36.5094 118.798C35.848 119.171 35.096 119.358 34.2534 119.358ZM34.2534 118.014C34.7974 118.014 35.2827 117.891 35.7094 117.646C36.1467 117.4 36.488 117.054 36.7334 116.606C36.9787 116.147 37.1014 115.619 37.1014 115.022C37.1014 114.414 36.9787 113.891 36.7334 113.454C36.488 113.006 36.1467 112.659 35.7094 112.414C35.2827 112.168 34.7974 112.046 34.2534 112.046C33.7094 112.046 33.224 112.168 32.7974 112.414C32.3707 112.659 32.0294 113.006 31.7734 113.454C31.5174 113.891 31.3894 114.414 31.3894 115.022C31.3894 115.619 31.5174 116.147 31.7734 116.606C32.0294 117.054 32.3707 117.4 32.7974 117.646C33.224 117.891 33.7094 118.014 34.2534 118.014ZM43.7816 119.358C42.9603 119.358 42.2243 119.176 41.5736 118.814C40.9336 118.451 40.427 117.944 40.0536 117.294C39.6803 116.643 39.4936 115.886 39.4936 115.022C39.4936 114.158 39.6803 113.406 40.0536 112.766C40.427 112.115 40.9336 111.608 41.5736 111.246C42.2243 110.883 42.9603 110.702 43.7816 110.702C44.4963 110.702 45.1416 110.862 45.7176 111.182C46.2936 111.502 46.7523 111.982 47.0936 112.622C47.4456 113.262 47.6216 114.062 47.6216 115.022C47.6216 115.982 47.451 116.782 47.1096 117.422C46.779 118.062 46.3256 118.547 45.7496 118.878C45.1736 119.198 44.5176 119.358 43.7816 119.358ZM43.9096 118.014C44.443 118.014 44.923 117.891 45.3496 117.646C45.787 117.4 46.1283 117.054 46.3736 116.606C46.6296 116.147 46.7576 115.619 46.7576 115.022C46.7576 114.414 46.6296 113.891 46.3736 113.454C46.1283 113.006 45.787 112.659 45.3496 112.414C44.923 112.168 44.443 112.046 43.9096 112.046C43.3656 112.046 42.8803 112.168 42.4536 112.414C42.027 112.659 41.6856 113.006 41.4296 113.454C41.1736 113.891 41.0456 114.414 41.0456 115.022C41.0456 115.619 41.1736 116.147 41.4296 116.606C41.6856 117.054 42.027 117.4 42.4536 117.646C42.8803 117.891 43.3656 118.014 43.9096 118.014ZM46.8056 119.262V116.974L46.9016 115.006L46.7416 113.038V107.39H48.2776V119.262H46.8056ZM54.4599 119.358C53.5532 119.358 52.7532 119.171 52.0599 118.798C51.3772 118.424 50.8439 117.912 50.4599 117.262C50.0865 116.611 49.8999 115.864 49.8999 115.022C49.8999 114.179 50.0812 113.432 50.4439 112.782C50.8172 112.131 51.3239 111.624 51.9639 111.262C52.6145 110.888 53.3452 110.702 54.1559 110.702C54.9772 110.702 55.7025 110.883 56.3319 111.246C56.9612 111.608 57.4519 112.12 57.8039 112.782C58.1665 113.432 58.3479 114.195 58.3479 115.07C58.3479 115.134 58.3425 115.208 58.3319 115.294C58.3319 115.379 58.3265 115.459 58.3159 115.534H51.0999V114.43H57.5159L56.8919 114.814C56.9025 114.27 56.7905 113.784 56.5559 113.358C56.3212 112.931 55.9959 112.6 55.5799 112.366C55.1745 112.12 54.6999 111.998 54.1559 111.998C53.6225 111.998 53.1479 112.12 52.7319 112.366C52.3159 112.6 51.9905 112.936 51.7559 113.374C51.5212 113.8 51.4039 114.291 51.4039 114.846V115.102C51.4039 115.667 51.5319 116.174 51.7879 116.622C52.0545 117.059 52.4225 117.4 52.8919 117.646C53.3612 117.891 53.8999 118.014 54.5079 118.014C55.0092 118.014 55.4625 117.928 55.8679 117.758C56.2839 117.587 56.6465 117.331 56.9559 116.99L57.8039 117.982C57.4199 118.43 56.9399 118.771 56.3639 119.006C55.7985 119.24 55.1639 119.358 54.4599 119.358ZM60.3487 119.358C60.0501 119.358 59.7941 119.256 59.5807 119.054C59.3674 118.84 59.2607 118.574 59.2607 118.254C59.2607 117.934 59.3674 117.672 59.5807 117.47C59.7941 117.267 60.0501 117.166 60.3487 117.166C60.6367 117.166 60.8821 117.267 61.0847 117.47C61.2981 117.672 61.4047 117.934 61.4047 118.254C61.4047 118.574 61.2981 118.84 61.0847 119.054C60.8821 119.256 60.6367 119.358 60.3487 119.358ZM62.174 122.462C61.822 122.462 61.486 122.419 61.166 122.334C60.8353 122.248 60.558 122.12 60.334 121.95L60.83 120.766C61.15 121.032 61.566 121.166 62.078 121.166C62.4833 121.166 62.7927 121.038 63.006 120.782C63.23 120.536 63.342 120.168 63.342 119.678V110.782H64.878V119.646C64.878 120.51 64.6433 121.192 64.174 121.694C63.7153 122.206 63.0487 122.462 62.174 122.462ZM64.11 109.15C63.8113 109.15 63.5607 109.054 63.358 108.862C63.166 108.67 63.07 108.435 63.07 108.158C63.07 107.87 63.166 107.63 63.358 107.438C63.5607 107.246 63.8113 107.15 64.11 107.15C64.4087 107.15 64.654 107.246 64.846 107.438C65.0487 107.619 65.15 107.848 65.15 108.126C65.15 108.414 65.054 108.659 64.862 108.862C64.67 109.054 64.4193 109.15 64.11 109.15ZM69.7409 119.358C69.0369 119.358 68.3649 119.262 67.7249 119.07C67.0955 118.878 66.5995 118.643 66.2369 118.366L66.8769 117.15C67.2395 117.395 67.6875 117.603 68.2209 117.774C68.7542 117.944 69.2982 118.03 69.8529 118.03C70.5675 118.03 71.0795 117.928 71.3889 117.726C71.7089 117.523 71.8689 117.24 71.8689 116.878C71.8689 116.611 71.7729 116.403 71.5809 116.254C71.3889 116.104 71.1329 115.992 70.8129 115.918C70.5035 115.843 70.1569 115.779 69.7729 115.726C69.3889 115.662 69.0049 115.587 68.6209 115.502C68.2369 115.406 67.8849 115.278 67.5649 115.118C67.2449 114.947 66.9889 114.718 66.7969 114.43C66.6049 114.131 66.5089 113.736 66.5089 113.246C66.5089 112.734 66.6529 112.286 66.9409 111.902C67.2289 111.518 67.6342 111.224 68.1569 111.022C68.6902 110.808 69.3195 110.702 70.0449 110.702C70.5995 110.702 71.1595 110.771 71.7249 110.91C72.3009 111.038 72.7702 111.224 73.1329 111.47L72.4769 112.686C72.0929 112.43 71.6929 112.254 71.2769 112.158C70.8609 112.062 70.4449 112.014 70.0289 112.014C69.3569 112.014 68.8555 112.126 68.5249 112.35C68.1942 112.563 68.0289 112.84 68.0289 113.182C68.0289 113.47 68.1249 113.694 68.3169 113.854C68.5195 114.003 68.7755 114.12 69.0849 114.206C69.4049 114.291 69.7569 114.366 70.1409 114.43C70.5249 114.483 70.9089 114.558 71.2929 114.654C71.6769 114.739 72.0235 114.862 72.3329 115.022C72.6529 115.182 72.9089 115.406 73.1009 115.694C73.3035 115.982 73.4049 116.366 73.4049 116.846C73.4049 117.358 73.2555 117.8 72.9569 118.174C72.6582 118.547 72.2369 118.84 71.6929 119.054C71.1489 119.256 70.4982 119.358 69.7409 119.358Z" fill="#202020"/>
</svg>
