<svg width="92" height="128" viewBox="0 0 92 128" fill="none" xmlns="http://www.w3.org/2000/svg">
<rect y="0.761719" width="90" height="90" rx="24" fill="#F8F8FB"/>
<path d="M32.6606 49.7118C33.4818 49.9452 34.6593 50.3737 34.5356 52.7568C34.5937 53.4627 34.8112 55.4465 35.0587 57.3796C35.2621 58.964 35.4806 60.5624 35.6334 61.4783C35.8509 62.729 36.1921 63.6299 36.81 64.2627C37.4212 64.9021 38.3512 65.323 39.7256 65.6221C41.295 65.9558 42.2831 65.6287 42.9225 65.084C43.5843 64.5243 43.9331 63.7171 44.1506 63.1715C44.354 62.6493 44.5068 61.2533 44.594 59.3858C44.6812 57.5108 44.6962 55.2065 44.6456 52.874L44.6437 52.7615C44.6353 52.304 44.6287 51.8783 44.7834 51.4349C44.9718 50.9193 45.3065 50.4533 45.7209 50.1552C46.1053 49.8787 46.6584 49.6902 47.1309 49.7333C47.219 49.7418 47.3062 49.7558 47.3925 49.7774C47.3118 49.4587 47.1956 49.1099 47.0643 48.7405C46.8993 48.2765 46.86 48.1377 46.8112 48.0027C46.7521 47.8424 46.68 47.6868 46.3678 47.0015C45.5821 45.2493 44.58 43.0105 45.6984 37.814C46.019 36.3608 46.8328 35.5977 47.8575 35.278C48.5118 35.0746 49.2384 35.0596 49.9575 35.1693C50.6484 35.278 51.3393 35.489 51.9487 35.7355C52.3321 35.8949 52.7015 36.0852 53.054 36.3027C52.814 33.2652 51.4912 26.0408 44.2312 26.1637C38.2125 26.2583 34.8337 30.2043 33.2775 33.0318C32.8846 33.7368 32.6165 34.3696 32.4487 34.8487L32.4478 34.8524C32.4337 34.888 32.4196 34.9227 32.4131 34.9574C35.9662 34.5871 37.3912 35.8227 37.6893 37.6902C38.1112 40.3152 35.9737 44.1449 34.8909 46.0855L34.8178 46.2168C34.5993 46.6105 34.4334 46.9077 34.3753 47.0512C33.9468 48.0908 33.4162 48.7602 32.9943 49.2758L32.9156 49.3771C32.8171 49.5018 32.73 49.6143 32.6606 49.7118Z" fill="#0066FF"/>
<path d="M48.1925 52.1233C48.9631 53.1049 49.2031 53.403 51.5937 53.8971C52.0222 53.9843 52.3137 54.079 52.4881 54.1661C52.2697 54.319 51.935 54.4568 51.6444 54.5299C51.0556 54.6752 50.075 54.8561 49.0353 54.6752C48.0106 54.4999 46.9137 53.9777 46.0194 52.7346C45.8375 52.4805 45.8741 52.1308 45.9678 51.8477C46.0709 51.5711 46.2444 51.3246 46.4478 51.1793C46.6006 51.0696 46.8481 50.9749 47.0225 50.9899C47.1294 50.9965 47.2306 51.0433 47.3056 51.1211C47.6206 51.438 47.9159 51.7727 48.1925 52.1243V52.1233ZM52.8369 48.8168C52.6634 49.0043 52.4787 49.1815 52.2837 49.3474C53.45 50.5886 54.5769 51.8655 55.6634 53.1771C56.0637 53.6571 56.4416 53.9477 56.7903 54.0715C57.4297 54.304 58.0916 53.9552 58.7384 53.2352C59.5156 52.3708 60.2506 51.0255 60.9106 49.4561C63.0191 44.463 64.4075 37.3043 64.4937 35.553C65.0909 23.5455 54.1662 26.2136 50.7875 27.3255C54.53 31.0033 54.3631 37.5808 54.3556 37.6315C54.3622 37.7674 54.3528 37.9352 54.3397 38.1471L54.3341 38.2633C54.2684 39.288 54.1522 41.2577 54.4569 43.4458C54.5347 43.9774 54.5469 44.5165 54.4944 45.0518C54.3556 46.5124 53.7444 47.8211 52.8369 48.8168ZM32.1809 32.4274C33.3584 30.2758 35.5091 27.5365 38.9328 26.0243C37.2903 25.6896 34.6447 25.399 31.9925 26.163C30.1241 26.7077 28.2491 27.7755 26.7153 29.7311C25.8284 30.8721 25.9962 34.0408 27.0716 37.9296C28.0016 41.3093 29.63 45.168 31.8612 48.679C31.91 48.6227 31.9597 48.559 32.0094 48.4952L32.0141 48.4896C32.0356 48.468 32.0572 48.439 32.0797 48.4099C30.7859 46.2874 31.0325 44.238 31.265 42.3124C31.3587 41.5558 31.4469 40.8293 31.4244 40.1393C31.3962 39.4455 31.31 38.8502 31.2256 38.2783L31.2144 38.1986C31.0906 37.428 30.9809 36.694 31.0109 35.7996C31.0109 35.7893 31.0091 35.778 31.0072 35.7677C31.0053 35.7565 31.0034 35.7452 31.0034 35.734C30.9669 35.524 31.0466 35.044 31.265 34.4336C31.5125 33.7399 31.8181 33.0686 32.1809 32.4274Z" fill="#0066FF"/>
<path fill-rule="evenodd" clip-rule="evenodd" d="M53.0848 37.9954C53.0913 37.8717 53.0979 37.7479 53.0979 37.6242C53.0904 37.5951 52.3929 37.2754 51.476 36.8976C50.9454 36.6867 50.3566 36.4973 49.7754 36.4101C49.2232 36.3304 48.6851 36.3304 48.2285 36.4758C47.6248 36.6642 47.1298 37.1442 46.9348 38.0742C45.8941 42.8789 46.8035 44.8992 47.516 46.4836C47.8779 47.2823 47.9866 47.5898 48.1235 47.977L48.2332 48.2854C48.3851 48.7017 48.5182 49.1011 48.6129 49.4854H48.626C48.8116 49.4779 49.0029 49.4704 49.1876 49.4414C50.2338 49.2961 51.1863 48.7589 51.9063 47.9667C52.6704 47.1295 53.141 46.0645 53.2432 44.9358C53.2863 44.5139 53.2788 44.0704 53.2141 43.6204C52.886 41.287 53.0107 39.2451 53.0754 38.1914L53.0848 37.9954ZM47.8573 37.3111C48.2754 37.0861 48.9054 37.0017 49.3695 37.1011C49.6929 37.1817 49.8307 37.3392 49.841 37.5286C49.8513 37.717 49.7332 37.9364 49.5438 38.1398C49.347 38.3433 49.0713 38.5251 48.7591 38.5692H48.7498C48.431 38.6123 48.132 38.5036 47.9145 38.3583C47.682 38.1989 47.5291 37.9804 47.5076 37.8276C47.486 37.6308 47.6163 37.4498 47.8563 37.312L47.8573 37.3111ZM36.4545 37.8867C36.2576 36.6576 35.1457 35.872 32.2676 36.2292C32.2751 36.8611 32.3613 37.4283 32.457 38.0161L32.4663 38.0817C32.5582 38.6939 32.6538 39.3379 32.682 40.102C32.7035 40.8511 32.6135 41.6208 32.5207 42.4101L32.5151 42.457C32.3266 44.0133 32.1307 45.6558 32.8854 47.2542C33.0016 47.0508 33.1104 46.8183 33.2201 46.5708C33.3138 46.3458 33.5182 45.9679 33.7938 45.4804C34.811 43.657 36.8032 40.0804 36.4545 37.8867ZM33.7066 37.6458C33.5248 37.4573 33.416 37.2314 33.4376 37.1011C33.4601 36.9483 33.6045 36.8386 33.8295 36.7879C34.0263 36.7373 34.2879 36.7298 34.5635 36.7664C34.8401 36.8095 35.0866 36.8901 35.262 36.9848C35.471 37.1039 35.5554 37.2389 35.5526 37.3729C35.5498 37.5698 35.3604 37.7639 35.1026 37.9073C34.8823 38.0254 34.662 38.0676 34.452 38.0442C34.182 38.0142 33.927 37.8754 33.7066 37.6458Z" fill="#0066FF"/>
<path d="M32.0252 50.8336C31.9858 50.8233 31.9483 50.812 31.9127 50.8008C30.4314 51.9192 27.9545 51.457 26.3158 51.1523L26.3008 51.1495C26.6936 51.5273 27.332 51.9558 28.0961 52.312C28.8377 52.6542 30.0002 52.8867 31.0905 52.9523C31.7158 52.9814 32.3045 52.9673 32.748 52.8727C33.0311 52.8211 33.2205 52.763 33.2786 52.7048C33.3508 51.2142 32.6673 51.0211 32.2305 50.8973L32.2248 50.8955C32.1573 50.873 32.0889 50.8523 32.0252 50.8336Z" fill="#0066FF"/>
<path fill-rule="evenodd" clip-rule="evenodd" d="M32.5643 55.9868C32.569 56.0215 32.5727 56.0515 32.5746 56.0777C32.6909 60.7727 33.4465 63.469 34.6315 65.148C35.9909 67.0962 37.684 67.6118 39.5881 68.0187C44.4874 69.0649 45.5187 65.9112 46.0943 64.1374L46.1252 64.0455L46.1946 63.8543C46.4421 63.1783 46.6015 62.328 46.7102 61.369C46.8134 60.453 46.8631 59.508 46.9006 58.5565C46.9081 58.3971 46.9146 58.1983 46.9202 57.9846C46.9249 57.8271 46.9296 57.6612 46.9362 57.4952C46.9437 57.2187 46.9287 56.9571 46.9081 56.7171C47.4499 56.959 48.0218 57.1296 48.6077 57.2262C50.1049 57.4802 51.4502 57.2402 52.2565 57.0368C52.9324 56.8699 53.7902 56.4771 54.3209 55.9755C54.4081 55.8958 54.4943 55.8012 54.5674 55.714C55.0174 56.0852 55.4834 56.3468 55.9559 56.5137C57.7146 57.1465 59.2624 56.4855 60.6068 54.9874C61.5818 53.9121 62.4537 52.3277 63.2234 50.5033C65.4481 45.2271 66.9162 37.6174 67.0109 35.7424C67.7946 20.058 53.6881 23.808 49.8434 25.1168C49.1684 24.7137 48.4465 24.3996 47.6918 24.1793C46.6456 23.8671 45.4831 23.6993 44.1959 23.7208C43.5424 23.7283 42.8946 23.7724 42.2412 23.8371C41.7884 23.8868 41.3374 23.9515 40.8893 24.034C39.319 23.583 35.6412 22.7749 31.9493 23.6552C29.4199 24.259 26.8324 25.5958 24.7399 28.264C23.359 30.0293 23.3721 34.0483 24.6527 38.6712C25.5752 42.0143 27.1306 45.7868 29.2465 49.2968C28.7731 49.1805 28.0249 49.0212 26.8399 48.7737C25.9174 48.5843 25.1974 48.6499 24.6743 48.9049C23.7649 49.3408 23.3731 50.0599 23.4387 50.9974C23.4668 51.4774 23.6637 51.9499 23.9834 52.4008C24.514 53.1199 25.6699 54.0283 27.0434 54.6677C27.7118 54.9733 28.5771 55.2133 29.4715 55.3662C30.3715 55.518 31.3099 55.5837 32.1171 55.5471H32.1968L32.509 55.519C32.5165 55.5912 32.524 55.6633 32.5381 55.744C32.5474 55.8452 32.5568 55.924 32.5643 55.9868ZM26.5924 49.9296C29.884 50.613 30.8656 50.1837 31.1562 49.908C28.6774 46.143 26.8756 41.9271 25.8649 38.2643C24.6874 34.0052 24.5937 30.4146 25.7271 28.9605C27.4493 26.7668 29.5502 25.5668 31.6427 24.964C34.8115 24.048 37.9371 24.498 39.6452 24.8983L39.7334 24.9171L39.9649 24.9705C40.0015 24.9855 40.6484 25.1674 41.1059 25.2912C42.0584 25.0577 43.0981 24.9199 44.209 24.9058C46.5059 24.8693 48.2796 25.4505 49.6531 26.388C51.964 25.5302 66.4934 20.7265 65.7518 35.6112C65.6581 37.4205 64.2331 44.8127 62.0674 49.9437C61.3474 51.6443 60.5487 53.1049 59.6768 54.079C58.6737 55.1843 57.5749 55.6858 56.3768 55.2565C55.8096 55.053 55.2424 54.6462 54.6977 53.9843C53.164 52.1383 51.7615 50.6196 51.2384 50.0674C50.6543 50.3815 50.0196 50.5905 49.3624 50.6852C49.1581 50.7133 48.9518 50.7302 48.7446 50.7358C48.7446 50.7649 48.7446 50.794 48.7381 50.823C48.8909 50.9927 49.039 51.1671 49.1815 51.3462C49.7337 52.0521 49.9081 52.2696 51.8412 52.669C52.7131 52.8508 53.2362 53.0908 53.5193 53.3599C53.8174 53.6355 53.9121 53.9487 53.869 54.2683C53.8249 54.5449 53.6796 54.784 53.4621 54.9874C53.0909 55.3362 52.459 55.6202 51.9499 55.7505C51.2524 55.9249 50.089 56.1358 48.8177 55.9183C47.8577 55.7505 46.849 55.3437 45.9321 54.5149C45.9462 56.2887 45.9171 57.9968 45.8524 59.4433C45.7587 61.4271 45.5834 62.9758 45.3143 63.6368C45.0452 64.3052 44.6234 65.3008 43.7374 66.0499C42.8365 66.8055 41.4987 67.2855 39.4634 66.8496C37.8359 66.5008 36.709 65.9702 35.9027 65.134C35.0956 64.2987 34.6596 63.1933 34.3981 61.6896C34.2452 60.8027 34.0202 59.1743 33.8168 57.5318C33.649 56.224 33.4962 54.9302 33.3949 54.0068C33.2712 54.0433 33.1324 54.0799 32.9956 54.109C32.4359 54.2177 31.7449 54.2468 31.0259 54.2102C29.7977 54.138 28.4524 53.8615 27.5731 53.4546C26.3881 52.9015 25.4224 52.1608 25.0006 51.5796C24.8187 51.3246 24.7099 51.078 24.6949 50.838C24.6659 50.4452 24.8327 50.148 25.2106 49.9662C25.5012 49.8283 25.9531 49.7983 26.5924 49.9296Z" fill="#0066FF"/>
<path d="M1.73145 119.262V108.062H6.09945C7.08078 108.062 7.91811 108.216 8.61145 108.526C9.30478 108.835 9.83811 109.283 10.2114 109.87C10.5848 110.456 10.7714 111.155 10.7714 111.966C10.7714 112.776 10.5848 113.475 10.2114 114.062C9.83811 114.638 9.30478 115.086 8.61145 115.406C7.91811 115.715 7.08078 115.87 6.09945 115.87H2.61145L3.33145 115.118V119.262H1.73145ZM3.33145 115.278L2.61145 114.478H6.05145C7.07545 114.478 7.84878 114.259 8.37145 113.822C8.90478 113.384 9.17145 112.766 9.17145 111.966C9.17145 111.166 8.90478 110.547 8.37145 110.11C7.84878 109.672 7.07545 109.454 6.05145 109.454H2.61145L3.33145 108.654V115.278ZM15.9988 119.358C15.1455 119.358 14.3882 119.171 13.7268 118.798C13.0655 118.424 12.5428 117.912 12.1588 117.262C11.7748 116.6 11.5828 115.854 11.5828 115.022C11.5828 114.179 11.7748 113.432 12.1588 112.782C12.5428 112.131 13.0655 111.624 13.7268 111.262C14.3882 110.888 15.1455 110.702 15.9988 110.702C16.8415 110.702 17.5935 110.888 18.2548 111.262C18.9268 111.624 19.4495 112.131 19.8228 112.782C20.2068 113.422 20.3988 114.168 20.3988 115.022C20.3988 115.864 20.2068 116.611 19.8228 117.262C19.4495 117.912 18.9268 118.424 18.2548 118.798C17.5935 119.171 16.8415 119.358 15.9988 119.358ZM15.9988 118.014C16.5428 118.014 17.0282 117.891 17.4548 117.646C17.8922 117.4 18.2335 117.054 18.4788 116.606C18.7242 116.147 18.8468 115.619 18.8468 115.022C18.8468 114.414 18.7242 113.891 18.4788 113.454C18.2335 113.006 17.8922 112.659 17.4548 112.414C17.0282 112.168 16.5428 112.046 15.9988 112.046C15.4548 112.046 14.9695 112.168 14.5428 112.414C14.1162 112.659 13.7748 113.006 13.5188 113.454C13.2628 113.891 13.1348 114.414 13.1348 115.022C13.1348 115.619 13.2628 116.147 13.5188 116.606C13.7748 117.054 14.1162 117.4 14.5428 117.646C14.9695 117.891 15.4548 118.014 15.9988 118.014ZM24.4551 119.358C23.7511 119.358 23.0791 119.262 22.4391 119.07C21.8097 118.878 21.3137 118.643 20.9511 118.366L21.5911 117.15C21.9537 117.395 22.4017 117.603 22.9351 117.774C23.4684 117.944 24.0124 118.03 24.5671 118.03C25.2817 118.03 25.7937 117.928 26.1031 117.726C26.4231 117.523 26.5831 117.24 26.5831 116.878C26.5831 116.611 26.4871 116.403 26.2951 116.254C26.1031 116.104 25.8471 115.992 25.5271 115.918C25.2177 115.843 24.8711 115.779 24.4871 115.726C24.1031 115.662 23.7191 115.587 23.3351 115.502C22.9511 115.406 22.5991 115.278 22.2791 115.118C21.9591 114.947 21.7031 114.718 21.5111 114.43C21.3191 114.131 21.2231 113.736 21.2231 113.246C21.2231 112.734 21.3671 112.286 21.6551 111.902C21.9431 111.518 22.3484 111.224 22.8711 111.022C23.4044 110.808 24.0337 110.702 24.7591 110.702C25.3137 110.702 25.8737 110.771 26.4391 110.91C27.0151 111.038 27.4844 111.224 27.8471 111.47L27.1911 112.686C26.8071 112.43 26.4071 112.254 25.9911 112.158C25.5751 112.062 25.1591 112.014 24.7431 112.014C24.0711 112.014 23.5697 112.126 23.2391 112.35C22.9084 112.563 22.7431 112.84 22.7431 113.182C22.7431 113.47 22.8391 113.694 23.0311 113.854C23.2337 114.003 23.4897 114.12 23.7991 114.206C24.1191 114.291 24.4711 114.366 24.8551 114.43C25.2391 114.483 25.6231 114.558 26.0071 114.654C26.3911 114.739 26.7377 114.862 27.0471 115.022C27.3671 115.182 27.6231 115.406 27.8151 115.694C28.0177 115.982 28.1191 116.366 28.1191 116.846C28.1191 117.358 27.9697 117.8 27.6711 118.174C27.3724 118.547 26.9511 118.84 26.4071 119.054C25.8631 119.256 25.2124 119.358 24.4551 119.358ZM32.4507 119.358C31.5974 119.358 30.936 119.128 30.4667 118.67C29.9974 118.211 29.7627 117.555 29.7627 116.702V108.926H31.2987V116.638C31.2987 117.096 31.4107 117.448 31.6347 117.694C31.8694 117.939 32.2 118.062 32.6267 118.062C33.1067 118.062 33.5067 117.928 33.8267 117.662L34.3067 118.766C34.072 118.968 33.7894 119.118 33.4587 119.214C33.1387 119.31 32.8027 119.358 32.4507 119.358ZM28.3227 112.046V110.782H33.7307V112.046H28.3227ZM39.0944 122.462C38.3158 122.462 37.5584 122.35 36.8224 122.126C36.0971 121.912 35.5051 121.603 35.0464 121.198L35.7824 120.014C36.1771 120.355 36.6624 120.622 37.2384 120.814C37.8144 121.016 38.4171 121.118 39.0464 121.118C40.0491 121.118 40.7851 120.883 41.2544 120.414C41.7238 119.944 41.9584 119.23 41.9584 118.27V116.478L42.1184 114.798L42.0384 113.102V110.782H43.4944V118.11C43.4944 119.603 43.1211 120.702 42.3744 121.406C41.6278 122.11 40.5344 122.462 39.0944 122.462ZM38.9024 118.91C38.0811 118.91 37.3451 118.739 36.6944 118.398C36.0544 118.046 35.5424 117.56 35.1584 116.942C34.7851 116.323 34.5984 115.608 34.5984 114.798C34.5984 113.976 34.7851 113.262 35.1584 112.654C35.5424 112.035 36.0544 111.555 36.6944 111.214C37.3451 110.872 38.0811 110.702 38.9024 110.702C39.6278 110.702 40.2891 110.851 40.8864 111.15C41.4838 111.438 41.9584 111.886 42.3104 112.494C42.6731 113.102 42.8544 113.87 42.8544 114.798C42.8544 115.715 42.6731 116.478 42.3104 117.086C41.9584 117.694 41.4838 118.152 40.8864 118.462C40.2891 118.76 39.6278 118.91 38.9024 118.91ZM39.0784 117.566C39.6438 117.566 40.1451 117.448 40.5824 117.214C41.0198 116.979 41.3611 116.654 41.6064 116.238C41.8624 115.822 41.9904 115.342 41.9904 114.798C41.9904 114.254 41.8624 113.774 41.6064 113.358C41.3611 112.942 41.0198 112.622 40.5824 112.398C40.1451 112.163 39.6438 112.046 39.0784 112.046C38.5131 112.046 38.0064 112.163 37.5584 112.398C37.1211 112.622 36.7744 112.942 36.5184 113.358C36.2731 113.774 36.1504 114.254 36.1504 114.798C36.1504 115.342 36.2731 115.822 36.5184 116.238C36.7744 116.654 37.1211 116.979 37.5584 117.214C38.0064 117.448 38.5131 117.566 39.0784 117.566ZM45.9293 119.262V110.782H47.4013V113.086L47.2573 112.51C47.492 111.923 47.8867 111.475 48.4413 111.166C48.996 110.856 49.6787 110.702 50.4893 110.702V112.19C50.4253 112.179 50.3613 112.174 50.2973 112.174C50.244 112.174 50.1907 112.174 50.1373 112.174C49.316 112.174 48.6653 112.419 48.1853 112.91C47.7053 113.4 47.4653 114.11 47.4653 115.038V119.262H45.9293ZM55.5803 119.358C54.6737 119.358 53.8737 119.171 53.1803 118.798C52.4977 118.424 51.9643 117.912 51.5803 117.262C51.207 116.611 51.0203 115.864 51.0203 115.022C51.0203 114.179 51.2017 113.432 51.5643 112.782C51.9377 112.131 52.4443 111.624 53.0843 111.262C53.735 110.888 54.4657 110.702 55.2763 110.702C56.0977 110.702 56.823 110.883 57.4523 111.246C58.0817 111.608 58.5723 112.12 58.9243 112.782C59.287 113.432 59.4683 114.195 59.4683 115.07C59.4683 115.134 59.463 115.208 59.4523 115.294C59.4523 115.379 59.447 115.459 59.4363 115.534H52.2203V114.43H58.6363L58.0123 114.814C58.023 114.27 57.911 113.784 57.6763 113.358C57.4417 112.931 57.1163 112.6 56.7003 112.366C56.295 112.12 55.8203 111.998 55.2763 111.998C54.743 111.998 54.2683 112.12 53.8523 112.366C53.4363 112.6 53.111 112.936 52.8763 113.374C52.6417 113.8 52.5243 114.291 52.5243 114.846V115.102C52.5243 115.667 52.6523 116.174 52.9083 116.622C53.175 117.059 53.543 117.4 54.0123 117.646C54.4817 117.891 55.0203 118.014 55.6283 118.014C56.1297 118.014 56.583 117.928 56.9883 117.758C57.4043 117.587 57.767 117.331 58.0763 116.99L58.9243 117.982C58.5403 118.43 58.0603 118.771 57.4843 119.006C56.919 119.24 56.2843 119.358 55.5803 119.358ZM64.5892 119.39C63.7359 119.39 62.9199 119.262 62.1412 119.006C61.3625 118.739 60.7492 118.398 60.3012 117.982L60.8932 116.734C61.3199 117.107 61.8639 117.416 62.5252 117.662C63.1865 117.907 63.8745 118.03 64.5892 118.03C65.2399 118.03 65.7679 117.955 66.1732 117.806C66.5785 117.656 66.8772 117.454 67.0692 117.198C67.2612 116.931 67.3572 116.632 67.3572 116.302C67.3572 115.918 67.2292 115.608 66.9732 115.374C66.7279 115.139 66.4025 114.952 65.9972 114.814C65.6025 114.664 65.1652 114.536 64.6852 114.43C64.2052 114.323 63.7199 114.2 63.2292 114.062C62.7492 113.912 62.3065 113.726 61.9012 113.502C61.5065 113.278 61.1865 112.979 60.9412 112.606C60.6959 112.222 60.5732 111.731 60.5732 111.134C60.5732 110.558 60.7225 110.03 61.0212 109.55C61.3305 109.059 61.7999 108.67 62.4292 108.382C63.0692 108.083 63.8799 107.934 64.8612 107.934C65.5119 107.934 66.1572 108.019 66.7972 108.19C67.4372 108.36 67.9919 108.606 68.4612 108.926L67.9332 110.206C67.4532 109.886 66.9465 109.656 66.4132 109.518C65.8799 109.368 65.3625 109.294 64.8612 109.294C64.2319 109.294 63.7145 109.374 63.3092 109.534C62.9039 109.694 62.6052 109.907 62.4132 110.174C62.2319 110.44 62.1412 110.739 62.1412 111.07C62.1412 111.464 62.2639 111.779 62.5092 112.014C62.7652 112.248 63.0905 112.435 63.4852 112.574C63.8905 112.712 64.3332 112.84 64.8132 112.958C65.2932 113.064 65.7732 113.187 66.2532 113.326C66.7439 113.464 67.1865 113.646 67.5812 113.87C67.9865 114.094 68.3119 114.392 68.5572 114.766C68.8025 115.139 68.9252 115.619 68.9252 116.206C68.9252 116.771 68.7705 117.299 68.4612 117.79C68.1519 118.27 67.6719 118.659 67.0212 118.958C66.3812 119.246 65.5705 119.39 64.5892 119.39ZM75.8187 119.39C74.9654 119.39 74.1707 119.246 73.4347 118.958C72.7094 118.67 72.08 118.27 71.5467 117.758C71.0134 117.235 70.5974 116.627 70.2987 115.934C70 115.24 69.8507 114.483 69.8507 113.662C69.8507 112.84 70 112.083 70.2987 111.39C70.5974 110.696 71.0134 110.094 71.5467 109.582C72.08 109.059 72.7094 108.654 73.4347 108.366C74.16 108.078 74.9547 107.934 75.8187 107.934C76.672 107.934 77.456 108.078 78.1707 108.366C78.896 108.643 79.5254 109.043 80.0587 109.566C80.6027 110.078 81.0187 110.68 81.3067 111.374C81.6054 112.067 81.7547 112.83 81.7547 113.662C81.7547 114.494 81.6054 115.256 81.3067 115.95C81.0187 116.643 80.6027 117.251 80.0587 117.774C79.5254 118.286 78.896 118.686 78.1707 118.974C77.456 119.251 76.672 119.39 75.8187 119.39ZM79.4827 121.598C79.1094 121.598 78.752 121.55 78.4107 121.454C78.0694 121.368 77.728 121.224 77.3867 121.022C77.0454 120.83 76.6934 120.574 76.3307 120.254C75.968 119.944 75.5734 119.56 75.1467 119.102L76.8587 118.654C77.1787 119.048 77.4827 119.368 77.7707 119.614C78.0694 119.87 78.3627 120.051 78.6507 120.158C78.9387 120.275 79.2214 120.334 79.4987 120.334C80.2987 120.334 80.9814 120.014 81.5467 119.374L82.2987 120.286C81.5734 121.16 80.6347 121.598 79.4827 121.598ZM75.8187 117.966C76.4374 117.966 77.008 117.859 77.5307 117.646C78.064 117.432 78.5227 117.128 78.9067 116.734C79.3014 116.339 79.6054 115.88 79.8187 115.358C80.0427 114.835 80.1547 114.27 80.1547 113.662C80.1547 113.043 80.0427 112.472 79.8187 111.95C79.6054 111.427 79.3014 110.974 78.9067 110.59C78.5227 110.195 78.064 109.891 77.5307 109.678C77.008 109.464 76.4374 109.358 75.8187 109.358C75.1894 109.358 74.608 109.464 74.0747 109.678C73.552 109.891 73.0934 110.195 72.6987 110.59C72.304 110.974 71.9947 111.427 71.7707 111.95C71.5574 112.472 71.4507 113.043 71.4507 113.662C71.4507 114.27 71.5574 114.835 71.7707 115.358C71.9947 115.88 72.304 116.339 72.6987 116.734C73.0934 117.128 73.552 117.432 74.0747 117.646C74.608 117.859 75.1894 117.966 75.8187 117.966ZM83.7002 119.262V108.062H85.3002V117.87H91.3642V119.262H83.7002Z" fill="#202020"/>
</svg>
