<svg width="90" height="133" viewBox="0 0 90 133" fill="none" xmlns="http://www.w3.org/2000/svg">
<rect y="0.761719" width="90" height="90" rx="24" fill="#F8F8FB"/>
<mask id="mask0_775_1612" style="mask-type:luminance" maskUnits="userSpaceOnUse" x="20" y="23" width="49" height="44">
<path d="M20.769 23.8506H68.6964V66.8971H20.769V23.8506Z" fill="white"/>
</mask>
<g mask="url(#mask0_775_1612)">
<path d="M60.8225 50.3648C59.9825 50.7294 59.064 51.0537 58.1167 51.3594C57.5594 49.4279 56.8267 47.4179 55.9187 45.3594C56.8163 43.309 57.5398 41.3094 58.0879 39.3871C59.0537 39.694 59.9733 40.0287 60.8329 40.3933C64.2898 41.8817 66.5271 43.8317 66.5271 45.3779C66.5179 46.9252 64.2806 48.8856 60.8225 50.3648ZM55.6348 64.4048C55.3417 64.5825 54.961 64.661 54.5121 64.661C52.4894 64.661 49.4906 63.0352 46.306 60.0687C47.6733 58.6217 49.0406 56.9764 50.341 55.1533C52.5483 54.9156 54.639 54.551 56.5533 54.0687C56.7783 55.0644 56.9537 56.0198 57.061 56.936C57.5202 60.6998 56.9537 63.6283 55.6348 64.4048ZM44.7529 58.5317C43.8437 57.5856 42.9356 56.5321 42.0367 55.3794C42.916 55.4187 43.8137 55.4487 44.7229 55.4487C45.6413 55.4487 46.5494 55.429 47.439 55.3794C46.5598 56.5333 45.6506 57.5867 44.7529 58.5317ZM34.9937 64.7106C34.554 64.7002 34.1825 64.6102 33.8883 64.444C32.5602 63.6756 31.9844 60.7494 32.4333 56.9856C32.5406 56.0602 32.7171 55.084 32.9317 54.0883C34.8471 54.5614 36.9367 54.926 39.1348 55.1637C40.4548 56.9867 41.821 58.6414 43.1987 60.0894C40.014 63.0744 37.0256 64.7106 34.9937 64.7106ZM31.3683 51.3698C30.4014 51.064 29.4829 50.7306 28.6337 50.366C25.1744 48.8775 22.9383 46.9275 22.9383 45.379C22.9383 43.8329 25.1744 41.8714 28.6337 40.3944C29.4725 40.0298 30.391 39.7044 31.3394 39.3998C31.8956 41.3302 32.6283 43.3402 33.5375 45.3998C32.6375 47.449 31.9164 49.4498 31.3683 51.3698ZM33.8306 26.3544C34.1225 26.1756 34.5044 26.0971 34.9544 26.0971V26.0879C36.976 26.0879 39.976 27.7125 43.1583 30.6802C41.7921 32.1271 40.4237 33.7725 39.1256 35.5956C36.9171 35.8321 34.8275 36.1956 32.9121 36.6802C32.6871 35.6948 32.5221 34.7383 32.4044 33.8221C31.9452 30.0583 32.5117 27.1321 33.8306 26.3533M47.4183 35.3787C46.5402 35.3394 45.6413 35.3094 44.7321 35.3094C43.8137 35.3094 42.9056 35.3302 42.0171 35.3787C42.8964 34.2271 43.8056 33.1725 44.7033 32.2264C45.6125 33.1725 46.5206 34.2248 47.4183 35.3787ZM53.3779 40.3356C52.9279 39.5464 52.4502 38.7779 51.9713 38.029C53.3583 38.2367 54.6967 38.4929 55.9775 38.8079C55.6152 40.0783 55.1664 41.3902 54.6575 42.6998C54.2571 41.9117 53.8383 41.1248 53.3767 40.3344M53.3883 50.396C53.8383 49.6067 54.2571 48.8083 54.6575 48.019C55.186 49.3414 55.636 50.6614 56.0075 51.9421C54.7267 52.2571 53.3767 52.5237 51.9806 52.7302C52.4606 51.9721 52.9383 51.1933 53.3883 50.396ZM35.941 45.4102C36.5456 44.089 37.2298 42.769 37.9625 41.479C38.724 40.1475 39.5063 38.8864 40.3164 37.714C41.7725 37.586 43.2471 37.5179 44.7321 37.5179C46.2067 37.5179 47.6825 37.586 49.1283 37.7048C49.9394 38.8771 50.731 40.1279 51.4937 41.4479C52.2356 42.7402 52.9094 44.0498 53.5244 45.371C52.9094 46.6898 52.2356 48.011 51.5029 49.301C50.7414 50.6314 49.959 51.8925 49.149 53.0648C47.6929 53.194 46.2183 53.2621 44.7321 53.2621C43.2575 53.2621 41.7829 53.1929 40.3371 53.0752C39.5248 51.9029 38.7344 50.651 37.9729 49.331C37.2298 48.0387 36.556 46.7302 35.941 45.409M33.4487 38.8079C34.7294 38.5021 36.0771 38.2356 37.4744 38.029C36.9956 38.7871 36.5167 39.5671 36.0667 40.3656C35.6179 41.1525 35.1979 41.9406 34.7975 42.7298C34.2702 41.4098 33.8214 40.0875 33.4498 38.8067M36.0771 50.4248C36.5364 51.2129 37.0048 51.9825 37.4848 52.7302C36.0967 52.5225 34.7583 52.2664 33.4787 51.9514C33.8398 50.681 34.2887 49.3702 34.7975 48.0606C35.1979 48.8475 35.6179 49.6367 36.0771 50.426M54.4613 26.0464V26.0556C54.9114 26.0556 55.2714 26.1444 55.5748 26.3117C56.904 27.0802 57.4798 30.0075 57.031 33.7702C56.9237 34.6967 56.7483 35.6717 56.5325 36.6675C54.6171 36.1944 52.5287 35.8298 50.3294 35.5933C49.0106 33.7702 47.6421 32.1156 46.2656 30.6675C49.4456 27.6848 52.4294 26.0521 54.4613 26.0464ZM68.6952 45.3767C68.6952 42.1748 64.719 39.1402 58.6221 37.2583C60.0298 30.9929 59.4056 26.0071 56.649 24.4102C56.019 24.0387 55.2806 23.8621 54.4729 23.8621V23.8506C51.7856 23.8506 48.2698 25.781 44.7137 29.1306C41.1575 25.8006 37.6406 23.8887 34.9533 23.8887V23.899C34.1317 23.899 33.391 24.0767 32.746 24.4506C29.9998 26.0464 29.3848 31.0229 30.8017 37.2698C24.7256 39.1621 20.769 42.1864 20.769 45.3779C20.769 48.581 24.744 51.6156 30.8421 53.4975C29.4344 59.7629 30.0598 64.7498 32.8129 66.3467C33.4498 66.7194 34.1917 66.8971 35.0121 66.8971C37.6983 66.8971 41.2152 64.9667 44.7714 61.616C48.3275 64.9471 51.8444 66.8579 54.5306 66.8579C55.351 66.8579 56.094 66.6802 56.739 66.3064C59.484 64.7094 60.1002 59.734 58.6821 53.4871C64.7398 51.6064 68.6964 48.5717 68.6964 45.3779" fill="#0066FF"/>
</g>
<path d="M44.723 49.8827C47.1888 49.8827 49.1884 47.867 49.1884 45.3804C49.1884 42.8927 47.1888 40.877 44.723 40.877C42.2572 40.877 40.2588 42.8939 40.2588 45.3804C40.2588 47.867 42.2561 49.8827 44.723 49.8827Z" fill="#0066FF"/>
<path d="M24.6746 119.262V108.062H29.0426C30.0239 108.062 30.8613 108.216 31.5546 108.526C32.2479 108.835 32.7813 109.283 33.1546 109.87C33.5279 110.456 33.7146 111.155 33.7146 111.966C33.7146 112.776 33.5279 113.475 33.1546 114.062C32.7813 114.638 32.2479 115.08 31.5546 115.39C30.8613 115.699 30.0239 115.854 29.0426 115.854H25.5546L26.2746 115.118V119.262H24.6746ZM32.1626 119.262L29.3146 115.198H31.0266L33.9066 119.262H32.1626ZM26.2746 115.278L25.5546 114.494H28.9946C30.0186 114.494 30.7919 114.275 31.3146 113.838C31.8479 113.39 32.1146 112.766 32.1146 111.966C32.1146 111.166 31.8479 110.547 31.3146 110.11C30.7919 109.672 30.0186 109.454 28.9946 109.454H25.5546L26.2746 108.654V115.278ZM39.3516 119.358C38.4449 119.358 37.6449 119.171 36.9516 118.798C36.2689 118.424 35.7356 117.912 35.3516 117.262C34.9783 116.611 34.7916 115.864 34.7916 115.022C34.7916 114.179 34.9729 113.432 35.3356 112.782C35.7089 112.131 36.2156 111.624 36.8556 111.262C37.5063 110.888 38.2369 110.702 39.0476 110.702C39.8689 110.702 40.5943 110.883 41.2236 111.246C41.8529 111.608 42.3436 112.12 42.6956 112.782C43.0583 113.432 43.2396 114.195 43.2396 115.07C43.2396 115.134 43.2343 115.208 43.2236 115.294C43.2236 115.379 43.2183 115.459 43.2076 115.534H35.9916V114.43H42.4076L41.7836 114.814C41.7943 114.27 41.6823 113.784 41.4476 113.358C41.2129 112.931 40.8876 112.6 40.4716 112.366C40.0663 112.12 39.5916 111.998 39.0476 111.998C38.5143 111.998 38.0396 112.12 37.6236 112.366C37.2076 112.6 36.8823 112.936 36.6476 113.374C36.4129 113.8 36.2956 114.291 36.2956 114.846V115.102C36.2956 115.667 36.4236 116.174 36.6796 116.622C36.9463 117.059 37.3143 117.4 37.7836 117.646C38.2529 117.891 38.7916 118.014 39.3996 118.014C39.9009 118.014 40.3543 117.928 40.7596 117.758C41.1756 117.587 41.5383 117.331 41.8476 116.99L42.6956 117.982C42.3116 118.43 41.8316 118.771 41.2556 119.006C40.6903 119.24 40.0556 119.358 39.3516 119.358ZM49.9021 119.262V117.47L49.8221 117.134V114.078C49.8221 113.427 49.6301 112.926 49.2461 112.574C48.8728 112.211 48.3074 112.03 47.5501 112.03C47.0488 112.03 46.5581 112.115 46.0781 112.286C45.5981 112.446 45.1928 112.664 44.8621 112.942L44.2221 111.79C44.6594 111.438 45.1821 111.171 45.7901 110.99C46.4088 110.798 47.0541 110.702 47.7261 110.702C48.8888 110.702 49.7848 110.984 50.4141 111.55C51.0434 112.115 51.3581 112.979 51.3581 114.142V119.262H49.9021ZM47.1181 119.358C46.4888 119.358 45.9341 119.251 45.4541 119.038C44.9848 118.824 44.6221 118.531 44.3661 118.158C44.1101 117.774 43.9821 117.342 43.9821 116.862C43.9821 116.403 44.0888 115.987 44.3021 115.614C44.5261 115.24 44.8834 114.942 45.3741 114.718C45.8754 114.494 46.5474 114.382 47.3901 114.382H50.0781V115.486H47.4541C46.6861 115.486 46.1688 115.614 45.9021 115.87C45.6354 116.126 45.5021 116.435 45.5021 116.798C45.5021 117.214 45.6674 117.55 45.9981 117.806C46.3288 118.051 46.7874 118.174 47.3741 118.174C47.9501 118.174 48.4514 118.046 48.8781 117.79C49.3154 117.534 49.6301 117.16 49.8221 116.67L50.1261 117.726C49.9234 118.227 49.5661 118.627 49.0541 118.926C48.5421 119.214 47.8968 119.358 47.1181 119.358ZM57.3966 119.358C56.5326 119.358 55.7593 119.171 55.0766 118.798C54.4046 118.424 53.8766 117.912 53.4926 117.262C53.1086 116.611 52.9166 115.864 52.9166 115.022C52.9166 114.179 53.1086 113.432 53.4926 112.782C53.8766 112.131 54.4046 111.624 55.0766 111.262C55.7593 110.888 56.5326 110.702 57.3966 110.702C58.1646 110.702 58.8473 110.856 59.4446 111.166C60.0526 111.464 60.5219 111.912 60.8526 112.51L59.6846 113.262C59.4073 112.846 59.0659 112.542 58.6606 112.35C58.2659 112.147 57.8393 112.046 57.3806 112.046C56.8259 112.046 56.3299 112.168 55.8926 112.414C55.4553 112.659 55.1086 113.006 54.8526 113.454C54.5966 113.891 54.4686 114.414 54.4686 115.022C54.4686 115.63 54.5966 116.158 54.8526 116.606C55.1086 117.054 55.4553 117.4 55.8926 117.646C56.3299 117.891 56.8259 118.014 57.3806 118.014C57.8393 118.014 58.2659 117.918 58.6606 117.726C59.0659 117.523 59.4073 117.214 59.6846 116.798L60.8526 117.534C60.5219 118.12 60.0526 118.574 59.4446 118.894C58.8473 119.203 58.1646 119.358 57.3966 119.358ZM65.3626 119.358C64.5093 119.358 63.8479 119.128 63.3786 118.67C62.9093 118.211 62.6746 117.555 62.6746 116.702V108.926H64.2106V116.638C64.2106 117.096 64.3226 117.448 64.5466 117.694C64.7813 117.939 65.1119 118.062 65.5386 118.062C66.0186 118.062 66.4186 117.928 66.7386 117.662L67.2186 118.766C66.9839 118.968 66.7013 119.118 66.3706 119.214C66.0506 119.31 65.7146 119.358 65.3626 119.358ZM61.2346 112.046V110.782H66.6426V112.046H61.2346Z" fill="#202020"/>
</svg>
