<svg width="90" height="133" viewBox="0 0 90 133" fill="none" xmlns="http://www.w3.org/2000/svg">
<rect y="0.761719" width="90" height="90" rx="24" fill="#F8F8FB"/>
<path d="M77.4727 55.1081C77.2602 53.3706 76.3002 52.0206 74.8327 50.9644C75.1952 51.2244 75.5027 51.4456 74.8265 50.9594C73.914 50.3031 74.3965 50.6506 74.8202 50.9544C71.2015 48.3594 66.4827 48.9356 62.539 50.3781C60.959 47.7831 60.8902 45.8031 61.8015 42.9719C61.919 42.6131 61.839 42.4144 61.4677 42.2544C60.5677 41.8669 59.2727 42.0719 58.3677 42.3144C58.0552 42.3969 57.8277 42.5569 57.7577 42.8744C57.104 45.9744 55.0915 48.8119 53.3365 51.4244C52.1015 49.0406 52.199 47.1956 53.0302 44.7119C53.1302 44.4081 53.0852 44.2481 52.784 44.0869C51.8627 43.6069 50.4477 43.8431 49.509 44.1231C48.429 44.4406 46.8065 49.8231 46.2877 50.8919C45.2052 53.1206 44.2452 56.6019 42.4052 58.3706C40.8427 56.3494 45.2652 51.7844 43.7865 49.9519C43.2865 49.3319 42.3815 49.3481 41.8077 49.8731C41.9452 48.9006 42.0165 48.2606 41.7665 47.4356C41.504 46.5681 40.8327 46.0694 39.8515 46.0956C37.5665 46.1619 35.5552 47.8606 34.184 49.4706C32.879 51.0169 29.439 51.9794 27.589 52.9119C24.4102 50.1244 17.5315 47.1656 17.3515 42.4181C17.1577 37.0681 23.4865 33.4381 27.7115 31.2681C33.2052 28.4419 41.6702 24.9256 47.914 28.0156C49.5702 28.8356 50.2377 30.5944 49.7815 32.2781C48.5915 36.6719 43.789 39.6031 39.6115 40.9469C37.5565 41.6094 35.299 42.1019 33.124 41.9731C30.2102 41.8019 27.9415 40.0269 27.6302 39.9169C27.3702 39.8669 27.3902 40.2056 27.459 40.3856C30.4827 48.3669 45.7927 42.5181 49.7965 38.4206C51.7252 36.4494 52.8965 34.5381 53.3965 31.5306C53.9827 28.0044 51.4115 25.7981 49.459 24.8881C39.5677 20.2769 25.8927 26.3156 18.414 32.4731C15.1677 35.1444 11.1065 39.3906 12.9702 43.8431C14.9927 48.6769 21.189 51.1556 25.2215 54.1106C21.959 55.7431 17.8765 57.4319 15.7615 60.4944C14.5527 62.2494 14.124 64.1194 15.024 66.1144C16.6202 69.6394 22.424 68.1119 24.8715 66.5581C27.1152 65.1356 28.6252 63.2256 29.2777 60.7769C29.8427 58.6531 29.7277 56.4469 28.7877 54.4469L32.4165 52.5981C31.439 55.5481 31.0077 59.2469 33.0365 61.9131C33.849 62.9781 35.9577 63.0219 36.8215 61.9519C37.9402 60.5531 38.684 58.8006 39.424 57.1956C39.3377 58.3944 39.189 59.7519 39.599 60.7956C40.0702 61.9956 41.139 62.2394 42.239 61.4794C45.6052 59.1519 47.749 52.7031 49.4065 48.9431C49.8577 50.5831 50.3565 52.0806 51.179 53.5931C51.3827 53.9644 51.3577 54.2044 51.079 54.5131C49.849 55.8781 46.9102 58.1544 46.6252 59.9981C46.559 60.4281 46.8427 60.8406 47.3477 60.9394C49.3252 61.3369 51.5165 60.6156 53.1227 59.5231C54.7965 58.3831 55.3365 56.8281 54.9302 54.9831C54.349 52.3281 56.3252 49.3606 58.2052 47.1806C58.5515 48.8306 59.0715 50.4194 60.0015 51.8606C58.3415 53.3294 55.864 55.4106 56.2202 57.8606C56.3452 58.7394 57.1265 59.3069 58.0627 59.1069C60.0665 58.6819 61.7977 57.8131 63.0615 56.2756C64.2065 54.8881 63.7965 53.3731 63.2965 51.8469C66.3277 50.9756 69.394 50.8019 72.4165 51.8444C73.8752 52.3444 75.0515 53.1869 75.749 54.5056C76.6027 56.1219 76.1215 57.6106 74.4727 58.6731C74.0552 58.9419 73.7665 59.1631 73.9077 59.2794C74.049 59.3956 74.5302 59.5494 75.5952 58.8769C76.6577 58.2031 77.309 57.2944 77.4765 56.0994C77.509 55.7694 77.5077 55.4369 77.4727 55.1081ZM27.4815 57.2919C27.304 59.5469 26.2277 61.3756 24.4665 62.8519C23.4765 63.6844 22.2415 64.3644 21.0165 64.4869C19.7915 64.6119 18.839 64.2894 18.7577 62.9681C18.5277 59.2506 24.0802 55.6081 27.1627 54.5119C27.4252 55.4394 27.554 56.3606 27.479 57.2956L27.4815 57.2919ZM39.989 48.8006C39.5202 51.7944 38.2065 57.1681 36.1052 59.3131C35.8227 59.6006 35.5515 59.5844 35.4077 59.2094C34.164 55.9819 35.849 49.3244 39.3827 48.2969C39.799 48.1769 40.0577 48.3744 39.989 48.8006ZM48.7502 59.4694C49.9977 58.2356 51.244 57.0019 52.494 55.7619C52.649 57.1419 49.8902 59.8869 48.7502 59.4694ZM59.6627 58.0669C59.3927 58.2169 58.7877 58.3644 58.7627 58.1656C58.5927 56.7356 60.1215 55.2206 61.069 54.5119C61.5815 55.8544 60.9752 57.3331 59.6627 58.0669Z" fill="#0066FF"/>
<path d="M30.2045 119.39C29.3511 119.39 28.5351 119.262 27.7565 119.006C26.9778 118.739 26.3645 118.398 25.9165 117.982L26.5085 116.734C26.9351 117.107 27.4791 117.416 28.1405 117.662C28.8018 117.907 29.4898 118.03 30.2045 118.03C30.8551 118.03 31.3831 117.955 31.7885 117.806C32.1938 117.656 32.4925 117.454 32.6845 117.198C32.8765 116.931 32.9725 116.632 32.9725 116.302C32.9725 115.918 32.8445 115.608 32.5885 115.374C32.3431 115.139 32.0178 114.952 31.6125 114.814C31.2178 114.664 30.7805 114.536 30.3005 114.43C29.8205 114.323 29.3351 114.2 28.8445 114.062C28.3645 113.912 27.9218 113.726 27.5165 113.502C27.1218 113.278 26.8018 112.979 26.5565 112.606C26.3111 112.222 26.1885 111.731 26.1885 111.134C26.1885 110.558 26.3378 110.03 26.6365 109.55C26.9458 109.059 27.4151 108.67 28.0445 108.382C28.6845 108.083 29.4951 107.934 30.4765 107.934C31.1271 107.934 31.7725 108.019 32.4125 108.19C33.0525 108.36 33.6071 108.606 34.0765 108.926L33.5485 110.206C33.0685 109.886 32.5618 109.656 32.0285 109.518C31.4951 109.368 30.9778 109.294 30.4765 109.294C29.8471 109.294 29.3298 109.374 28.9245 109.534C28.5191 109.694 28.2205 109.907 28.0285 110.174C27.8471 110.44 27.7565 110.739 27.7565 111.07C27.7565 111.464 27.8791 111.779 28.1245 112.014C28.3805 112.248 28.7058 112.435 29.1005 112.574C29.5058 112.712 29.9485 112.84 30.4285 112.958C30.9085 113.064 31.3885 113.187 31.8685 113.326C32.3591 113.464 32.8018 113.646 33.1965 113.87C33.6018 114.094 33.9271 114.392 34.1725 114.766C34.4178 115.139 34.5405 115.619 34.5405 116.206C34.5405 116.771 34.3858 117.299 34.0765 117.79C33.7671 118.27 33.2871 118.659 32.6365 118.958C31.9965 119.246 31.1858 119.39 30.2045 119.39ZM34.682 119.262L39.754 108.062H41.338L46.426 119.262H44.746L40.218 108.958H40.858L36.33 119.262H34.682ZM36.842 116.462L37.274 115.182H43.578L44.042 116.462H36.842ZM50.8607 119.39C50.0074 119.39 49.1914 119.262 48.4127 119.006C47.634 118.739 47.0207 118.398 46.5727 117.982L47.1647 116.734C47.5914 117.107 48.1354 117.416 48.7967 117.662C49.458 117.907 50.146 118.03 50.8607 118.03C51.5114 118.03 52.0394 117.955 52.4447 117.806C52.85 117.656 53.1487 117.454 53.3407 117.198C53.5327 116.931 53.6287 116.632 53.6287 116.302C53.6287 115.918 53.5007 115.608 53.2447 115.374C52.9994 115.139 52.674 114.952 52.2687 114.814C51.874 114.664 51.4367 114.536 50.9567 114.43C50.4767 114.323 49.9914 114.2 49.5007 114.062C49.0207 113.912 48.578 113.726 48.1727 113.502C47.778 113.278 47.458 112.979 47.2127 112.606C46.9674 112.222 46.8447 111.731 46.8447 111.134C46.8447 110.558 46.994 110.03 47.2927 109.55C47.602 109.059 48.0714 108.67 48.7007 108.382C49.3407 108.083 50.1514 107.934 51.1327 107.934C51.7834 107.934 52.4287 108.019 53.0687 108.19C53.7087 108.36 54.2634 108.606 54.7327 108.926L54.2047 110.206C53.7247 109.886 53.218 109.656 52.6847 109.518C52.1514 109.368 51.634 109.294 51.1327 109.294C50.5034 109.294 49.986 109.374 49.5807 109.534C49.1754 109.694 48.8767 109.907 48.6847 110.174C48.5034 110.44 48.4127 110.739 48.4127 111.07C48.4127 111.464 48.5354 111.779 48.7807 112.014C49.0367 112.248 49.362 112.435 49.7567 112.574C50.162 112.712 50.6047 112.84 51.0847 112.958C51.5647 113.064 52.0447 113.187 52.5247 113.326C53.0154 113.464 53.458 113.646 53.8527 113.87C54.258 114.094 54.5834 114.392 54.8287 114.766C55.074 115.139 55.1967 115.619 55.1967 116.206C55.1967 116.771 55.042 117.299 54.7327 117.79C54.4234 118.27 53.9434 118.659 53.2927 118.958C52.6527 119.246 51.842 119.39 50.8607 119.39ZM60.2982 119.39C59.4449 119.39 58.6289 119.262 57.8502 119.006C57.0715 118.739 56.4582 118.398 56.0102 117.982L56.6022 116.734C57.0289 117.107 57.5729 117.416 58.2342 117.662C58.8955 117.907 59.5835 118.03 60.2982 118.03C60.9489 118.03 61.4769 117.955 61.8822 117.806C62.2875 117.656 62.5862 117.454 62.7782 117.198C62.9702 116.931 63.0662 116.632 63.0662 116.302C63.0662 115.918 62.9382 115.608 62.6822 115.374C62.4369 115.139 62.1115 114.952 61.7062 114.814C61.3115 114.664 60.8742 114.536 60.3942 114.43C59.9142 114.323 59.4289 114.2 58.9382 114.062C58.4582 113.912 58.0155 113.726 57.6102 113.502C57.2155 113.278 56.8955 112.979 56.6502 112.606C56.4049 112.222 56.2822 111.731 56.2822 111.134C56.2822 110.558 56.4315 110.03 56.7302 109.55C57.0395 109.059 57.5089 108.67 58.1382 108.382C58.7782 108.083 59.5889 107.934 60.5702 107.934C61.2209 107.934 61.8662 108.019 62.5062 108.19C63.1462 108.36 63.7009 108.606 64.1702 108.926L63.6422 110.206C63.1622 109.886 62.6555 109.656 62.1222 109.518C61.5889 109.368 61.0715 109.294 60.5702 109.294C59.9409 109.294 59.4235 109.374 59.0182 109.534C58.6129 109.694 58.3142 109.907 58.1222 110.174C57.9409 110.44 57.8502 110.739 57.8502 111.07C57.8502 111.464 57.9729 111.779 58.2182 112.014C58.4742 112.248 58.7995 112.435 59.1942 112.574C59.5995 112.712 60.0422 112.84 60.5222 112.958C61.0022 113.064 61.4822 113.187 61.9622 113.326C62.4529 113.464 62.8955 113.646 63.2902 113.87C63.6955 114.094 64.0209 114.392 64.2662 114.766C64.5115 115.139 64.6342 115.619 64.6342 116.206C64.6342 116.771 64.4795 117.299 64.1702 117.79C63.8609 118.27 63.3809 118.659 62.7302 118.958C62.0902 119.246 61.2795 119.39 60.2982 119.39Z" fill="#202020"/>
</svg>
