<svg width="90" height="133" viewBox="0 0 90 133" fill="none" xmlns="http://www.w3.org/2000/svg">
<rect y="0.761719" width="90" height="90" rx="24" fill="#F8F8FB"/>
<path d="M20.3574 23.2617L45.0003 68.2617L69.6431 23.2617H59.786L45.0003 50.2617L30.0914 23.2617H20.3574Z" fill="#0066FF"/>
<path d="M30.0215 23.2617L45.0622 50.8756L59.9786 23.2617H50.7804L45.0622 33.8828L39.2197 23.2617H30.0215Z" fill="#93BEFF"/>
<path d="M34.9338 119.262L30.0058 108.062H31.7338L36.2618 118.398H35.2698L39.8298 108.062H41.4298L36.5178 119.262H34.9338ZM45.4208 119.358C44.6955 119.358 44.0555 119.224 43.5008 118.958C42.9568 118.691 42.5302 118.286 42.2208 117.742C41.9222 117.187 41.7728 116.494 41.7728 115.662V110.782H43.3088V115.486C43.3088 116.318 43.5062 116.942 43.9008 117.358C44.3062 117.774 44.8715 117.982 45.5968 117.982C46.1302 117.982 46.5942 117.875 46.9888 117.662C47.3835 117.438 47.6875 117.118 47.9008 116.702C48.1142 116.275 48.2208 115.763 48.2208 115.166V110.782H49.7568V119.262H48.3008V116.974L48.5408 117.582C48.2635 118.147 47.8475 118.584 47.2928 118.894C46.7382 119.203 46.1142 119.358 45.4208 119.358ZM55.957 119.358C55.0503 119.358 54.2503 119.171 53.557 118.798C52.8743 118.424 52.341 117.912 51.957 117.262C51.5836 116.611 51.397 115.864 51.397 115.022C51.397 114.179 51.5783 113.432 51.941 112.782C52.3143 112.131 52.821 111.624 53.461 111.262C54.1116 110.888 54.8423 110.702 55.653 110.702C56.4743 110.702 57.1996 110.883 57.829 111.246C58.4583 111.608 58.949 112.12 59.301 112.782C59.6636 113.432 59.845 114.195 59.845 115.07C59.845 115.134 59.8396 115.208 59.829 115.294C59.829 115.379 59.8236 115.459 59.813 115.534H52.597V114.43H59.013L58.389 114.814C58.3996 114.27 58.2876 113.784 58.053 113.358C57.8183 112.931 57.493 112.6 57.077 112.366C56.6716 112.12 56.197 111.998 55.653 111.998C55.1196 111.998 54.645 112.12 54.229 112.366C53.813 112.6 53.4876 112.936 53.253 113.374C53.0183 113.8 52.901 114.291 52.901 114.846V115.102C52.901 115.667 53.029 116.174 53.285 116.622C53.5516 117.059 53.9196 117.4 54.389 117.646C54.8583 117.891 55.397 118.014 56.005 118.014C56.5063 118.014 56.9596 117.928 57.365 117.758C57.781 117.587 58.1436 117.331 58.453 116.99L59.301 117.982C58.917 118.43 58.437 118.771 57.861 119.006C57.2956 119.24 56.661 119.358 55.957 119.358Z" fill="#202020"/>
</svg>
